JosefinSlab-BoldItalic.ufo
<glyph name="quotedbl" format="2">
  <advance width="335"/>
  <unicode hex="0022"/>
  <outline>
    <contour>
      <point x="178" y="472" type="line"/>
      <point x="213" y="720" type="line"/>
      <point x="296" y="720" type="line"/>
      <point x="286" y="657"/>
      <point x="267" y="535"/>
      <point x="257" y="472" type="qcurve"/>
    </contour>
    <contour>
      <point x="45" y="472" type="line"/>
      <point x="80" y="720" type="line"/>
      <point x="163" y="720" type="line"/>
      <point x="153" y="657"/>
      <point x="134" y="535"/>
      <point x="124" y="472" type="qcurve"/>
    </contour>
  </outline>
</glyph>
<glyph name="numbersign" format="1">
  <advance width="571"/>
  <unicode hex="0023"/>
  <outline>
    <contour>
      <point x="229" y="371" type="line"/>
      <point x="223" y="345"/>
      <point x="210" y="295"/>
      <point x="203" y="269" type="qcurve"/>
      <point x="303" y="269" type="line"/>
      <point x="310" y="295"/>
      <point x="323" y="345"/>
      <point x="329" y="371" type="qcurve"/>
    </contour>
    <contour>
      <point x="233" y="0" type="line"/>
      <point x="245" y="48"/>
      <point x="270" y="140"/>
      <point x="282" y="188" type="qcurve"/>
      <point x="182" y="188" type="line"/>
      <point x="170" y="140"/>
      <point x="145" y="48"/>
      <point x="133" y="0" type="qcurve"/>
      <point x="49" y="0" type="line"/>
      <point x="61" y="48"/>
      <point x="86" y="140"/>
      <point x="98" y="188" type="qcurve"/>
      <point x="6" y="188" type="line"/>
      <point x="27" y="269" type="line"/>
      <point x="119" y="269" type="line"/>
      <point x="126" y="295"/>
      <point x="139" y="345"/>
      <point x="145" y="371" type="qcurve"/>
      <point x="54" y="371" type="line"/>
      <point x="59" y="391"/>
      <point x="69" y="432"/>
      <point x="74" y="452" type="qcurve"/>
      <point x="166" y="452" type="line"/>
      <point x="179" y="500"/>
      <point x="204" y="595"/>
      <point x="217" y="643" type="qcurve"/>
      <point x="301" y="643" type="line"/>
      <point x="288" y="595"/>
      <point x="263" y="500"/>
      <point x="250" y="452" type="qcurve"/>
      <point x="350" y="452" type="line"/>
      <point x="363" y="500"/>
      <point x="388" y="595"/>
      <point x="401" y="643" type="qcurve"/>
      <point x="485" y="643" type="line"/>
      <point x="472" y="595"/>
      <point x="447" y="500"/>
      <point x="434" y="452" type="qcurve"/>
      <point x="536" y="452" type="line"/>
      <point x="531" y="432"/>
      <point x="521" y="391"/>
      <point x="516" y="371" type="qcurve"/>
      <point x="413" y="371" type="line"/>
      <point x="407" y="345"/>
      <point x="394" y="295"/>
      <point x="387" y="269" type="qcurve"/>
      <point x="489" y="269" type="line"/>
      <point x="468" y="188" type="line"/>
      <point x="366" y="188" type="line"/>
      <point x="354" y="140"/>
      <point x="329" y="48"/>
      <point x="317" y="0" type="qcurve"/>
    </contour>
  </outline>
</glyph>
<glyph name="dollar" format="2">
  <advance width="567"/>
  <unicode hex="0024"/>
  <outline>
    <contour>
      <point x="372" y="546" type="line"/>
      <point x="381" y="605" type="line"/>
      <point x="368" y="611"/>
      <point x="338" y="621"/>
      <point x="319" y="623" type="qcurve"/>
      <point x="288" y="398" type="line"/>
      <point x="319" y="387"/>
      <point x="378" y="359"/>
      <point x="400" y="336" type="qcurve" smooth="yes" name="inserted"/>
      <point x="422" y="313"/>
      <point x="443" y="241"/>
      <point x="436" y="187" type="qcurve" smooth="yes"/>
      <point x="430" y="146"/>
      <point x="393" y="79"/>
      <point x="366" y="54" type="qcurve" smooth="yes" name="inserted"/>
      <point x="338" y="29"/>
      <point x="268" y="-2"/>
      <point x="231" y="-6" type="qcurve"/>
      <point x="222" y="-68" type="line"/>
      <point x="138" y="-68" type="line"/>
      <point x="147" y="-3" type="line"/>
      <point x="122" y="1"/>
      <point x="76" y="16"/>
      <point x="57" y="26" type="qcurve" smooth="yes"/>
      <point x="32" y="39"/>
      <point x="-5" y="74"/>
      <point x="-14" y="93" type="qcurve"/>
      <point x="1" y="209" type="line"/>
      <point x="80" y="209" type="line"/>
      <point x="67" y="120" type="line"/>
      <point x="85" y="105"/>
      <point x="129" y="81"/>
      <point x="158" y="75" type="qcurve"/>
      <point x="196" y="343" type="line"/>
      <point x="169" y="352"/>
      <point x="119" y="376"/>
      <point x="102" y="396" type="qcurve" smooth="yes" name="inserted"/>
      <point x="84" y="415"/>
      <point x="67" y="473"/>
      <point x="72" y="517" type="qcurve" smooth="yes"/>
      <point x="75" y="545"/>
      <point x="99" y="604"/>
      <point x="120" y="630" type="qcurve" smooth="yes" name="inserted"/>
      <point x="141" y="655"/>
      <point x="204" y="692"/>
      <point x="246" y="700" type="qcurve"/>
      <point x="255" y="764" type="line"/>
      <point x="339" y="764" type="line"/>
      <point x="330" y="702" type="line"/>
      <point x="347" y="700"/>
      <point x="384" y="693"/>
      <point x="403" y="685" type="qcurve" smooth="yes"/>
      <point x="418" y="678"/>
      <point x="450" y="658"/>
      <point x="465" y="644" type="qcurve"/>
      <point x="451" y="546" type="line"/>
    </contour>
    <contour>
      <point x="353" y="188" type="qcurve" smooth="yes"/>
      <point x="357" y="216"/>
      <point x="348" y="257"/>
      <point x="338" y="272" type="qcurve" smooth="yes" name="inserted"/>
      <point x="327" y="287"/>
      <point x="295" y="308"/>
      <point x="276" y="316" type="qcurve"/>
      <point x="242" y="75" type="line"/>
      <point x="258" y="79"/>
      <point x="289" y="91"/>
      <point x="302" y="101" type="qcurve" smooth="yes"/>
      <point x="322" y="115"/>
      <point x="349" y="159"/>
    </contour>
    <contour>
      <point x="155" y="514" type="qcurve" smooth="yes"/>
      <point x="152" y="491"/>
      <point x="164" y="460"/>
      <point x="176" y="448" type="qcurve" smooth="yes"/>
      <point x="183" y="442"/>
      <point x="199" y="432"/>
      <point x="208" y="427" type="qcurve"/>
      <point x="234" y="616" type="line"/>
      <point x="217" y="610"/>
      <point x="191" y="590"/>
      <point x="181" y="578" type="qcurve" smooth="yes"/>
      <point x="171" y="564"/>
      <point x="158" y="532"/>
    </contour>
  </outline>
</glyph>
<glyph name="percent" format="1">
  <advance width="726"/>
  <unicode hex="0025"/>
  <outline>
    <contour>
      <point x="458" y="111" type="qcurve" smooth="yes"/>
      <point x="455" y="91"/>
      <point x="476" y="65"/>
      <point x="496" y="65" type="qcurve" smooth="yes"/>
      <point x="516" y="65"/>
      <point x="543" y="91"/>
      <point x="546" y="111" type="qcurve" smooth="yes"/>
      <point x="549" y="131"/>
      <point x="528" y="156"/>
      <point x="508" y="156" type="qcurve" smooth="yes"/>
      <point x="488" y="156"/>
      <point x="461" y="131"/>
    </contour>
    <contour>
      <point x="484" y="-16" type="qcurve" smooth="yes"/>
      <point x="458" y="-16"/>
      <point x="414" y="4"/>
      <point x="399.0" y="21.0" type="qcurve" smooth="yes" name="inserted"/>
      <point x="384" y="38"/>
      <point x="370" y="84"/>
      <point x="374" y="111" type="qcurve" smooth="yes"/>
      <point x="378" y="137"/>
      <point x="405" y="183"/>
      <point x="424.5" y="200.0" type="qcurve" smooth="yes" name="inserted"/>
      <point x="444" y="217"/>
      <point x="494" y="237"/>
      <point x="520" y="237" type="qcurve" smooth="yes"/>
      <point x="546" y="237"/>
      <point x="590" y="217"/>
      <point x="605.0" y="200.0" type="qcurve" smooth="yes" name="inserted"/>
      <point x="620" y="183"/>
      <point x="634" y="137"/>
      <point x="630" y="111" type="qcurve" smooth="yes"/>
      <point x="626" y="84"/>
      <point x="599" y="38"/>
      <point x="579.0" y="21.0" type="qcurve" smooth="yes" name="inserted"/>
      <point x="559" y="4"/>
      <point x="510" y="-16"/>
    </contour>
    <contour>
      <point x="193" y="389" type="qcurve" smooth="yes"/>
      <point x="190" y="369"/>
      <point x="211" y="343"/>
      <point x="231" y="343" type="qcurve" smooth="yes"/>
      <point x="251" y="343"/>
      <point x="278" y="369"/>
      <point x="281" y="389" type="qcurve" smooth="yes"/>
      <point x="284" y="409"/>
      <point x="263" y="434"/>
      <point x="243" y="434" type="qcurve" smooth="yes"/>
      <point x="223" y="434"/>
      <point x="196" y="409"/>
    </contour>
    <contour>
      <point x="219" y="262" type="qcurve" smooth="yes"/>
      <point x="193" y="262"/>
      <point x="149" y="282"/>
      <point x="134.0" y="299.0" type="qcurve" smooth="yes" name="inserted"/>
      <point x="119" y="316"/>
      <point x="105" y="362"/>
      <point x="109" y="389" type="qcurve" smooth="yes"/>
      <point x="113" y="415"/>
      <point x="140" y="461"/>
      <point x="159.5" y="478.0" type="qcurve" smooth="yes" name="inserted"/>
      <point x="179" y="495"/>
      <point x="229" y="515"/>
      <point x="255" y="515" type="qcurve" smooth="yes"/>
      <point x="281" y="515"/>
      <point x="325" y="495"/>
      <point x="340.0" y="478.0" type="qcurve" smooth="yes" name="inserted"/>
      <point x="355" y="461"/>
      <point x="369" y="415"/>
      <point x="365" y="389" type="qcurve" smooth="yes"/>
      <point x="361" y="362"/>
      <point x="334" y="316"/>
      <point x="314.0" y="299.0" type="qcurve" smooth="yes" name="inserted"/>
      <point x="294" y="282"/>
      <point x="245" y="262"/>
    </contour>
    <contour>
      <point x="138" y="0" type="line"/>
      <point x="231" y="126"/>
      <point x="414" y="374"/>
      <point x="507" y="500" type="qcurve"/>
      <point x="598" y="500" type="line"/>
      <point x="505" y="374"/>
      <point x="322" y="126"/>
      <point x="229" y="0" type="qcurve"/>
    </contour>
  </outline>
</glyph>
<glyph name="ampersand" format="2">
  <advance width="700"/>
  <unicode hex="0026"/>
  <outline>
    <contour>
      <point x="421" y="375" type="line"/>
      <point x="600" y="375" type="line"/>
      <point x="589" y="294" type="line"/>
      <point x="494" y="294" type="line"/>
      <point x="488" y="254" type="line" smooth="yes"/>
      <point x="487" y="246"/>
      <point x="484" y="221"/>
      <point x="482" y="206" type="qcurve" smooth="yes" name="inserted"/>
      <point x="480" y="190"/>
      <point x="473" y="158"/>
      <point x="468" y="145" type="qcurve"/>
      <point x="526" y="24" type="line"/>
      <point x="455" y="-19" type="line"/>
      <point x="416" y="63" type="line"/>
      <point x="384" y="30"/>
      <point x="298" y="-9"/>
      <point x="250" y="-9" type="qcurve" smooth="yes"/>
      <point x="208" y="-9"/>
      <point x="140" y="22"/>
      <point x="116" y="49" type="qcurve" smooth="yes" name="inserted"/>
      <point x="93" y="76"/>
      <point x="72" y="147"/>
      <point x="78" y="188" type="qcurve" smooth="yes"/>
      <point x="83" y="224"/>
      <point x="116" y="288"/>
      <point x="142" y="314" type="qcurve" smooth="yes" name="inserted"/>
      <point x="167" y="339"/>
      <point x="231" y="374"/>
      <point x="266" y="380" type="qcurve"/>
      <point x="212" y="496" type="line" smooth="yes"/>
      <point x="198" y="526"/>
      <point x="193" y="590"/>
      <point x="202" y="620" type="qcurve" smooth="yes" name="inserted"/>
      <point x="211" y="651"/>
      <point x="256" y="706"/>
      <point x="292" y="726" type="qcurve" smooth="yes"/>
      <point x="323" y="743"/>
      <point x="382" y="750"/>
      <point x="409" y="744" type="qcurve" smooth="yes" name="inserted"/>
      <point x="436" y="739"/>
      <point x="483" y="717"/>
      <point x="500" y="705" type="qcurve"/>
      <point x="458" y="640" type="line"/>
      <point x="449" y="646"/>
      <point x="420" y="661"/>
      <point x="404" y="665" type="qcurve" smooth="yes" name="inserted"/>
      <point x="387" y="669"/>
      <point x="353" y="669"/>
      <point x="338" y="660" type="qcurve" smooth="yes"/>
      <point x="317" y="648"/>
      <point x="291" y="617"/>
      <point x="285" y="600" type="qcurve" smooth="yes"/>
      <point x="278" y="580"/>
      <point x="282" y="536"/>
      <point x="292" y="515" type="qcurve" smooth="yes"/>
      <point x="407" y="273" type="line"/>
      <point x="408" y="280"/>
      <point x="409" y="288"/>
      <point x="410" y="295" type="qcurve" smooth="yes"/>
    </contour>
    <contour>
      <point x="161" y="188" type="qcurve" smooth="yes"/>
      <point x="157" y="160"/>
      <point x="173" y="112"/>
      <point x="191" y="96" type="qcurve" smooth="yes"/>
      <point x="204" y="85"/>
      <point x="240" y="72"/>
      <point x="262" y="72" type="qcurve" smooth="yes"/>
      <point x="300" y="72"/>
      <point x="362" y="110"/>
      <point x="379" y="141" type="qcurve"/>
      <point x="303" y="303" type="line"/>
      <point x="276" y="303"/>
      <point x="230" y="289"/>
      <point x="211" y="275" type="qcurve" smooth="yes"/>
      <point x="191" y="261"/>
      <point x="165" y="216"/>
    </contour>
  </outline>
</glyph>
<glyph name="quotesingle" format="1">
  <advance width="163"/>
  <unicode hex="0027"/>
  <outline>
    <contour>
      <point x="24" y="472" type="line"/>
      <point x="59" y="720" type="line"/>
      <point x="143" y="720" type="line"/>
      <point x="133" y="657"/>
      <point x="114" y="535"/>
      <point x="104" y="472" type="qcurve"/>
    </contour>
  </outline>
</glyph>
<glyph name="parenleft" format="1">
  <advance width="424"/>
  <unicode hex="0028"/>
  <outline>
    <contour>
      <point x="115" y="291" type="qcurve" smooth="yes"/>
      <point x="125" y="366"/>
      <point x="172" y="502"/>
      <point x="203.5" y="560.0" type="qcurve" smooth="yes" name="inserted"/>
      <point x="235" y="618"/>
      <point x="307" y="713"/>
      <point x="343" y="746" type="qcurve"/>
      <point x="360" y="740"/>
      <point x="396" y="729"/>
      <point x="413" y="723" type="qcurve"/>
      <point x="380" y="690"/>
      <point x="312" y="600"/>
      <point x="282.5" y="545.0" type="qcurve" smooth="yes" name="inserted"/>
      <point x="253" y="490"/>
      <point x="209" y="362"/>
      <point x="199" y="291" type="qcurve" smooth="yes"/>
      <point x="189" y="220"/>
      <point x="197" y="92"/>
      <point x="211.0" y="37.0" type="qcurve" smooth="yes" name="inserted"/>
      <point x="225" y="-18"/>
      <point x="268" y="-108"/>
      <point x="292" y="-141" type="qcurve"/>
      <point x="273" y="-147"/>
      <point x="235" y="-158"/>
      <point x="216" y="-164" type="qcurve"/>
      <point x="189" y="-131"/>
      <point x="143" y="-36"/>
      <point x="128.0" y="22.0" type="qcurve" smooth="yes" name="inserted"/>
      <point x="113" y="80"/>
      <point x="104" y="216"/>
    </contour>
  </outline>
</glyph>
<glyph name="parenright" format="2">
  <advance width="400"/>
  <unicode hex="0029"/>
  <outline>
    <contour>
      <point x="312" y="288" type="qcurve" smooth="yes"/>
      <point x="301" y="213"/>
      <point x="254" y="77"/>
      <point x="222.5" y="19" type="qcurve" smooth="yes" name="inserted"/>
      <point x="191" y="-39"/>
      <point x="119" y="-134"/>
      <point x="83" y="-167" type="qcurve"/>
      <point x="13" y="-146" type="line"/>
      <point x="46" y="-113"/>
      <point x="114" y="-23"/>
      <point x="143.5" y="32" type="qcurve" smooth="yes" name="inserted"/>
      <point x="173" y="87"/>
      <point x="217" y="215"/>
      <point x="227" y="286" type="qcurve" smooth="yes"/>
      <point x="237" y="357"/>
      <point x="229" y="485"/>
      <point x="215" y="540" type="qcurve" smooth="yes" name="inserted"/>
      <point x="201" y="595"/>
      <point x="158" y="685"/>
      <point x="134" y="718" type="qcurve"/>
      <point x="210" y="743" type="line"/>
      <point x="237" y="710"/>
      <point x="283" y="615"/>
      <point x="298" y="557" type="qcurve" smooth="yes" name="inserted"/>
      <point x="313" y="499"/>
      <point x="322" y="363"/>
    </contour>
  </outline>
</glyph>
<glyph name="asterisk" format="2">
  <advance width="335"/>
  <unicode hex="002A"/>
  <outline>
    <contour>
      <point x="249" y="575" type="qcurve"/>
      <point x="264" y="566"/>
      <point x="293" y="548"/>
      <point x="307" y="539" type="qcurve"/>
      <point x="294" y="521"/>
      <point x="268" y="484"/>
      <point x="255" y="466" type="qcurve"/>
      <point x="241" y="475"/>
      <point x="212" y="494"/>
      <point x="198" y="503" type="qcurve"/>
      <point x="196" y="486"/>
      <point x="190" y="451"/>
      <point x="187" y="434" type="qcurve"/>
      <point x="107" y="434" type="line"/>
      <point x="117" y="504" type="line"/>
      <point x="101" y="495"/>
      <point x="68" y="478"/>
      <point x="51" y="469" type="qcurve"/>
      <point x="43" y="487"/>
      <point x="28" y="524"/>
      <point x="20" y="542" type="qcurve"/>
      <point x="37" y="550"/>
      <point x="69" y="568"/>
      <point x="86" y="576" type="qcurve"/>
      <point x="72" y="585"/>
      <point x="45" y="604"/>
      <point x="31" y="613" type="qcurve"/>
      <point x="79" y="682" type="line"/>
      <point x="94" y="673"/>
      <point x="123" y="654"/>
      <point x="137" y="645" type="qcurve"/>
      <point x="148" y="720" type="line"/>
      <point x="232" y="720" type="line"/>
      <point x="220" y="645" type="line"/>
      <point x="289" y="681" type="line"/>
      <point x="297" y="664"/>
      <point x="312" y="629"/>
      <point x="319" y="612" type="qcurve"/>
      <point x="302" y="603"/>
      <point x="267" y="584"/>
    </contour>
  </outline>
</glyph>
<glyph name="plus" format="1">
  <advance width="543"/>
  <unicode hex="002B"/>
  <outline>
    <contour>
      <point x="198" y="51" type="line"/>
      <point x="218" y="190" type="line"/>
      <point x="80" y="190" type="line"/>
      <point x="91" y="271" type="line"/>
      <point x="229" y="271" type="line"/>
      <point x="249" y="411" type="line"/>
      <point x="333" y="411" type="line"/>
      <point x="313" y="271" type="line"/>
      <point x="451" y="271" type="line"/>
      <point x="440" y="190" type="line"/>
      <point x="302" y="190" type="line"/>
      <point x="282" y="51" type="line"/>
    </contour>
  </outline>
</glyph>
<glyph name="comma" format="1">
  <advance width="200"/>
  <unicode hex="002C"/>
  <outline>
    <contour>
      <point x="177" y="86" type="line"/>
      <point x="148" y="34"/>
      <point x="91" y="-68"/>
      <point x="62" y="-120" type="qcurve"/>
      <point x="-12" y="-120" type="line"/>
      <point x="14" y="-68"/>
      <point x="66" y="34"/>
      <point x="93" y="86" type="qcurve"/>
    </contour>
  </outline>
</glyph>
<glyph name="hyphen" format="1">
  <advance width="300"/>
  <unicode hex="002D"/>
  <outline>
    <contour>
      <point x="47" y="147" type="line"/>
      <point x="58" y="228" type="line"/>
      <point x="242" y="228" type="line"/>
      <point x="231" y="147" type="line"/>
    </contour>
  </outline>
</glyph>
<glyph name="zero" format="1">
  <advance width="616"/>
  <unicode hex="0030"/>
  <outline>
    <contour>
      <point x="37" y="327" type="qcurve" smooth="yes"/>
      <point x="48" y="403"/>
      <point x="107" y="526"/>
      <point x="149.5" y="569.0" type="qcurve" smooth="yes" name="inserted"/>
      <point x="192" y="612"/>
      <point x="297" y="658"/>
      <point x="353" y="658" type="qcurve" smooth="yes"/>
      <point x="409" y="658"/>
      <point x="500" y="610"/>
      <point x="530.0" y="566.5" type="qcurve" smooth="yes" name="inserted"/>
      <point x="560" y="523"/>
      <point x="583" y="399"/>
      <point x="572" y="323" type="qcurve" smooth="yes"/>
      <point x="561" y="247"/>
      <point x="498" y="125"/>
      <point x="454.0" y="81.5" type="qcurve" smooth="yes" name="inserted"/>
      <point x="410" y="38"/>
      <point x="307" y="-8"/>
      <point x="256" y="-8" type="qcurve" smooth="yes"/>
      <point x="205" y="-8"/>
      <point x="115" y="40"/>
      <point x="84.0" y="84.0" type="qcurve" smooth="yes" name="inserted"/>
      <point x="53" y="128"/>
      <point x="26" y="251"/>
    </contour>
    <contour>
      <point x="121" y="326" type="qcurve" smooth="yes"/>
      <point x="113" y="273"/>
      <point x="129" y="181"/>
      <point x="149.0" y="147.0" type="qcurve" smooth="yes" name="inserted"/>
      <point x="169" y="113"/>
      <point x="229" y="73"/>
      <point x="267" y="73" type="qcurve" smooth="yes"/>
      <point x="304" y="73"/>
      <point x="377" y="111"/>
      <point x="407.5" y="145.0" type="qcurve" smooth="yes" name="inserted"/>
      <point x="438" y="179"/>
      <point x="480" y="271"/>
      <point x="488" y="324" type="qcurve" smooth="yes"/>
      <point x="494" y="360"/>
      <point x="488" y="448"/>
      <point x="472.0" y="486.5" type="qcurve" smooth="yes" name="inserted"/>
      <point x="456" y="525"/>
      <point x="393" y="577"/>
      <point x="342" y="577" type="qcurve" smooth="yes"/>
      <point x="291" y="577"/>
      <point x="213" y="526"/>
      <point x="185.5" y="488.0" type="qcurve" smooth="yes" name="inserted"/>
      <point x="158" y="450"/>
      <point x="126" y="362"/>
    </contour>
  </outline>
</glyph>
<glyph name="one" format="1">
  <advance width="290"/>
  <unicode hex="0031"/>
  <outline>
    <contour>
      <point x="-11" y="79" type="line"/>
      <point x="67" y="79" type="line"/>
      <point x="136" y="569" type="line"/>
      <point x="68" y="569" type="line"/>
      <point x="79" y="650" type="line"/>
      <point x="231" y="650" type="line"/>
      <point x="151" y="79" type="line"/>
      <point x="230" y="79" type="line"/>
      <point x="219" y="0" type="line"/>
      <point x="-22" y="0" type="line"/>
    </contour>
  </outline>
</glyph>
<glyph name="two" format="1">
  <advance width="519"/>
  <unicode hex="0032"/>
  <outline>
    <contour>
      <point x="218" y="81" type="qcurve"/>
      <point x="382" y="81" type="line"/>
      <point x="395" y="174" type="line"/>
      <point x="474" y="174" type="line"/>
      <point x="449" y="0" type="line"/>
      <point x="6" y="0" type="line"/>
      <point x="76" y="62"/>
      <point x="209" y="179"/>
      <point x="261.5" y="233.5" type="qcurve" smooth="yes" name="inserted"/>
      <point x="314" y="288"/>
      <point x="383" y="391"/>
      <point x="390" y="438" type="qcurve" smooth="yes"/>
      <point x="395" y="475"/>
      <point x="378" y="527"/>
      <point x="362.0" y="544.0" type="qcurve" smooth="yes" name="inserted"/>
      <point x="346" y="561"/>
      <point x="305" y="577"/>
      <point x="287" y="577" type="qcurve" smooth="yes"/>
      <point x="249" y="577"/>
      <point x="197" y="551"/>
      <point x="180.5" y="532.0" type="qcurve" smooth="yes" name="inserted"/>
      <point x="164" y="513"/>
      <point x="147" y="471"/>
      <point x="145" y="455" type="qcurve" smooth="yes"/>
      <point x="140.5" y="423.0" name="inserted"/>
      <point x="153.0" y="371.0"/>
      <point x="170" y="351" type="qcurve"/>
      <point x="112" y="300" type="line"/>
      <point x="97" y="311"/>
      <point x="75" y="348"/>
      <point x="68.5" y="369.5" type="qcurve" smooth="yes" name="inserted"/>
      <point x="62" y="391"/>
      <point x="58" y="436"/>
      <point x="61" y="455" type="qcurve" smooth="yes"/>
      <point x="67" y="495"/>
      <point x="104" y="569"/>
      <point x="135.0" y="597.0" type="qcurve" smooth="yes" name="inserted"/>
      <point x="166" y="625"/>
      <point x="248" y="658"/>
      <point x="299" y="658" type="qcurve" smooth="yes"/>
      <point x="345" y="658"/>
      <point x="416" y="624"/>
      <point x="439.0" y="595.5" type="qcurve" smooth="yes" name="inserted"/>
      <point x="462" y="567"/>
      <point x="482" y="492"/>
      <point x="476" y="450" type="qcurve" smooth="yes"/>
      <point x="469" y="400"/>
      <point x="421" y="307"/>
      <point x="386.0" y="261.0" type="qcurve" smooth="yes" name="inserted"/>
      <point x="351" y="215"/>
      <point x="264" y="126"/>
    </contour>
  </outline>
</glyph>
<glyph name="three" format="2">
  <advance width="515"/>
  <unicode hex="0033"/>
  <outline>
    <contour>
      <point x="154" y="326" type="qcurve"/>
      <point x="327" y="568" type="line"/>
      <point x="216" y="568" type="line"/>
      <point x="210" y="521" type="line"/>
      <point x="131" y="521" type="line"/>
      <point x="149" y="650" type="line"/>
      <point x="478" y="650" type="line"/>
      <point x="301" y="412" type="line"/>
      <point x="332" y="400"/>
      <point x="381" y="361"/>
      <point x="397.5" y="335" type="qcurve" smooth="yes" name="inserted"/>
      <point x="414" y="309"/>
      <point x="427" y="245"/>
      <point x="422" y="209" type="qcurve" smooth="yes"/>
      <point x="416" y="164"/>
      <point x="369" y="85"/>
      <point x="335" y="55.5" type="qcurve" smooth="yes" name="inserted"/>
      <point x="301" y="26"/>
      <point x="217" y="-8"/>
      <point x="172" y="-8" type="qcurve" smooth="yes"/>
      <point x="124" y="-8"/>
      <point x="48" y="31"/>
      <point x="22" y="63" type="qcurve"/>
      <point x="91" y="120" type="line"/>
      <point x="106" y="98"/>
      <point x="154" y="73"/>
      <point x="184" y="73" type="qcurve" smooth="yes"/>
      <point x="212" y="73"/>
      <point x="264" y="95"/>
      <point x="285" y="113.5" type="qcurve" smooth="yes" name="inserted"/>
      <point x="306" y="132"/>
      <point x="335" y="181"/>
      <point x="339" y="209" type="qcurve" smooth="yes"/>
      <point x="343" y="237"/>
      <point x="328" y="286"/>
      <point x="312" y="304" type="qcurve" smooth="yes" name="inserted"/>
      <point x="296" y="322"/>
      <point x="250" y="343"/>
      <point x="222" y="343" type="qcurve" smooth="yes"/>
      <point x="204" y="343" name="inserted"/>
      <point x="170" y="334.5"/>
    </contour>
  </outline>
</glyph>
<glyph name="four" format="1">
  <advance width="529"/>
  <unicode hex="0034"/>
  <outline>
    <contour>
      <point x="208" y="79" type="line"/>
      <point x="283" y="79" type="line"/>
      <point x="298" y="183" type="line"/>
      <point x="16" y="183" type="line"/>
      <point x="449" y="658" type="line"/>
      <point x="393" y="264" type="line"/>
      <point x="490" y="264" type="line"/>
      <point x="479" y="183" type="line"/>
      <point x="382" y="183" type="line"/>
      <point x="367" y="79" type="line"/>
      <point x="450" y="79" type="line"/>
      <point x="439" y="0" type="line"/>
      <point x="197" y="0" type="line"/>
    </contour>
    <contour>
      <point x="330" y="413" type="line"/>
      <point x="195" y="264" type="line"/>
      <point x="309" y="264" type="line"/>
    </contour>
  </outline>
</glyph>
<glyph name="five" format="1">
  <advance width="543"/>
  <unicode hex="0035"/>
  <outline>
    <contour>
      <point x="476" y="650" type="line"/>
      <point x="458" y="521" type="line"/>
      <point x="379" y="521" type="line"/>
      <point x="385" y="569" type="line"/>
      <point x="261" y="569" type="line"/>
      <point x="241" y="422" type="line"/>
      <point x="247" y="423"/>
      <point x="260" y="424"/>
      <point x="267" y="424" type="qcurve" smooth="yes"/>
      <point x="312" y="424"/>
      <point x="387" y="391"/>
      <point x="412.5" y="361.5" type="qcurve" smooth="yes" name="inserted"/>
      <point x="438" y="332"/>
      <point x="462" y="254"/>
      <point x="456" y="209" type="qcurve" smooth="yes"/>
      <point x="450" y="164"/>
      <point x="403" y="85"/>
      <point x="369.0" y="55.5" type="qcurve" smooth="yes" name="inserted"/>
      <point x="335" y="26"/>
      <point x="251" y="-8"/>
      <point x="206" y="-8" type="qcurve" smooth="yes"/>
      <point x="162" y="-8"/>
      <point x="90" y="24"/>
      <point x="65" y="53" type="qcurve"/>
      <point x="134" y="109" type="line"/>
      <point x="149" y="92"/>
      <point x="192" y="73"/>
      <point x="218" y="73" type="qcurve" smooth="yes"/>
      <point x="246" y="73"/>
      <point x="298" y="95"/>
      <point x="319.0" y="113.5" type="qcurve" smooth="yes" name="inserted"/>
      <point x="340" y="132"/>
      <point x="369" y="181"/>
      <point x="373" y="209" type="qcurve" smooth="yes"/>
      <point x="377" y="237"/>
      <point x="362" y="286"/>
      <point x="346.0" y="304.0" type="qcurve" smooth="yes" name="inserted"/>
      <point x="330" y="322"/>
      <point x="284" y="343"/>
      <point x="256" y="343" type="qcurve" smooth="yes"/>
      <point x="221" y="343"/>
      <point x="160" y="320"/>
      <point x="138" y="292" type="qcurve"/>
      <point x="189" y="650" type="line"/>
    </contour>
  </outline>
</glyph>
<glyph name="eight" format="2">
  <advance width="510"/>
  <unicode hex="0038"/>
  <outline>
    <contour>
      <point x="204" y="498" type="qcurve" smooth="yes"/>
      <point x="201" y="481"/>
      <point x="211" y="452"/>
      <point x="221" y="442" type="qcurve" smooth="yes"/>
      <point x="229" y="434"/>
      <point x="254" y="424"/>
      <point x="268" y="424" type="qcurve" smooth="yes"/>
      <point x="282" y="424"/>
      <point x="309" y="433"/>
      <point x="320" y="441" type="qcurve" smooth="yes"/>
      <point x="333" y="451"/>
      <point x="351" y="480"/>
      <point x="354" y="498" type="qcurve" smooth="yes"/>
      <point x="357" y="515"/>
      <point x="348" y="545"/>
      <point x="339" y="555" type="qcurve" smooth="yes"/>
      <point x="331" y="565"/>
      <point x="305" y="577"/>
      <point x="290" y="577" type="qcurve" smooth="yes"/>
      <point x="275" y="577"/>
      <point x="246" y="564"/>
      <point x="234" y="553" type="qcurve" smooth="yes" name="inserted"/>
      <point x="222" y="542"/>
      <point x="206" y="514"/>
    </contour>
    <contour>
      <point x="105" y="209" type="qcurve" smooth="yes"/>
      <point x="101" y="181"/>
      <point x="115" y="132"/>
      <point x="130.0" y="113.5" type="qcurve" smooth="yes" name="inserted"/>
      <point x="145" y="95"/>
      <point x="190" y="73"/>
      <point x="217" y="73" type="qcurve" smooth="yes"/>
      <point x="245" y="73"/>
      <point x="297" y="95"/>
      <point x="318.5" y="113.5" type="qcurve" smooth="yes" name="inserted"/>
      <point x="340" y="132"/>
      <point x="368" y="181"/>
      <point x="372" y="209" type="qcurve" smooth="yes"/>
      <point x="376" y="236"/>
      <point x="362" y="284"/>
      <point x="347.0" y="302.0" type="qcurve" smooth="yes" name="inserted"/>
      <point x="332" y="320"/>
      <point x="287" y="342"/>
      <point x="260" y="343" type="qcurve" smooth="yes"/>
      <point x="231" y="343"/>
      <point x="178" y="322"/>
      <point x="157.5" y="304.0" type="qcurve" smooth="yes" name="inserted"/>
      <point x="137" y="286"/>
      <point x="109" y="237"/>
    </contour>
    <contour>
      <point x="19" y="209" type="qcurve" smooth="yes"/>
      <point x="24" y="244"/>
      <point x="54" y="308"/>
      <point x="77" y="334" type="qcurve" smooth="yes"/>
      <point x="92" y="351"/>
      <point x="127" y="380"/>
      <point x="147" y="391" type="qcurve"/>
      <point x="130" y="411"/>
      <point x="114" y="466"/>
      <point x="119" y="498" type="qcurve" smooth="yes"/>
      <point x="123" y="531"/>
      <point x="156" y="589"/>
      <point x="180" y="611" type="qcurve" smooth="yes" name="inserted"/>
      <point x="205" y="633"/>
      <point x="266" y="658"/>
      <point x="299" y="658" type="qcurve" smooth="yes"/>
      <point x="332" y="658"/>
      <point x="387" y="633"/>
      <point x="406" y="611" type="qcurve" smooth="yes" name="inserted"/>
      <point x="424" y="589"/>
      <point x="441" y="531"/>
      <point x="437" y="498" type="qcurve" smooth="yes"/>
      <point x="432" y="466"/>
      <point x="401" y="411"/>
      <point x="378" y="391" type="qcurve"/>
      <point x="393" y="381"/>
      <point x="419" y="354"/>
      <point x="428" y="339" type="qcurve" smooth="yes"/>
      <point x="446" y="312"/>
      <point x="460" y="246"/>
      <point x="455" y="209" type="qcurve" smooth="yes"/>
      <point x="449" y="164"/>
      <point x="403" y="85"/>
      <point x="369" y="56" type="qcurve" smooth="yes" name="inserted"/>
      <point x="335" y="26"/>
      <point x="251" y="-8"/>
      <point x="206" y="-8" type="qcurve" smooth="yes"/>
      <point x="161" y="-8"/>
      <point x="87" y="26"/>
      <point x="62" y="56" type="qcurve" smooth="yes" name="inserted"/>
      <point x="36" y="85"/>
      <point x="13" y="164"/>
    </contour>
  </outline>
</glyph>
<glyph name="nine" format="2">
  <advance width="525"/>
  <unicode hex="0039"/>
  <outline>
    <contour>
      <point x="390" y="419" type="qcurve" smooth="yes"/>
      <point x="394" y="447"/>
      <point x="381" y="496"/>
      <point x="365.5" y="514.5" type="qcurve" smooth="yes" name="inserted"/>
      <point x="350" y="533"/>
      <point x="305" y="555"/>
      <point x="278" y="555" type="qcurve" smooth="yes"/>
      <point x="250" y="555"/>
      <point x="198" y="533"/>
      <point x="177" y="514.5" type="qcurve" smooth="yes" name="inserted"/>
      <point x="156" y="496"/>
      <point x="127" y="447"/>
      <point x="123" y="419" type="qcurve" smooth="yes"/>
      <point x="119" y="391"/>
      <point x="134" y="342"/>
      <point x="150" y="324" type="qcurve" smooth="yes" name="inserted"/>
      <point x="166" y="306"/>
      <point x="212" y="285"/>
      <point x="240" y="285" type="qcurve" smooth="yes"/>
      <point x="267" y="285"/>
      <point x="318" y="306"/>
      <point x="338.5" y="324" type="qcurve" smooth="yes" name="inserted"/>
      <point x="359" y="342"/>
      <point x="386" y="391"/>
    </contour>
    <contour>
      <point x="476" y="419" type="qcurve" smooth="yes"/>
      <point x="467" y="351"/>
      <point x="387" y="229"/>
      <point x="330" y="176" type="qcurve" smooth="yes" name="inserted"/>
      <point x="274" y="122"/>
      <point x="144" y="30"/>
      <point x="85" y="-9" type="qcurve"/>
      <point x="74" y="7"/>
      <point x="53" y="39"/>
      <point x="42" y="55" type="qcurve"/>
      <point x="77" y="76"/>
      <point x="138" y="117"/>
      <point x="163" y="135" type="qcurve" smooth="yes"/>
      <point x="189" y="154"/>
      <point x="232" y="189"/>
      <point x="250" y="205" type="qcurve"/>
      <point x="245" y="204"/>
      <point x="234" y="204"/>
      <point x="229" y="204" type="qcurve" smooth="yes"/>
      <point x="184" y="204"/>
      <point x="109" y="237"/>
      <point x="84" y="266" type="qcurve" smooth="yes" name="inserted"/>
      <point x="58" y="296"/>
      <point x="34" y="374"/>
      <point x="40" y="419" type="qcurve" smooth="yes"/>
      <point x="46" y="464"/>
      <point x="93" y="543"/>
      <point x="127" y="572" type="qcurve" smooth="yes" name="inserted"/>
      <point x="161" y="602"/>
      <point x="245" y="636"/>
      <point x="290" y="636" type="qcurve" smooth="yes"/>
      <point x="335" y="636"/>
      <point x="409" y="601"/>
      <point x="434" y="572" type="qcurve" smooth="yes" name="inserted"/>
      <point x="459" y="542"/>
      <point x="482" y="463"/>
    </contour>
  </outline>
</glyph>
<glyph name="colon" format="2">
  <advance width="175"/>
  <unicode hex="003A"/>
  <outline>
    <contour>
      <point x="50" y="302" type="qcurve" smooth="yes"/>
      <point x="53" y="325"/>
      <point x="89" y="355"/>
      <point x="109" y="355" type="qcurve" smooth="yes"/>
      <point x="128" y="355"/>
      <point x="156" y="325"/>
      <point x="153" y="302" type="qcurve" smooth="yes"/>
      <point x="150" y="279"/>
      <point x="114" y="250"/>
      <point x="95" y="250" type="qcurve" smooth="yes"/>
      <point x="75" y="250"/>
      <point x="47" y="279"/>
    </contour>
    <contour>
      <point x="15" y="52" type="qcurve" smooth="yes"/>
      <point x="18" y="75"/>
      <point x="54" y="105"/>
      <point x="74" y="105" type="qcurve" smooth="yes"/>
      <point x="93" y="105"/>
      <point x="121" y="75"/>
      <point x="118" y="52" type="qcurve" smooth="yes"/>
      <point x="115" y="29"/>
      <point x="79" y="0"/>
      <point x="60" y="0" type="qcurve" smooth="yes"/>
      <point x="40" y="0"/>
      <point x="12" y="29"/>
    </contour>
  </outline>
</glyph>
<glyph name="greater" format="1">
  <advance width="650"/>
  <unicode hex="003E"/>
  <outline>
    <contour>
      <point x="80" y="-14" type="qcurve"/>
      <point x="96" y="99" type="line"/>
      <point x="161" y="134"/>
      <point x="291" y="203"/>
      <point x="357" y="238" type="qcurve"/>
      <point x="301" y="273"/>
      <point x="191" y="342"/>
      <point x="135" y="377" type="qcurve"/>
      <point x="151" y="490" type="line"/>
      <point x="252" y="427"/>
      <point x="451" y="301"/>
      <point x="553" y="238" type="qcurve"/>
      <point x="434" y="175"/>
      <point x="199" y="49"/>
    </contour>
  </outline>
</glyph>
<glyph name="question" format="2">
  <advance width="452"/>
  <unicode hex="003F"/>
  <outline>
    <contour>
      <point x="140" y="552" type="qcurve"/>
      <point x="123" y="559"/>
      <point x="87" y="572"/>
      <point x="70" y="579" type="qcurve"/>
      <point x="80" y="601"/>
      <point x="114" y="654"/>
      <point x="140" y="677" type="qcurve" smooth="yes" name="inserted"/>
      <point x="167" y="700"/>
      <point x="241" y="732"/>
      <point x="292" y="732" type="qcurve" smooth="yes"/>
      <point x="333" y="732"/>
      <point x="401" y="701"/>
      <point x="424" y="674" type="qcurve" smooth="yes" name="inserted"/>
      <point x="446" y="648"/>
      <point x="467" y="577"/>
      <point x="461" y="537" type="qcurve" smooth="yes"/>
      <point x="453" y="481"/>
      <point x="389" y="398"/>
      <point x="338" y="364" type="qcurve" smooth="yes"/>
      <point x="323" y="354"/>
      <point x="288" y="333"/>
      <point x="272" y="320" type="qcurve" smooth="yes" name="inserted"/>
      <point x="256" y="306"/>
      <point x="233" y="269"/>
      <point x="229" y="242" type="qcurve" smooth="yes"/>
      <point x="218" y="164" type="line"/>
      <point x="134" y="164" type="line"/>
      <point x="148" y="261" type="line" smooth="yes"/>
      <point x="152" y="293"/>
      <point x="179" y="333"/>
      <point x="198" y="348" type="qcurve" smooth="yes" name="inserted"/>
      <point x="216" y="364"/>
      <point x="263" y="391"/>
      <point x="288" y="409" type="qcurve" smooth="yes"/>
      <point x="328" y="436"/>
      <point x="371" y="500"/>
      <point x="376" y="537" type="qcurve" smooth="yes"/>
      <point x="379" y="561"/>
      <point x="370" y="603"/>
      <point x="357" y="618" type="qcurve" smooth="yes"/>
      <point x="345" y="634"/>
      <point x="306" y="651"/>
      <point x="281" y="651" type="qcurve" smooth="yes"/>
      <point x="251" y="651"/>
      <point x="207" y="637"/>
      <point x="190" y="623" type="qcurve" smooth="yes"/>
      <point x="174" y="611"/>
      <point x="150" y="575"/>
    </contour>
    <contour>
      <point x="152" y="0" type="qcurve" smooth="yes"/>
      <point x="132" y="0"/>
      <point x="104" y="29"/>
      <point x="107" y="52" type="qcurve" smooth="yes"/>
      <point x="111" y="75"/>
      <point x="147" y="105"/>
      <point x="167" y="105" type="qcurve" smooth="yes"/>
      <point x="186" y="105"/>
      <point x="214" y="75"/>
      <point x="210" y="52" type="qcurve" smooth="yes"/>
      <point x="207" y="29"/>
      <point x="171" y="0"/>
    </contour>
  </outline>
</glyph>
<glyph name="at" format="2">
  <advance width="990"/>
  <unicode hex="0040"/>
  <outline>
    <contour>
      <point x="367" y="188" type="qcurve" smooth="yes"/>
      <point x="363" y="160"/>
      <point x="378" y="113"/>
      <point x="396" y="97" type="qcurve" smooth="yes"/>
      <point x="409" y="85"/>
      <point x="446" y="72"/>
      <point x="468" y="72" type="qcurve" smooth="yes"/>
      <point x="494" y="72"/>
      <point x="539" y="90"/>
      <point x="557" y="106" type="qcurve" smooth="yes" name="inserted"/>
      <point x="575" y="121"/>
      <point x="598" y="164"/>
      <point x="601" y="188" type="qcurve" smooth="yes"/>
      <point x="605" y="215"/>
      <point x="592" y="260"/>
      <point x="577" y="275" type="qcurve" smooth="yes"/>
      <point x="564" y="288"/>
      <point x="525" y="303"/>
      <point x="501" y="303" type="qcurve" smooth="yes"/>
      <point x="475" y="303"/>
      <point x="430" y="286"/>
      <point x="412" y="271" type="qcurve" smooth="yes" name="inserted"/>
      <point x="394" y="255"/>
      <point x="371" y="213"/>
    </contour>
    <contour>
      <point x="909" y="188" type="qcurve" smooth="yes"/>
      <point x="900" y="135"/>
      <point x="847" y="64"/>
      <point x="816.0" y="42" type="qcurve" smooth="yes" name="inserted"/>
      <point x="785" y="19"/>
      <point x="718" y="0"/>
      <point x="691" y="0" type="qcurve" smooth="yes"/>
      <point x="585" y="0" type="line"/>
      <point x="588" y="20" type="line" smooth="yes"/>
      <point x="589" y="25"/>
      <point x="590" y="35"/>
      <point x="591" y="40" type="qcurve"/>
      <point x="579" y="25"/>
      <point x="509" y="-9"/>
      <point x="457" y="-9" type="qcurve" smooth="yes"/>
      <point x="415" y="-9"/>
      <point x="345" y="22"/>
      <point x="322.0" y="49.0" type="qcurve" smooth="yes" name="inserted"/>
      <point x="299" y="76"/>
      <point x="277" y="147"/>
      <point x="283" y="187" type="qcurve" smooth="yes"/>
      <point x="289" y="226"/>
      <point x="330" y="297"/>
      <point x="361.0" y="324.0" type="qcurve" smooth="yes" name="inserted"/>
      <point x="392" y="351"/>
      <point x="470" y="382"/>
      <point x="512" y="382" type="qcurve" smooth="yes"/>
      <point x="564" y="382.0"/>
      <point x="621" y="344"/>
      <point x="631" y="328" type="qcurve"/>
      <point x="633" y="337"/>
      <point x="639" y="361"/>
      <point x="642" y="375" type="qcurve"/>
      <point x="711" y="375" type="line"/>
      <point x="669" y="81" type="line"/>
      <point x="702" y="81" type="line" smooth="yes"/>
      <point x="722" y="81"/>
      <point x="762" y="92"/>
      <point x="779" y="105" type="qcurve" smooth="yes" name="inserted"/>
      <point x="795" y="117"/>
      <point x="820" y="158"/>
      <point x="825" y="188" type="qcurve" smooth="yes"/>
      <point x="836" y="259"/>
      <point x="800" y="383"/>
      <point x="761" y="430" type="qcurve" smooth="yes" name="inserted"/>
      <point x="721" y="476"/>
      <point x="606" y="529"/>
      <point x="536" y="529" type="qcurve" smooth="yes"/>
      <point x="465" y="529"/>
      <point x="334" y="476"/>
      <point x="282" y="430" type="qcurve" smooth="yes" name="inserted"/>
      <point x="229" y="383"/>
      <point x="158" y="259"/>
      <point x="148" y="188" type="qcurve" smooth="yes"/>
      <point x="138" y="117"/>
      <point x="174" y="-6"/>
      <point x="214.0" y="-52.0" type="qcurve" smooth="yes" name="inserted"/>
      <point x="254" y="-98"/>
      <point x="370" y="-151"/>
      <point x="441" y="-151" type="qcurve" smooth="yes"/>
      <point x="500" y="-151"/>
      <point x="610" y="-116"/>
      <point x="659" y="-85" type="qcurve"/>
      <point x="670" y="-100"/>
      <point x="690" y="-129"/>
      <point x="701" y="-144" type="qcurve"/>
      <point x="645.0" y="-187.99999999999997"/>
      <point x="512" y="-232"/>
      <point x="429" y="-232" type="qcurve" smooth="yes"/>
      <point x="341" y="-232"/>
      <point x="196" y="-166"/>
      <point x="147" y="-109.0" type="qcurve" smooth="yes" name="inserted"/>
      <point x="97" y="-52"/>
      <point x="53" y="102"/>
      <point x="65" y="189" type="qcurve" smooth="yes"/>
      <point x="77" y="276"/>
      <point x="165" y="430"/>
      <point x="231" y="487.0" type="qcurve" smooth="yes" name="inserted"/>
      <point x="296" y="544"/>
      <point x="460" y="610"/>
      <point x="548" y="610" type="qcurve" smooth="yes"/>
      <point x="635" y="610"/>
      <point x="779" y="544"/>
      <point x="828.0" y="487.0" type="qcurve" smooth="yes" name="inserted"/>
      <point x="877" y="430"/>
      <point x="923" y="276"/>
    </contour>
  </outline>
</glyph>
<glyph name="A" format="1">
  <advance width="788"/>
  <unicode hex="0041"/>
  <outline>
    <contour>
      <point x="46" y="79" type="line"/>
      <point x="128" y="79" type="line"/>
      <point x="220" y="244"/>
      <point x="404" y="567"/>
      <point x="496" y="732" type="qcurve"/>
      <point x="543" y="567"/>
      <point x="635" y="244"/>
      <point x="682" y="79" type="qcurve"/>
      <point x="764" y="79" type="line"/>
      <point x="753" y="0" type="line"/>
      <point x="531" y="0" type="line"/>
      <point x="542" y="79" type="line"/>
      <point x="598" y="79" type="line"/>
      <point x="584" y="129"/>
      <point x="556" y="227"/>
      <point x="542" y="277" type="qcurve"/>
      <point x="322" y="277" type="line"/>
      <point x="211" y="79" type="line"/>
      <point x="268" y="79" type="line"/>
      <point x="257" y="0" type="line"/>
      <point x="35" y="0" type="line"/>
    </contour>
    <contour>
      <point x="475" y="515" type="line"/>
      <point x="470" y="548" type="line"/>
      <point x="457.82943298024213" y="521.2247525565327"/>
      <point x="454" y="514"/>
      <point x="449" y="505" type="qcurve" smooth="yes"/>
      <point x="434" y="478"/>
      <point x="385.63114948830037" y="388.323774061884"/>
      <point x="368" y="356" type="qcurve"/>
      <point x="520" y="356" type="line"/>
    </contour>
  </outline>
</glyph>
<glyph name="B" format="1">
  <advance width="542"/>
  <unicode hex="0042"/>
  <outline>
    <contour>
      <point x="46" y="79" type="line"/>
      <point x="91" y="79" type="line"/>
      <point x="167" y="621" type="line"/>
      <point x="122" y="621" type="line"/>
      <point x="133" y="700" type="line"/>
      <point x="361" y="700" type="line" smooth="yes"/>
      <point x="410" y="700"/>
      <point x="488" y="680"/>
      <point x="514.0" y="659.0" type="qcurve" smooth="yes" name="inserted"/>
      <point x="540" y="638"/>
      <point x="562" y="571"/>
      <point x="555" y="525" type="qcurve" smooth="yes"/>
      <point x="547" y="463"/>
      <point x="475" y="369"/>
      <point x="412" y="352" type="qcurve"/>
      <point x="440" y="346"/>
      <point x="488" y="318"/>
      <point x="504.5" y="296.0" type="qcurve" smooth="yes" name="inserted"/>
      <point x="521" y="274"/>
      <point x="537" y="216"/>
      <point x="532" y="180" type="qcurve" smooth="yes"/>
      <point x="526" y="135"/>
      <point x="478" y="68"/>
      <point x="443.5" y="45.5" type="qcurve" smooth="yes" name="inserted"/>
      <point x="409" y="23"/>
      <point x="324" y="0"/>
      <point x="281" y="0" type="qcurve" smooth="yes"/>
      <point x="35" y="0" type="line"/>
    </contour>
    <contour>
      <point x="206" y="313" type="line"/>
      <point x="174" y="79" type="line"/>
      <point x="285" y="79" type="line" smooth="yes"/>
      <point x="316" y="79"/>
      <point x="372" y="93"/>
      <point x="394.5" y="107.5" type="qcurve" smooth="yes" name="inserted"/>
      <point x="417" y="122"/>
      <point x="447" y="164"/>
      <point x="451" y="193" type="qcurve" smooth="yes"/>
      <point x="455" y="224"/>
      <point x="434" y="270"/>
      <point x="413.0" y="284.5" type="qcurve" smooth="yes" name="inserted"/>
      <point x="392" y="299"/>
      <point x="334" y="313"/>
      <point x="303" y="313" type="qcurve" smooth="yes"/>
    </contour>
    <contour>
      <point x="250" y="621" type="line"/>
      <point x="218" y="392" type="line"/>
      <point x="326" y="392" type="line" smooth="yes"/>
      <point x="359" y="392"/>
      <point x="412" y="413"/>
      <point x="431" y="432" type="qcurve" smooth="yes"/>
      <point x="446" y="447"/>
      <point x="466" y="488"/>
      <point x="470" y="512" type="qcurve" smooth="yes"/>
      <point x="474" y="539"/>
      <point x="464" y="578"/>
      <point x="451" y="591" type="qcurve" smooth="yes"/>
      <point x="437" y="607"/>
      <point x="388" y="621"/>
      <point x="356" y="621" type="qcurve" smooth="yes"/>
    </contour>
  </outline>
</glyph>
<glyph name="C" format="2">
  <advance width="610"/>
  <unicode hex="0043"/>
  <outline>
    <contour>
      <point x="573" y="546" type="line"/>
      <point x="582" y="607" type="line"/>
      <point x="558.5" y="618.0" name="inserted"/>
      <point x="508.0" y="629.0"/>
      <point x="481" y="629" type="qcurve" smooth="yes"/>
      <point x="424" y="629"/>
      <point x="318" y="585"/>
      <point x="275.5" y="546.5" type="qcurve" smooth="yes" name="inserted"/>
      <point x="233" y="508"/>
      <point x="176" y="406"/>
      <point x="168" y="349" type="qcurve" smooth="yes"/>
      <point x="160" y="292"/>
      <point x="189" y="190"/>
      <point x="221.0" y="152.5" type="qcurve" smooth="yes" name="inserted"/>
      <point x="253" y="115"/>
      <point x="346" y="71"/>
      <point x="403" y="71" type="qcurve" smooth="yes"/>
      <point x="439.5" y="71.0" name="inserted"/>
      <point x="510.5" y="89.5"/>
      <point x="545" y="108" type="qcurve"/>
      <point x="581" y="42" type="line"/>
      <point x="537" y="19"/>
      <point x="443" y="-8"/>
      <point x="392" y="-8" type="qcurve" smooth="yes"/>
      <point x="318" y="-8"/>
      <point x="196" y="48"/>
      <point x="154.0" y="96.5" type="qcurve" smooth="yes" name="inserted"/>
      <point x="112" y="145"/>
      <point x="74" y="275"/>
      <point x="85" y="349" type="qcurve" smooth="yes"/>
      <point x="95" y="423"/>
      <point x="170" y="554"/>
      <point x="225.0" y="602.5" type="qcurve" smooth="yes" name="inserted"/>
      <point x="280" y="651"/>
      <point x="418" y="708"/>
      <point x="492" y="708" type="qcurve" smooth="yes"/>
      <point x="543" y="708"/>
      <point x="631" y="682"/>
      <point x="668" y="658" type="qcurve"/>
      <point x="652" y="546" type="line"/>
    </contour>
  </outline>
</glyph>
<glyph name="E" format="2">
  <advance width="571"/>
  <unicode hex="0045"/>
  <outline>
    <contour>
      <point x="46" y="79" type="line"/>
      <point x="102" y="79" type="line"/>
      <point x="178" y="621" type="line"/>
      <point x="122" y="621" type="line"/>
      <point x="133" y="700" type="line"/>
      <point x="620" y="700" type="line"/>
      <point x="598" y="546" type="line"/>
      <point x="519" y="546" type="line"/>
      <point x="530" y="621" type="line"/>
      <point x="261" y="621" type="line"/>
      <point x="229" y="392" type="line"/>
      <point x="538" y="392" type="line"/>
      <point x="526" y="313" type="line"/>
      <point x="217" y="313" type="line"/>
      <point x="185" y="79" type="line"/>
      <point x="468" y="79" type="line"/>
      <point x="478" y="154" type="line"/>
      <point x="557" y="154" type="line"/>
      <point x="536" y="0" type="line"/>
      <point x="35" y="0" type="line"/>
    </contour>
  </outline>
</glyph>
<glyph name="F" format="2">
  <advance width="557"/>
  <unicode hex="0046"/>
  <outline>
    <contour>
      <point x="46" y="79" type="line"/>
      <point x="102" y="79" type="line"/>
      <point x="178" y="621" type="line"/>
      <point x="122" y="621" type="line"/>
      <point x="133" y="700" type="line"/>
      <point x="620" y="700" type="line"/>
      <point x="598" y="546" type="line"/>
      <point x="519" y="546" type="line"/>
      <point x="530" y="621" type="line"/>
      <point x="261" y="621" type="line"/>
      <point x="229" y="392" type="line"/>
      <point x="538" y="392" type="line"/>
      <point x="526" y="313" type="line"/>
      <point x="217" y="313" type="line"/>
      <point x="185" y="79" type="line"/>
      <point x="288" y="79" type="line"/>
      <point x="277" y="0" type="line"/>
      <point x="35" y="0" type="line"/>
    </contour>
  </outline>
</glyph>
<glyph name="G" format="1">
  <advance width="609"/>
  <unicode hex="0047"/>
  <outline>
    <contour>
      <point x="565" y="298" type="line"/>
      <point x="529" y="40" type="line"/>
      <point x="486" y="17"/>
      <point x="392" y="-10"/>
      <point x="341" y="-10" type="qcurve" smooth="yes"/>
      <point x="267" y="-10"/>
      <point x="145" y="46"/>
      <point x="103.0" y="94.5" type="qcurve" smooth="yes" name="inserted"/>
      <point x="61" y="143"/>
      <point x="23" y="273"/>
      <point x="33" y="347" type="qcurve" smooth="yes"/>
      <point x="43" y="421"/>
      <point x="118" y="552"/>
      <point x="173.5" y="600.5" type="qcurve" smooth="yes" name="inserted"/>
      <point x="229" y="649"/>
      <point x="367" y="706"/>
      <point x="441" y="706" type="qcurve" smooth="yes"/>
      <point x="492" y="706"/>
      <point x="579" y="680"/>
      <point x="617" y="656" type="qcurve"/>
      <point x="561" y="589" type="line"/>
      <point x="533" y="607"/>
      <point x="468" y="627"/>
      <point x="430" y="627" type="qcurve" smooth="yes"/>
      <point x="373" y="627"/>
      <point x="267" y="583"/>
      <point x="224.5" y="544.5" type="qcurve" smooth="yes" name="inserted"/>
      <point x="182" y="506"/>
      <point x="124" y="404"/>
      <point x="116" y="347" type="qcurve" smooth="yes"/>
      <point x="108" y="290"/>
      <point x="137" y="188"/>
      <point x="169.0" y="150.5" type="qcurve" smooth="yes" name="inserted"/>
      <point x="201" y="113"/>
      <point x="294" y="69"/>
      <point x="351" y="69" type="qcurve" smooth="yes"/>
      <point x="377.0" y="69.0" name="inserted"/>
      <point x="428.0" y="78.0"/>
      <point x="453" y="87" type="qcurve"/>
      <point x="471" y="219" type="line"/>
      <point x="368" y="219" type="line"/>
      <point x="379" y="298" type="line"/>
    </contour>
  </outline>
</glyph>
<glyph name="H" format="2">
  <advance width="772"/>
  <unicode hex="0048"/>
  <outline>
    <contour>
      <point x="593" y="700" type="line"/>
      <point x="835" y="700" type="line"/>
      <point x="824" y="621" type="line"/>
      <point x="745" y="621" type="line"/>
      <point x="669" y="79" type="line"/>
      <point x="748" y="79" type="line"/>
      <point x="737" y="0" type="line"/>
      <point x="495" y="0" type="line"/>
      <point x="506" y="79" type="line"/>
      <point x="586" y="79" type="line"/>
      <point x="618" y="313" type="line"/>
      <point x="240" y="313" type="line"/>
      <point x="208" y="79" type="line"/>
      <point x="288" y="79" type="line"/>
      <point x="277" y="0" type="line"/>
      <point x="35" y="0" type="line"/>
      <point x="46" y="79" type="line"/>
      <point x="125" y="79" type="line"/>
      <point x="201" y="621" type="line"/>
      <point x="122" y="621" type="line"/>
      <point x="133" y="700" type="line"/>
      <point x="375" y="700" type="line"/>
      <point x="364" y="621" type="line"/>
      <point x="284" y="621" type="line"/>
      <point x="252" y="392" type="line"/>
      <point x="630" y="392" type="line"/>
      <point x="662" y="621" type="line"/>
      <point x="582" y="621" type="line"/>
    </contour>
  </outline>
</glyph>
<glyph name="I" format="2">
  <advance width="312"/>
  <unicode hex="0049"/>
  <outline>
    <contour>
      <point x="46" y="79" type="line"/>
      <point x="125" y="79" type="line"/>
      <point x="201" y="621" type="line"/>
      <point x="122" y="621" type="line"/>
      <point x="133" y="700" type="line"/>
      <point x="375" y="700" type="line"/>
      <point x="364" y="621" type="line"/>
      <point x="284" y="621" type="line"/>
      <point x="208" y="79" type="line"/>
      <point x="288" y="79" type="line"/>
      <point x="277" y="0" type="line"/>
      <point x="35" y="0" type="line"/>
    </contour>
  </outline>
</glyph>
<glyph name="J" format="1">
  <advance width="311"/>
  <unicode hex="004A"/>
  <outline>
    <contour>
      <point x="93" y="700" type="line"/>
      <point x="334" y="700" type="line"/>
      <point x="248" y="90" type="line" smooth="yes"/>
      <point x="240" y="34"/>
      <point x="191" y="-52"/>
      <point x="155.0" y="-81.5" type="qcurve" smooth="yes" name="inserted"/>
      <point x="119" y="-111"/>
      <point x="27" y="-143"/>
      <point x="-24" y="-144" type="qcurve"/>
      <point x="-14" y="-65" type="line"/>
      <point x="20" y="-63"/>
      <point x="81" y="-41"/>
      <point x="105.0" y="-21.0" type="qcurve" smooth="yes" name="inserted"/>
      <point x="129" y="-1"/>
      <point x="160" y="56"/>
      <point x="165" y="93" type="qcurve" smooth="yes"/>
      <point x="240" y="621" type="line"/>
      <point x="82" y="621" type="line"/>
    </contour>
  </outline>
</glyph>
<glyph name="L" format="1">
  <advance width="571"/>
  <unicode hex="004C"/>
  <outline>
    <contour>
      <point x="46" y="79" type="line"/>
      <point x="102" y="79" type="line"/>
      <point x="178" y="621" type="line"/>
      <point x="122" y="621" type="line"/>
      <point x="133" y="700" type="line"/>
      <point x="355" y="700" type="line"/>
      <point x="344" y="621" type="line"/>
      <point x="261" y="621" type="line"/>
      <point x="185" y="79" type="line"/>
      <point x="468" y="79" type="line"/>
      <point x="478" y="154" type="line"/>
      <point x="557" y="154" type="line"/>
      <point x="536" y="0" type="line"/>
      <point x="35" y="0" type="line"/>
    </contour>
  </outline>
</glyph>
<glyph name="M" format="1">
  <advance width="976"/>
  <unicode hex="004D"/>
  <outline>
    <contour>
      <point x="927" y="700" type="qcurve"/>
      <point x="1039" y="700" type="line"/>
      <point x="1028" y="621" type="line"/>
      <point x="941" y="621" type="line"/>
      <point x="865" y="79" type="line"/>
      <point x="952" y="79" type="line"/>
      <point x="941" y="0" type="line"/>
      <point x="699" y="0" type="line"/>
      <point x="710" y="79" type="line"/>
      <point x="782" y="79" type="line"/>
      <point x="837" y="470" type="line"/>
      <point x="839" y="478"/>
      <point x="842" y="494"/>
      <point x="844" y="502" type="qcurve"/>
      <point x="835" y="491"/>
      <point x="816" y="467"/>
      <point x="806" y="456" type="qcurve" smooth="yes"/>
      <point x="734" y="371"/>
      <point x="580" y="208"/>
      <point x="505" y="125" type="qcurve"/>
      <point x="286" y="475" type="line"/>
      <point x="272" y="502" type="line"/>
      <point x="272" y="494"/>
      <point x="271" y="478"/>
      <point x="271" y="470" type="qcurve"/>
      <point x="216" y="79" type="line"/>
      <point x="288" y="79" type="line"/>
      <point x="277" y="0" type="line"/>
      <point x="35" y="0" type="line"/>
      <point x="46" y="79" type="line"/>
      <point x="133" y="79" type="line"/>
      <point x="209" y="621" type="line"/>
      <point x="122" y="621" type="line"/>
      <point x="133" y="700" type="line"/>
      <point x="245" y="700" type="line"/>
      <point x="315" y="589"/>
      <point x="453" y="368"/>
      <point x="524" y="257" type="qcurve"/>
      <point x="625" y="368"/>
      <point x="825" y="589"/>
    </contour>
  </outline>
</glyph>
<glyph name="N" format="1">
  <advance width="855"/>
  <unicode hex="004E"/>
  <outline>
    <contour>
      <point x="50" y="79" type="line"/>
      <point x="137" y="79" type="line"/>
      <point x="213" y="621" type="line"/>
      <point x="126" y="621" type="line"/>
      <point x="137" y="700" type="line"/>
      <point x="253" y="700" type="line"/>
      <point x="663" y="177" type="line"/>
      <point x="678" y="151" type="line"/>
      <point x="680" y="183" type="line"/>
      <point x="741" y="621" type="line"/>
      <point x="669" y="621" type="line"/>
      <point x="680" y="700" type="line"/>
      <point x="922" y="700" type="line"/>
      <point x="911" y="621" type="line"/>
      <point x="824" y="621" type="line"/>
      <point x="733" y="-32" type="line"/>
      <point x="297" y="512" type="line"/>
      <point x="282" y="538" type="line"/>
      <point x="280" y="506" type="line"/>
      <point x="220" y="79" type="line"/>
      <point x="292" y="79" type="line"/>
      <point x="281" y="0" type="line"/>
      <point x="39" y="0" type="line"/>
    </contour>
  </outline>
</glyph>
<glyph name="O" format="2">
  <advance width="786"/>
  <unicode hex="004F"/>
  <outline>
    <contour>
      <point x="85" y="349" type="qcurve" smooth="yes"/>
      <point x="95" y="422"/>
      <point x="169" y="553"/>
      <point x="224.5" y="602" type="qcurve" smooth="yes" name="inserted"/>
      <point x="280" y="651"/>
      <point x="418" y="708"/>
      <point x="492" y="708" type="qcurve" smooth="yes"/>
      <point x="565" y="708"/>
      <point x="688" y="651"/>
      <point x="730" y="602" type="qcurve" smooth="yes" name="inserted"/>
      <point x="772" y="553"/>
      <point x="811" y="422"/>
      <point x="801" y="349" type="qcurve" smooth="yes"/>
      <point x="790" y="275"/>
      <point x="715" y="145"/>
      <point x="659.5" y="96.5" type="qcurve" smooth="yes" name="inserted"/>
      <point x="604" y="48"/>
      <point x="465" y="-8"/>
      <point x="392" y="-8" type="qcurve" smooth="yes"/>
      <point x="318" y="-8"/>
      <point x="196" y="48"/>
      <point x="154" y="96.5" type="qcurve" smooth="yes" name="inserted"/>
      <point x="112" y="145"/>
      <point x="74" y="275"/>
    </contour>
    <contour>
      <point x="168" y="349" type="qcurve" smooth="yes"/>
      <point x="160" y="291"/>
      <point x="189" y="190"/>
      <point x="221" y="152.5" type="qcurve" smooth="yes" name="inserted"/>
      <point x="253" y="115"/>
      <point x="347" y="71"/>
      <point x="404" y="71" type="qcurve" smooth="yes"/>
      <point x="461" y="71"/>
      <point x="567" y="115"/>
      <point x="609.5" y="152.5" type="qcurve" smooth="yes" name="inserted"/>
      <point x="652" y="190"/>
      <point x="710" y="291"/>
      <point x="718" y="349" type="qcurve" smooth="yes"/>
      <point x="726" y="407"/>
      <point x="697" y="508"/>
      <point x="664.5" y="546" type="qcurve" smooth="yes" name="inserted"/>
      <point x="632" y="584"/>
      <point x="539" y="628"/>
      <point x="482" y="628" type="qcurve" smooth="yes"/>
      <point x="425" y="628"/>
      <point x="319" y="584"/>
      <point x="276" y="546" type="qcurve" smooth="yes" name="inserted"/>
      <point x="233" y="508"/>
      <point x="176" y="407"/>
    </contour>
  </outline>
</glyph>
<glyph name="P" format="2">
  <advance width="517"/>
  <unicode hex="0050"/>
  <outline>
    <contour>
      <point x="46" y="79" type="line"/>
      <point x="91" y="79" type="line"/>
      <point x="167" y="621" type="line"/>
      <point x="122" y="621" type="line"/>
      <point x="133" y="700" type="line"/>
      <point x="343" y="700" type="line" smooth="yes"/>
      <point x="377" y="700"/>
      <point x="457" y="679"/>
      <point x="489.5" y="656" type="qcurve" smooth="yes" name="inserted"/>
      <point x="522" y="633"/>
      <point x="560" y="561"/>
      <point x="553" y="510" type="qcurve" smooth="yes"/>
      <point x="540" y="419"/>
      <point x="417" y="312"/>
      <point x="315" y="312" type="qcurve" smooth="yes"/>
      <point x="206" y="312" type="line"/>
      <point x="174" y="79" type="line"/>
      <point x="288" y="79" type="line"/>
      <point x="277" y="0" type="line"/>
      <point x="35" y="0" type="line"/>
    </contour>
    <contour>
      <point x="218" y="392" type="line"/>
      <point x="305" y="392" type="line" smooth="yes"/>
      <point x="349" y="392"/>
      <point x="409" y="415"/>
      <point x="428.5" y="432" type="qcurve" smooth="yes" name="inserted"/>
      <point x="448" y="449"/>
      <point x="467" y="491"/>
      <point x="470" y="510" type="qcurve" smooth="yes"/>
      <point x="473" y="532"/>
      <point x="456" y="572"/>
      <point x="438.5" y="587.5" type="qcurve" smooth="yes" name="inserted"/>
      <point x="421" y="603"/>
      <point x="369" y="621"/>
      <point x="338" y="621" type="qcurve" smooth="yes"/>
      <point x="250" y="621" type="line"/>
    </contour>
  </outline>
</glyph>
<glyph name="Q" format="1">
  <advance width="808"/>
  <unicode hex="0051"/>
  <outline>
    <contour>
      <point x="168" y="349" type="qcurve" smooth="yes"/>
      <point x="160" y="292"/>
      <point x="189" y="190"/>
      <point x="221.0" y="152.5" type="qcurve" smooth="yes" name="inserted"/>
      <point x="253" y="115"/>
      <point x="346" y="71"/>
      <point x="403" y="71" type="qcurve" smooth="yes"/>
      <point x="460" y="71"/>
      <point x="566" y="115"/>
      <point x="609.0" y="152.5" type="qcurve" smooth="yes" name="inserted"/>
      <point x="652" y="190"/>
      <point x="710" y="292"/>
      <point x="718" y="349" type="qcurve" smooth="yes"/>
      <point x="726" y="406"/>
      <point x="696" y="508"/>
      <point x="664.0" y="546.5" type="qcurve" smooth="yes" name="inserted"/>
      <point x="632" y="585"/>
      <point x="538" y="629"/>
      <point x="481" y="629" type="qcurve" smooth="yes"/>
      <point x="424" y="629"/>
      <point x="318" y="585"/>
      <point x="275.5" y="546.5" type="qcurve" smooth="yes" name="inserted"/>
      <point x="233" y="508"/>
      <point x="176" y="406"/>
    </contour>
    <contour>
      <point x="85" y="349" type="qcurve" smooth="yes"/>
      <point x="95" y="423"/>
      <point x="170" y="554"/>
      <point x="225.0" y="602.5" type="qcurve" smooth="yes" name="inserted"/>
      <point x="280" y="651"/>
      <point x="418" y="708"/>
      <point x="492" y="708" type="qcurve" smooth="yes"/>
      <point x="566" y="708"/>
      <point x="689" y="651"/>
      <point x="731.0" y="602.5" type="qcurve" smooth="yes" name="inserted"/>
      <point x="773" y="554"/>
      <point x="811" y="423"/>
      <point x="801" y="349" type="qcurve" smooth="yes"/>
      <point x="789" y="268"/>
      <point x="702" y="128"/>
      <point x="638" y="79" type="qcurve"/>
      <point x="785" y="79" type="line"/>
      <point x="774" y="0" type="line"/>
      <point x="467" y="0" type="line"/>
      <point x="447.0" y="-4.0" name="inserted"/>
      <point x="409.5" y="-8.0"/>
      <point x="392" y="-8" type="qcurve" smooth="yes"/>
      <point x="318" y="-8"/>
      <point x="196" y="48"/>
      <point x="154.0" y="96.5" type="qcurve" smooth="yes" name="inserted"/>
      <point x="112" y="145"/>
      <point x="74" y="275"/>
    </contour>
  </outline>
</glyph>
<glyph name="U" format="1">
  <advance width="729"/>
  <unicode hex="0055"/>
  <outline>
    <contour>
      <point x="134" y="700" type="line"/>
      <point x="376" y="700" type="line"/>
      <point x="365" y="621" type="line"/>
      <point x="283" y="621" type="line"/>
      <point x="228" y="229" type="line" smooth="yes"/>
      <point x="222" y="190"/>
      <point x="239" y="130"/>
      <point x="259" y="110" type="qcurve" smooth="yes"/>
      <point x="279" y="91"/>
      <point x="338" y="71"/>
      <point x="375" y="71" type="qcurve" smooth="yes"/>
      <point x="412" y="71"/>
      <point x="477" y="92"/>
      <point x="503" y="112" type="qcurve" smooth="yes" name="inserted"/>
      <point x="528" y="132"/>
      <point x="561" y="191"/>
      <point x="567" y="229" type="qcurve" smooth="yes"/>
      <point x="622" y="621" type="line"/>
      <point x="540" y="621" type="line"/>
      <point x="551" y="700" type="line"/>
      <point x="793" y="700" type="line"/>
      <point x="782" y="621" type="line"/>
      <point x="705" y="621" type="line"/>
      <point x="649" y="226" type="line" smooth="yes"/>
      <point x="641" y="169"/>
      <point x="590" y="81"/>
      <point x="552" y="52" type="qcurve" smooth="yes" name="inserted"/>
      <point x="514" y="22"/>
      <point x="418" y="-8"/>
      <point x="364" y="-8" type="qcurve" smooth="yes"/>
      <point x="310" y="-8"/>
      <point x="222" y="22"/>
      <point x="192" y="52" type="qcurve" smooth="yes" name="inserted"/>
      <point x="162" y="81"/>
      <point x="136" y="169"/>
      <point x="144" y="226" type="qcurve" smooth="yes"/>
      <point x="200" y="621" type="line"/>
      <point x="123" y="621" type="line"/>
    </contour>
  </outline>
</glyph>
<glyph name="V" format="1">
  <advance width="810"/>
  <unicode hex="0056"/>
  <outline>
    <contour>
      <point x="137" y="700" type="line"/>
      <point x="379" y="700" type="line"/>
      <point x="368" y="621" type="line"/>
      <point x="296" y="621" type="line"/>
      <point x="328" y="512"/>
      <point x="388" y="294"/>
      <point x="420" y="185" type="qcurve"/>
      <point x="424" y="152" type="line"/>
      <point x="438" y="185" type="line"/>
      <point x="500" y="294"/>
      <point x="622" y="511"/>
      <point x="683" y="621" type="qcurve"/>
      <point x="624" y="621" type="line"/>
      <point x="635" y="700" type="line"/>
      <point x="877" y="700" type="line"/>
      <point x="866" y="621" type="line"/>
      <point x="767" y="621" type="line"/>
      <point x="675" y="456"/>
      <point x="491" y="133"/>
      <point x="399" y="-32" type="qcurve"/>
      <point x="352" y="133"/>
      <point x="260" y="456"/>
      <point x="213" y="621" type="qcurve"/>
      <point x="126" y="621" type="line"/>
    </contour>
  </outline>
</glyph>
<glyph name="W" format="2">
  <advance width="1178"/>
  <unicode hex="0057"/>
  <outline>
    <contour>
      <point x="137" y="700" type="line"/>
      <point x="379" y="700" type="line"/>
      <point x="368" y="621" type="line"/>
      <point x="296" y="621" type="line"/>
      <point x="328" y="512"/>
      <point x="388" y="294"/>
      <point x="420" y="185" type="qcurve"/>
      <point x="424" y="152" type="line"/>
      <point x="461" y="229"/>
      <point x="570.59454" y="419.27356"/>
      <point x="619" y="506" type="qcurve"/>
      <point x="611" y="535"/>
      <point x="594" y="592"/>
      <point x="586" y="621" type="qcurve"/>
      <point x="494" y="621" type="line"/>
      <point x="505" y="700" type="line"/>
      <point x="747" y="700" type="line"/>
      <point x="736" y="621" type="line"/>
      <point x="669" y="621" type="line"/>
      <point x="701" y="512"/>
      <point x="761" y="294"/>
      <point x="793" y="185" type="qcurve"/>
      <point x="797" y="152" type="line"/>
      <point x="811" y="185" type="line" smooth="yes"/>
      <point x="819" y="203"/>
      <point x="995" y="511"/>
      <point x="1056" y="621" type="qcurve"/>
      <point x="992" y="621" type="line"/>
      <point x="1003" y="700" type="line"/>
      <point x="1245" y="700" type="line"/>
      <point x="1234" y="621" type="line"/>
      <point x="1140" y="621" type="line"/>
      <point x="1048" y="456"/>
      <point x="864" y="133"/>
      <point x="772" y="-32" type="qcurve"/>
      <point x="653" y="385" type="line"/>
      <point x="648" y="420" type="line"/>
      <point x="604" y="318"/>
      <point x="459" y="76"/>
      <point x="399" y="-32" type="qcurve"/>
      <point x="352" y="133"/>
      <point x="260" y="456"/>
      <point x="213" y="621" type="qcurve"/>
      <point x="126" y="621" type="line"/>
    </contour>
  </outline>
</glyph>
<glyph name="X" format="1">
  <advance width="694"/>
  <unicode hex="0058"/>
  <outline>
    <contour>
      <point x="133" y="700" type="line"/>
      <point x="375" y="700" type="line"/>
      <point x="364" y="621" type="line"/>
      <point x="309" y="621" type="line"/>
      <point x="331" y="577"/>
      <point x="375" y="492"/>
      <point x="397" y="449" type="qcurve"/>
      <point x="406" y="422" type="line"/>
      <point x="423" y="449" type="line"/>
      <point x="559" y="621" type="line"/>
      <point x="504" y="621" type="line"/>
      <point x="515" y="700" type="line"/>
      <point x="757" y="700" type="line"/>
      <point x="746" y="621" type="line"/>
      <point x="660" y="621" type="line"/>
      <point x="606" y="553"/>
      <point x="501" y="418"/>
      <point x="447" y="351" type="qcurve"/>
      <point x="482" y="282"/>
      <point x="552" y="148"/>
      <point x="587" y="79" type="qcurve"/>
      <point x="670" y="79" type="line"/>
      <point x="659" y="0" type="line"/>
      <point x="417" y="0" type="line"/>
      <point x="428" y="79" type="line"/>
      <point x="483" y="79" type="line"/>
      <point x="392" y="258" type="line"/>
      <point x="389" y="265"/>
      <point x="384" y="279"/>
      <point x="382" y="286" type="qcurve"/>
      <point x="365" y="258" type="line"/>
      <point x="329" y="213"/>
      <point x="259" y="124"/>
      <point x="224" y="79" type="qcurve"/>
      <point x="288" y="79" type="line"/>
      <point x="277" y="0" type="line"/>
      <point x="35" y="0" type="line"/>
      <point x="46" y="79" type="line"/>
      <point x="121" y="79" type="line"/>
      <point x="342" y="357" type="line"/>
      <point x="207" y="621" type="line"/>
      <point x="122" y="621" type="line"/>
    </contour>
  </outline>
</glyph>
<glyph name="Y" format="1">
  <advance width="789"/>
  <unicode hex="0059"/>
  <outline>
    <contour>
      <point x="288" y="79" type="line"/>
      <point x="355" y="79" type="line"/>
      <point x="381" y="270" type="line"/>
      <point x="341" y="358"/>
      <point x="262" y="533"/>
      <point x="223" y="621" type="qcurve"/>
      <point x="122" y="621" type="line"/>
      <point x="133" y="700" type="line"/>
      <point x="375" y="700" type="line"/>
      <point x="364" y="621" type="line"/>
      <point x="324" y="621" type="line"/>
      <point x="352" y="560"/>
      <point x="407" y="438"/>
      <point x="435" y="377" type="qcurve"/>
      <point x="442" y="346" type="line"/>
      <point x="443" y="346" type="line"/>
      <point x="459" y="377" type="line"/>
      <point x="638" y="621" type="line"/>
      <point x="599" y="621" type="line"/>
      <point x="610" y="700" type="line"/>
      <point x="852" y="700" type="line"/>
      <point x="841" y="621" type="line"/>
      <point x="740" y="621" type="line"/>
      <point x="675" y="533"/>
      <point x="548" y="357"/>
      <point x="483" y="269" type="qcurve"/>
      <point x="457" y="79" type="line"/>
      <point x="530" y="79" type="line"/>
      <point x="519" y="0" type="line"/>
      <point x="277" y="0" type="line"/>
    </contour>
  </outline>
</glyph>
<glyph name="Z" format="1">
  <advance width="629"/>
  <unicode hex="005A"/>
  <outline>
    <contour>
      <point x="628" y="242" type="line"/>
      <point x="594" y="0" type="line"/>
      <point x="35" y="0" type="line"/>
      <point x="46" y="80" type="line"/>
      <point x="550" y="621" type="line"/>
      <point x="138" y="621" type="line"/>
      <point x="154" y="735" type="line"/>
      <point x="237" y="735" type="line"/>
      <point x="232" y="700" type="line"/>
      <point x="663" y="700" type="line"/>
      <point x="652" y="621" type="line"/>
      <point x="148" y="80" type="line"/>
      <point x="526" y="80" type="line"/>
      <point x="549" y="242" type="line"/>
    </contour>
  </outline>
</glyph>
<glyph name="bracketleft" format="1">
  <advance width="338"/>
  <unicode hex="005B"/>
  <outline>
    <contour>
      <point x="20" y="-149" type="line"/>
      <point x="145" y="746" type="line"/>
      <point x="337" y="746" type="line"/>
      <point x="326" y="665" type="line"/>
      <point x="217" y="665" type="line"/>
      <point x="114" y="-68" type="line"/>
      <point x="223" y="-68" type="line"/>
      <point x="212" y="-149" type="line"/>
    </contour>
  </outline>
</glyph>
<glyph name="underscore" format="1">
  <advance width="600"/>
  <unicode hex="005F"/>
  <outline>
    <contour>
      <point x="494" y="0" type="line"/>
      <point x="94" y="0" type="line"/>
      <point x="105" y="81" type="line"/>
      <point x="505" y="81" type="line"/>
    </contour>
  </outline>
</glyph>
<glyph name="grave" format="2">
  <advance width="200"/>
  <unicode hex="0060"/>
  <outline>
    <contour>
      <point x="51" y="612" type="line"/>
      <point x="65" y="579"/>
      <point x="89" y="512"/>
      <point x="103" y="479" type="qcurve"/>
      <point x="44" y="479" type="line"/>
      <point x="24" y="512"/>
      <point x="-11" y="579"/>
      <point x="-31" y="612" type="qcurve"/>
    </contour>
  </outline>
</glyph>
<glyph name="a" format="1">
  <advance width="547"/>
  <unicode hex="0061"/>
  <outline>
    <contour>
      <point x="62" y="187" type="qcurve" smooth="yes"/>
      <point x="68" y="226"/>
      <point x="109" y="298"/>
      <point x="140.0" y="325.0" type="qcurve" smooth="yes" name="inserted"/>
      <point x="171" y="352"/>
      <point x="249" y="384"/>
      <point x="291" y="384" type="qcurve" smooth="yes"/>
      <point x="318" y="384"/>
      <point x="361" y="368"/>
      <point x="377.0" y="358.5" type="qcurve" smooth="yes" name="inserted"/>
      <point x="393" y="349"/>
      <point x="410" y="331"/>
      <point x="410" y="328" type="qcurve"/>
      <point x="412" y="339"/>
      <point x="418" y="363"/>
      <point x="420" y="375" type="qcurve"/>
      <point x="489" y="375" type="line"/>
      <point x="448" y="79" type="line"/>
      <point x="524" y="79" type="line"/>
      <point x="513" y="0" type="line"/>
      <point x="364" y="0" type="line"/>
      <point x="367" y="20" type="line" smooth="yes"/>
      <point x="368" y="25"/>
      <point x="368" y="35"/>
      <point x="369" y="40" type="qcurve"/>
      <point x="367" y="37"/>
      <point x="347" y="21"/>
      <point x="330.0" y="12.5" type="qcurve" smooth="yes" name="inserted"/>
      <point x="313" y="4"/>
      <point x="265" y="-9"/>
      <point x="236" y="-9" type="qcurve" smooth="yes"/>
      <point x="194" y="-9"/>
      <point x="124" y="22"/>
      <point x="101.0" y="49.0" type="qcurve" smooth="yes" name="inserted"/>
      <point x="78" y="76"/>
      <point x="56" y="147"/>
    </contour>
    <contour>
      <point x="146" y="188" type="qcurve" smooth="yes"/>
      <point x="142" y="162"/>
      <point x="155" y="117"/>
      <point x="170" y="101" type="qcurve" smooth="yes"/>
      <point x="184" y="88"/>
      <point x="223" y="72"/>
      <point x="247" y="72" type="qcurve" smooth="yes"/>
      <point x="273" y="72"/>
      <point x="318" y="90"/>
      <point x="336" y="106" type="qcurve" smooth="yes" name="inserted"/>
      <point x="354" y="121"/>
      <point x="377" y="164"/>
      <point x="380" y="188" type="qcurve" smooth="yes"/>
      <point x="384" y="214"/>
      <point x="371" y="258"/>
      <point x="357" y="273" type="qcurve" smooth="yes"/>
      <point x="343" y="287"/>
      <point x="304" y="303"/>
      <point x="279" y="303" type="qcurve" smooth="yes"/>
      <point x="253" y="303"/>
      <point x="208" y="286"/>
      <point x="190" y="271" type="qcurve" smooth="yes" name="inserted"/>
      <point x="172" y="255"/>
      <point x="149" y="213"/>
    </contour>
  </outline>
</glyph>
<glyph name="b" format="1">
  <advance width="547"/>
  <unicode hex="0062"/>
  <outline>
    <contour>
      <point x="47" y="79" type="line"/>
      <point x="123" y="79" type="line"/>
      <point x="206" y="671" type="line"/>
      <point x="140" y="671" type="line"/>
      <point x="151" y="750" type="line"/>
      <point x="300" y="750" type="line"/>
      <point x="246" y="362" type="line"/>
      <point x="242" y="354"/>
      <point x="235" y="339"/>
      <point x="231" y="331" type="qcurve"/>
      <point x="233" y="334"/>
      <point x="257" y="352"/>
      <point x="275.0" y="361.0" type="qcurve" smooth="yes" name="inserted"/>
      <point x="293" y="370"/>
      <point x="340" y="384"/>
      <point x="366" y="384" type="qcurve" smooth="yes"/>
      <point x="408" y="384"/>
      <point x="477" y="353"/>
      <point x="500.5" y="326.0" type="qcurve" smooth="yes" name="inserted"/>
      <point x="524" y="299"/>
      <point x="545" y="228"/>
      <point x="539" y="188" type="qcurve" smooth="yes"/>
      <point x="533" y="148"/>
      <point x="492" y="76"/>
      <point x="461.5" y="49.0" type="qcurve" smooth="yes" name="inserted"/>
      <point x="431" y="22"/>
      <point x="353" y="-9"/>
      <point x="311" y="-9" type="qcurve" smooth="yes"/>
      <point x="282" y="-9"/>
      <point x="237" y="4"/>
      <point x="222.0" y="12.5" type="qcurve" smooth="yes" name="inserted"/>
      <point x="207" y="21"/>
      <point x="191" y="37"/>
      <point x="190" y="40" type="qcurve"/>
      <point x="189" y="35"/>
      <point x="189" y="25"/>
      <point x="188" y="20" type="qcurve" smooth="yes"/>
      <point x="185" y="0" type="line"/>
      <point x="36" y="0" type="line"/>
    </contour>
    <contour>
      <point x="455" y="188" type="qcurve" smooth="yes"/>
      <point x="462" y="238"/>
      <point x="406" y="303"/>
      <point x="354" y="303" type="qcurve" smooth="yes"/>
      <point x="328" y="303"/>
      <point x="283" y="286"/>
      <point x="265.0" y="270.5" type="qcurve" smooth="yes" name="inserted"/>
      <point x="247" y="255"/>
      <point x="224" y="213"/>
      <point x="221" y="188" type="qcurve" smooth="yes"/>
      <point x="214" y="139"/>
      <point x="270" y="72"/>
      <point x="322" y="72" type="qcurve" smooth="yes"/>
      <point x="348" y="72"/>
      <point x="393" y="90"/>
      <point x="411.0" y="105.5" type="qcurve" smooth="yes" name="inserted"/>
      <point x="429" y="121"/>
      <point x="452" y="164"/>
    </contour>
  </outline>
</glyph>
<glyph name="c" format="1">
  <advance width="397"/>
  <unicode hex="0063"/>
  <outline>
    <contour>
      <point x="366" y="34" type="line"/>
      <point x="337" y="14"/>
      <point x="271" y="-9"/>
      <point x="235" y="-9" type="qcurve" smooth="yes"/>
      <point x="193" y="-9"/>
      <point x="125" y="22"/>
      <point x="101.5" y="49.0" type="qcurve" smooth="yes" name="inserted"/>
      <point x="78" y="76"/>
      <point x="56" y="147"/>
      <point x="62" y="188" type="qcurve" smooth="yes"/>
      <point x="68" y="228"/>
      <point x="109" y="300"/>
      <point x="140.0" y="326.5" type="qcurve" smooth="yes" name="inserted"/>
      <point x="171" y="353"/>
      <point x="248" y="384"/>
      <point x="290" y="384" type="qcurve" smooth="yes"/>
      <point x="327" y="384"/>
      <point x="388" y="361"/>
      <point x="411" y="341" type="qcurve"/>
      <point x="394" y="225" type="line"/>
      <point x="320" y="225" type="line"/>
      <point x="330" y="292" type="line"/>
      <point x="318.0" y="297.5" name="inserted"/>
      <point x="292.0" y="303.0"/>
      <point x="278" y="303" type="qcurve" smooth="yes"/>
      <point x="252" y="303"/>
      <point x="207" y="286"/>
      <point x="189.0" y="270.5" type="qcurve" smooth="yes" name="inserted"/>
      <point x="171" y="255"/>
      <point x="148" y="213"/>
      <point x="145" y="188" type="qcurve" smooth="yes"/>
      <point x="138" y="139"/>
      <point x="194" y="72"/>
      <point x="246" y="72" type="qcurve" smooth="yes"/>
      <point x="268.0" y="72.0" name="inserted"/>
      <point x="307.0" y="84.5"/>
      <point x="324" y="97" type="qcurve"/>
    </contour>
  </outline>
</glyph>
<glyph name="d" format="2">
  <advance width="547"/>
  <unicode hex="0064"/>
  <outline>
    <contour>
      <point x="367" y="20" type="line" smooth="yes"/>
      <point x="368" y="27"/>
      <point x="369" y="35"/>
      <point x="370" y="40" type="qcurve"/>
      <point x="355" y="23"/>
      <point x="293.325950283432" y="-9.0"/>
      <point x="236" y="-9" type="qcurve" smooth="yes"/>
      <point x="194" y="-9"/>
      <point x="124" y="22"/>
      <point x="101.0" y="49.0" type="qcurve" smooth="yes" name="inserted"/>
      <point x="78" y="76"/>
      <point x="56" y="148"/>
      <point x="62" y="188" type="qcurve" smooth="yes"/>
      <point x="68" y="228"/>
      <point x="109" y="299"/>
      <point x="140.0" y="326.0" type="qcurve" smooth="yes" name="inserted"/>
      <point x="171" y="353"/>
      <point x="249" y="384"/>
      <point x="291" y="384" type="qcurve" smooth="yes"/>
      <point x="331" y="384"/>
      <point x="396" y="351.0"/>
      <point x="404" y="337" type="qcurve"/>
      <point x="403" y="345"/>
      <point x="406" y="369"/>
      <point x="407" y="377" type="qcurve" smooth="yes"/>
      <point x="448" y="671" type="line"/>
      <point x="382" y="671" type="line"/>
      <point x="393" y="750" type="line"/>
      <point x="542" y="750" type="line"/>
      <point x="448" y="79" type="line"/>
      <point x="524" y="79" type="line"/>
      <point x="513" y="0" type="line"/>
      <point x="365" y="0" type="line"/>
    </contour>
    <contour>
      <point x="146" y="188" type="qcurve" smooth="yes"/>
      <point x="142" y="161"/>
      <point x="156" y="115"/>
      <point x="172" y="99" type="qcurve" smooth="yes"/>
      <point x="186" y="87"/>
      <point x="224" y="72"/>
      <point x="247" y="72" type="qcurve" smooth="yes"/>
      <point x="273" y="72"/>
      <point x="318" y="90"/>
      <point x="336" y="106" type="qcurve" smooth="yes" name="inserted"/>
      <point x="354" y="121"/>
      <point x="377" y="164"/>
      <point x="380" y="188" type="qcurve" smooth="yes"/>
      <point x="383" y="212"/>
      <point x="374" y="252"/>
      <point x="362" y="267" type="qcurve" smooth="yes"/>
      <point x="349" y="284"/>
      <point x="306" y="303"/>
      <point x="279" y="303" type="qcurve" smooth="yes"/>
      <point x="253" y="303"/>
      <point x="208" y="286"/>
      <point x="190" y="270" type="qcurve" smooth="yes" name="inserted"/>
      <point x="172" y="255"/>
      <point x="149" y="213"/>
    </contour>
  </outline>
</glyph>
<glyph name="e" format="1">
  <advance width="450"/>
  <unicode hex="0065"/>
  <outline>
    <contour>
      <point x="278" y="303" type="qcurve" smooth="yes"/>
      <point x="227" y="303"/>
      <point x="155" y="242"/>
      <point x="146" y="196" type="qcurve"/>
      <point x="196" y="213"/>
      <point x="294" y="248"/>
      <point x="343" y="265" type="qcurve"/>
      <point x="332" y="282"/>
      <point x="299" y="303"/>
    </contour>
    <contour>
      <point x="442" y="218" type="qcurve"/>
      <point x="371" y="193"/>
      <point x="229" y="143"/>
      <point x="157" y="118" type="qcurve"/>
      <point x="169" y="97"/>
      <point x="215" y="72"/>
      <point x="246" y="72" type="qcurve" smooth="yes"/>
      <point x="269" y="72"/>
      <point x="310" y="89"/>
      <point x="326" y="104" type="qcurve"/>
      <point x="337" y="89"/>
      <point x="358" y="59"/>
      <point x="369" y="44" type="qcurve"/>
      <point x="340" y="19"/>
      <point x="273" y="-9"/>
      <point x="235" y="-9" type="qcurve" smooth="yes"/>
      <point x="193" y="-9"/>
      <point x="125" y="22"/>
      <point x="101.5" y="49.0" type="qcurve" smooth="yes" name="inserted"/>
      <point x="78" y="76"/>
      <point x="56" y="147"/>
      <point x="62" y="188" type="qcurve" smooth="yes"/>
      <point x="68" y="228"/>
      <point x="109" y="300"/>
      <point x="140.0" y="326.5" type="qcurve" smooth="yes" name="inserted"/>
      <point x="171" y="353"/>
      <point x="248" y="384"/>
      <point x="290" y="384" type="qcurve" smooth="yes"/>
      <point x="321" y="384"/>
      <point x="374" y="359"/>
      <point x="393.5" y="337.0" type="qcurve" smooth="yes" name="inserted"/>
      <point x="413" y="315"/>
      <point x="438" y="254"/>
    </contour>
  </outline>
</glyph>
<glyph name="f" format="2">
  <advance width="336"/>
  <unicode hex="0066"/>
  <outline>
    <contour>
      <point x="46" y="79" type="line"/>
      <point x="107" y="79" type="line"/>
      <point x="137" y="294" type="line"/>
      <point x="76" y="294" type="line"/>
      <point x="87" y="375" type="line"/>
      <point x="147" y="375" type="line"/>
      <point x="167" y="517" type="line" smooth="yes"/>
      <point x="175" y="573"/>
      <point x="224" y="659"/>
      <point x="260" y="688" type="qcurve" smooth="yes" name="inserted"/>
      <point x="297" y="718"/>
      <point x="389" y="749"/>
      <point x="441" y="751" type="qcurve"/>
      <point x="430" y="672" type="line"/>
      <point x="397" y="670"/>
      <point x="339" y="650"/>
      <point x="316" y="633" type="qcurve" smooth="yes"/>
      <point x="290" y="613"/>
      <point x="256" y="553"/>
      <point x="250" y="514" type="qcurve" smooth="yes"/>
      <point x="230" y="375" type="line"/>
      <point x="348" y="375" type="line"/>
      <point x="337" y="294" type="line"/>
      <point x="219" y="294" type="line"/>
      <point x="189" y="79" type="line"/>
      <point x="268" y="79" type="line"/>
      <point x="257" y="0" type="line"/>
      <point x="35" y="0" type="line"/>
    </contour>
  </outline>
</glyph>
<glyph name="g" format="2">
  <advance width="547"/>
  <unicode hex="0067"/>
  <outline>
    <contour>
      <point x="454" y="375" type="qcurve"/>
      <point x="599" y="375" type="line"/>
      <point x="588" y="296" type="line"/>
      <point x="512" y="296" type="line"/>
      <point x="462" y="-60" type="line" smooth="yes"/>
      <point x="456" y="-100"/>
      <point x="418" y="-172"/>
      <point x="388" y="-197" type="qcurve" smooth="yes" name="inserted"/>
      <point x="357" y="-223"/>
      <point x="286" y="-250"/>
      <point x="244" y="-250" type="qcurve" smooth="yes"/>
      <point x="199" y="-250"/>
      <point x="113" y="-218"/>
      <point x="86" y="-190" type="qcurve"/>
      <point x="150" y="-122" type="line"/>
      <point x="169" y="-142"/>
      <point x="218" y="-164"/>
      <point x="247" y="-164" type="qcurve" smooth="yes"/>
      <point x="273" y="-164"/>
      <point x="321" y="-149"/>
      <point x="339" y="-133" type="qcurve" smooth="yes" name="inserted"/>
      <point x="356" y="-118"/>
      <point x="378" y="-72"/>
      <point x="381" y="-47" type="qcurve" smooth="yes"/>
      <point x="389" y="11" type="line" smooth="yes"/>
      <point x="390" y="16"/>
      <point x="391" y="25"/>
      <point x="393" y="31" type="qcurve"/>
      <point x="380" y="17"/>
      <point x="323" y="-8"/>
      <point x="270" y="-8" type="qcurve" smooth="yes"/>
      <point x="228" y="-8"/>
      <point x="158" y="23"/>
      <point x="135" y="50" type="qcurve" smooth="yes" name="inserted"/>
      <point x="112" y="76"/>
      <point x="90" y="147"/>
      <point x="96" y="187" type="qcurve" smooth="yes"/>
      <point x="102" y="226"/>
      <point x="143" y="298"/>
      <point x="174" y="325" type="qcurve" smooth="yes" name="inserted"/>
      <point x="205" y="352"/>
      <point x="283" y="384"/>
      <point x="325" y="384" type="qcurve" smooth="yes"/>
      <point x="353" y="384"/>
      <point x="394" y="373"/>
      <point x="408" y="365" type="qcurve" smooth="yes"/>
      <point x="421" y="357"/>
      <point x="439" y="337"/>
      <point x="444" y="328" type="qcurve"/>
      <point x="446" y="339"/>
      <point x="452" y="363"/>
    </contour>
    <contour>
      <point x="180" y="188" type="qcurve" smooth="yes"/>
      <point x="176" y="160"/>
      <point x="191" y="114"/>
      <point x="208" y="98" type="qcurve" smooth="yes"/>
      <point x="221" y="86"/>
      <point x="258" y="72"/>
      <point x="281" y="72" type="qcurve" smooth="yes"/>
      <point x="307" y="72"/>
      <point x="352" y="90"/>
      <point x="370" y="106" type="qcurve" smooth="yes" name="inserted"/>
      <point x="388" y="121"/>
      <point x="411" y="164"/>
      <point x="414" y="188" type="qcurve" smooth="yes"/>
      <point x="418" y="213"/>
      <point x="406" y="256"/>
      <point x="393" y="271" type="qcurve" smooth="yes"/>
      <point x="379" y="286"/>
      <point x="339" y="303"/>
      <point x="313" y="303" type="qcurve" smooth="yes"/>
      <point x="287" y="303"/>
      <point x="242" y="286"/>
      <point x="224" y="270" type="qcurve" smooth="yes" name="inserted"/>
      <point x="206" y="255"/>
      <point x="183" y="213"/>
    </contour>
  </outline>
</glyph>
<glyph name="i" format="2">
  <advance width="292"/>
  <unicode hex="0069"/>
  <outline>
    <contour>
      <point x="46" y="79" type="line"/>
      <point x="116" y="79" type="line"/>
      <point x="146" y="296" type="line"/>
      <point x="76" y="296" type="line"/>
      <point x="87" y="375" type="line"/>
      <point x="240" y="375" type="line"/>
      <point x="199" y="79" type="line"/>
      <point x="268" y="79" type="line"/>
      <point x="257" y="0" type="line"/>
      <point x="35" y="0" type="line"/>
    </contour>
    <contour>
      <point x="169" y="520" type="qcurve" smooth="yes"/>
      <point x="172" y="543"/>
      <point x="208" y="573"/>
      <point x="228" y="573" type="qcurve" smooth="yes"/>
      <point x="247" y="573"/>
      <point x="275" y="543"/>
      <point x="272" y="520" type="qcurve" smooth="yes"/>
      <point x="268" y="497"/>
      <point x="232" y="468"/>
      <point x="213" y="468" type="qcurve" smooth="yes"/>
      <point x="193" y="468"/>
      <point x="165" y="497"/>
    </contour>
  </outline>
</glyph>
<glyph name="j" format="2">
  <advance width="212"/>
  <unicode hex="006A"/>
  <outline>
    <contour>
      <point x="59" y="375" type="line"/>
      <point x="201" y="375" type="line"/>
      <point x="148" y="0" type="line" smooth="yes"/>
      <point x="140" y="-61"/>
      <point x="85" y="-152"/>
      <point x="44" y="-181" type="qcurve"/>
      <point x="-5" y="-119" type="line"/>
      <point x="23" y="-99"/>
      <point x="60" y="-39"/>
      <point x="65" y="3" type="qcurve" smooth="yes"/>
      <point x="107" y="296" type="line"/>
      <point x="48" y="296" type="line"/>
    </contour>
    <contour>
      <point x="131" y="520" type="qcurve" smooth="yes"/>
      <point x="134" y="543"/>
      <point x="170" y="573"/>
      <point x="190" y="573" type="qcurve" smooth="yes"/>
      <point x="209" y="573"/>
      <point x="237" y="543"/>
      <point x="234" y="520" type="qcurve" smooth="yes"/>
      <point x="231" y="497"/>
      <point x="195" y="468"/>
      <point x="176" y="468" type="qcurve" smooth="yes"/>
      <point x="156" y="468"/>
      <point x="128" y="497"/>
    </contour>
  </outline>
</glyph>
<glyph name="k" format="2">
  <advance width="527"/>
  <unicode hex="006B"/>
  <outline>
    <contour>
      <point x="302" y="79" type="line"/>
      <point x="313" y="79" type="line"/>
      <point x="300" y="99" name="inserted"/>
      <point x="276" y="139.5"/>
      <point x="265" y="160" type="qcurve"/>
      <point x="210" y="114" type="line"/>
      <point x="205" y="79" type="line"/>
      <point x="268" y="79" type="line"/>
      <point x="257" y="0" type="line"/>
      <point x="35" y="0" type="line"/>
      <point x="46" y="79" type="line"/>
      <point x="122" y="79" type="line"/>
      <point x="205" y="671" type="line"/>
      <point x="139" y="671" type="line"/>
      <point x="150" y="750" type="line"/>
      <point x="299" y="750" type="line"/>
      <point x="223" y="211" type="line"/>
      <point x="326" y="296" type="line"/>
      <point x="289" y="296" type="line"/>
      <point x="300" y="375" type="line"/>
      <point x="501" y="375" type="line"/>
      <point x="490" y="296" type="line"/>
      <point x="428" y="296" type="line"/>
      <point x="403" y="276"/>
      <point x="355" y="234"/>
      <point x="331" y="214" type="qcurve"/>
      <point x="350" y="180"/>
      <point x="390" y="113"/>
      <point x="410" y="79" type="qcurve"/>
      <point x="503" y="79" type="line"/>
      <point x="492" y="0" type="line"/>
      <point x="291" y="0" type="line"/>
    </contour>
  </outline>
</glyph>
<glyph name="l" format="1">
  <advance width="292"/>
  <unicode hex="006C"/>
  <outline>
    <contour>
      <point x="46" y="79" type="line"/>
      <point x="122" y="79" type="line"/>
      <point x="205" y="671" type="line"/>
      <point x="139" y="671" type="line"/>
      <point x="150" y="750" type="line"/>
      <point x="299" y="750" type="line"/>
      <point x="205" y="79" type="line"/>
      <point x="268" y="79" type="line"/>
      <point x="257" y="0" type="line"/>
      <point x="35" y="0" type="line"/>
    </contour>
  </outline>
</glyph>
<glyph name="m" format="2">
  <advance width="870"/>
  <unicode hex="006D"/>
  <outline>
    <contour>
      <point x="624" y="79" type="line"/>
      <point x="700" y="79" type="line"/>
      <point x="721" y="234" type="line"/>
      <point x="723" y="261"/>
      <point x="694" y="300"/>
      <point x="656" y="302" type="qcurve"/>
      <point x="630" y="302"/>
      <point x="580" y="284"/>
      <point x="560.0" y="268.0" type="qcurve" smooth="yes" name="inserted"/>
      <point x="540" y="252"/>
      <point x="512" y="208"/>
      <point x="508" y="182" type="qcurve" smooth="yes"/>
      <point x="494" y="79" type="line"/>
      <point x="557" y="79" type="line"/>
      <point x="546" y="0" type="line"/>
      <point x="324" y="0" type="line"/>
      <point x="335" y="79" type="line"/>
      <point x="411" y="79" type="line"/>
      <point x="432" y="234" type="line"/>
      <point x="434" y="261"/>
      <point x="405" y="300"/>
      <point x="367" y="302" type="qcurve"/>
      <point x="341" y="302"/>
      <point x="291" y="284"/>
      <point x="271.0" y="268.0" type="qcurve" smooth="yes" name="inserted"/>
      <point x="251" y="252"/>
      <point x="223" y="208"/>
      <point x="219" y="182" type="qcurve" smooth="yes"/>
      <point x="205" y="79" type="line"/>
      <point x="268" y="79" type="line"/>
      <point x="257" y="0" type="line"/>
      <point x="35" y="0" type="line"/>
      <point x="46" y="79" type="line"/>
      <point x="122" y="79" type="line"/>
      <point x="152" y="296" type="line"/>
      <point x="86" y="296" type="line"/>
      <point x="97" y="375" type="line"/>
      <point x="236" y="375" type="line"/>
      <point x="235" y="366" type="line" smooth="yes"/>
      <point x="233" y="342"/>
      <point x="232" y="303"/>
      <point x="230" y="279" type="qcurve"/>
      <point x="258" y="327"/>
      <point x="350" y="382"/>
      <point x="407" y="384" type="qcurve" smooth="yes"/>
      <point x="462" y="384"/>
      <point x="522" y="329"/>
      <point x="521" y="284" type="qcurve"/>
      <point x="550" y="330"/>
      <point x="641" y="382"/>
      <point x="696" y="384" type="qcurve" smooth="yes"/>
      <point x="755" y="384"/>
      <point x="815" y="322"/>
      <point x="810" y="272" type="qcurve" smooth="yes"/>
      <point x="783" y="79" type="line"/>
      <point x="846" y="79" type="line"/>
      <point x="835" y="0" type="line"/>
      <point x="613" y="0" type="line"/>
    </contour>
  </outline>
</glyph>
<glyph name="n" format="2">
  <advance width="580"/>
  <unicode hex="006E"/>
  <outline>
    <contour>
      <point x="334" y="79" type="line"/>
      <point x="411" y="79" type="line"/>
      <point x="432" y="234" type="line"/>
      <point x="434" y="261"/>
      <point x="405" y="300"/>
      <point x="367" y="302" type="qcurve"/>
      <point x="341" y="302"/>
      <point x="291" y="284"/>
      <point x="271.0" y="268.0" type="qcurve" smooth="yes" name="inserted"/>
      <point x="251" y="252"/>
      <point x="223" y="208"/>
      <point x="219" y="182" type="qcurve" smooth="yes"/>
      <point x="205" y="79" type="line"/>
      <point x="268" y="79" type="line"/>
      <point x="257" y="0" type="line"/>
      <point x="35" y="0" type="line"/>
      <point x="46" y="79" type="line"/>
      <point x="122" y="79" type="line"/>
      <point x="152" y="296" type="line"/>
      <point x="86" y="296" type="line"/>
      <point x="97" y="375" type="line"/>
      <point x="236" y="375" type="line"/>
      <point x="235" y="366" type="line" smooth="yes"/>
      <point x="233" y="342"/>
      <point x="232" y="303"/>
      <point x="230" y="279" type="qcurve"/>
      <point x="257" y="327"/>
      <point x="353" y="384"/>
      <point x="407" y="384" type="qcurve" smooth="yes"/>
      <point x="466" y="384"/>
      <point x="526" y="322"/>
      <point x="521" y="272" type="qcurve" smooth="yes"/>
      <point x="494" y="79" type="line"/>
      <point x="556" y="79" type="line"/>
      <point x="545" y="0" type="line"/>
      <point x="323" y="0" type="line"/>
    </contour>
  </outline>
</glyph>
<glyph name="p" format="1">
  <advance width="548"/>
  <unicode hex="0070"/>
  <outline>
    <contour>
      <point x="8" y="-171" type="line"/>
      <point x="75" y="-171" type="line"/>
      <point x="141" y="296" type="line"/>
      <point x="65" y="296" type="line"/>
      <point x="78" y="375" type="line"/>
      <point x="221" y="375" type="line"/>
      <point x="219.5" y="363.5" name="inserted"/>
      <point x="218.0" y="340.0"/>
      <point x="218" y="328" type="qcurve"/>
      <point x="219" y="331"/>
      <point x="243" y="350"/>
      <point x="261.5" y="359.5" type="qcurve" smooth="yes" name="inserted"/>
      <point x="280" y="369"/>
      <point x="327" y="384"/>
      <point x="353" y="384" type="qcurve" smooth="yes"/>
      <point x="395" y="384"/>
      <point x="464" y="353"/>
      <point x="487.5" y="326.0" type="qcurve" smooth="yes" name="inserted"/>
      <point x="511" y="299"/>
      <point x="532" y="228"/>
      <point x="527" y="188" type="qcurve" smooth="yes"/>
      <point x="521" y="148"/>
      <point x="480" y="76"/>
      <point x="449.0" y="49.0" type="qcurve" smooth="yes" name="inserted"/>
      <point x="418" y="22"/>
      <point x="340" y="-9"/>
      <point x="298" y="-9" type="qcurve" smooth="yes"/>
      <point x="270" y="-9"/>
      <point x="227" y="3"/>
      <point x="212.0" y="11.0" type="qcurve" smooth="yes" name="inserted"/>
      <point x="197" y="19"/>
      <point x="180" y="34"/>
      <point x="178" y="38" type="qcurve"/>
      <point x="180" y="33"/>
      <point x="183" y="24"/>
      <point x="185" y="19" type="qcurve"/>
      <point x="158" y="-171" type="line"/>
      <point x="230" y="-171" type="line"/>
      <point x="220" y="-250" type="line"/>
      <point x="-1" y="-250" type="line"/>
    </contour>
    <contour>
      <point x="443" y="188" type="qcurve" smooth="yes"/>
      <point x="450" y="238"/>
      <point x="394" y="303"/>
      <point x="342" y="303" type="qcurve" smooth="yes"/>
      <point x="316" y="303"/>
      <point x="271" y="286"/>
      <point x="253.0" y="270.5" type="qcurve" smooth="yes" name="inserted"/>
      <point x="235" y="255"/>
      <point x="212" y="213"/>
      <point x="209" y="188" type="qcurve" smooth="yes"/>
      <point x="205" y="164"/>
      <point x="216" y="121"/>
      <point x="229.5" y="105.5" type="qcurve" smooth="yes" name="inserted"/>
      <point x="243" y="90"/>
      <point x="283" y="72"/>
      <point x="309" y="72" type="qcurve" smooth="yes"/>
      <point x="335" y="72"/>
      <point x="380" y="90"/>
      <point x="398.0" y="105.5" type="qcurve" smooth="yes" name="inserted"/>
      <point x="416" y="121"/>
      <point x="439" y="164"/>
    </contour>
  </outline>
</glyph>
<glyph name="q" format="2">
  <advance width="551"/>
  <unicode hex="0071"/>
  <outline>
    <contour>
      <point x="288" y="-171" type="line"/>
      <point x="364" y="-171" type="line"/>
      <point x="387" y="-4" type="line" smooth="yes"/>
      <point x="388" y="1"/>
      <point x="392" y="25"/>
      <point x="394" y="32" type="qcurve"/>
      <point x="381" y="17"/>
      <point x="318" y="-9"/>
      <point x="269" y="-9" type="qcurve" smooth="yes"/>
      <point x="227" y="-9"/>
      <point x="158" y="22"/>
      <point x="134.5" y="49" type="qcurve" smooth="yes" name="inserted"/>
      <point x="111" y="76"/>
      <point x="90" y="148"/>
      <point x="96" y="188" type="qcurve" smooth="yes"/>
      <point x="102" y="228"/>
      <point x="143" y="299"/>
      <point x="174" y="326" type="qcurve" smooth="yes" name="inserted"/>
      <point x="205" y="353"/>
      <point x="283" y="384"/>
      <point x="325" y="384" type="qcurve" smooth="yes"/>
      <point x="376.5329" y="384"/>
      <point x="434" y="346"/>
      <point x="444" y="328" type="qcurve"/>
      <point x="446" y="339"/>
      <point x="452" y="363"/>
      <point x="454" y="375" type="qcurve"/>
      <point x="603" y="375" type="line"/>
      <point x="592" y="296" type="line"/>
      <point x="512" y="296" type="line"/>
      <point x="447" y="-171" type="line"/>
      <point x="510" y="-171" type="line"/>
      <point x="499" y="-250" type="line"/>
      <point x="277" y="-250" type="line"/>
    </contour>
    <contour>
      <point x="180" y="188" type="qcurve" smooth="yes"/>
      <point x="176" y="160"/>
      <point x="191" y="113"/>
      <point x="209" y="97" type="qcurve" smooth="yes"/>
      <point x="222" y="85"/>
      <point x="259" y="72"/>
      <point x="281" y="72" type="qcurve" smooth="yes"/>
      <point x="307" y="72"/>
      <point x="352" y="90"/>
      <point x="370" y="106" type="qcurve" smooth="yes" name="inserted"/>
      <point x="388" y="121"/>
      <point x="411" y="164"/>
      <point x="414" y="188" type="qcurve" smooth="yes"/>
      <point x="418" y="214"/>
      <point x="405" y="259"/>
      <point x="390" y="274" type="qcurve" smooth="yes"/>
      <point x="377" y="288"/>
      <point x="338" y="303"/>
      <point x="313" y="303" type="qcurve" smooth="yes"/>
      <point x="287" y="303"/>
      <point x="242" y="286"/>
      <point x="224" y="270" type="qcurve" smooth="yes" name="inserted"/>
      <point x="206" y="255"/>
      <point x="183" y="213"/>
    </contour>
  </outline>
</glyph>
<glyph name="r" format="2">
  <advance width="370"/>
  <unicode hex="0072"/>
  <outline>
    <contour>
      <point x="46" y="79" type="line"/>
      <point x="122" y="79" type="line"/>
      <point x="152" y="296" type="line"/>
      <point x="86" y="296" type="line"/>
      <point x="97" y="375" type="line"/>
      <point x="236" y="375" type="line"/>
      <point x="235" y="366" type="line" smooth="yes"/>
      <point x="233" y="342"/>
      <point x="232" y="303"/>
      <point x="230" y="279" type="qcurve"/>
      <point x="245" y="304"/>
      <point x="288" y="343"/>
      <point x="310" y="356.5" type="qcurve" smooth="yes" name="inserted"/>
      <point x="332" y="370"/>
      <point x="373" y="384"/>
      <point x="388" y="384" type="qcurve"/>
      <point x="371" y="302" type="line"/>
      <point x="341" y="302"/>
      <point x="288" y="284"/>
      <point x="268" y="268" type="qcurve" smooth="yes" name="inserted"/>
      <point x="248" y="252"/>
      <point x="223" y="208"/>
      <point x="219" y="182" type="qcurve" smooth="yes"/>
      <point x="205" y="79" type="line"/>
      <point x="268" y="79" type="line"/>
      <point x="257" y="0" type="line"/>
      <point x="35" y="0" type="line"/>
    </contour>
  </outline>
</glyph>
<glyph name="s" format="2">
  <advance width="332"/>
  <unicode hex="0073"/>
  <outline>
    <contour>
      <point x="138" y="120" type="line"/>
      <point x="133" y="81" type="line"/>
      <point x="144" y="76"/>
      <point x="167" y="73"/>
      <point x="184" y="73" type="qcurve" smooth="yes"/>
      <point x="191" y="73"/>
      <point x="207" y="77"/>
      <point x="215" y="82" type="qcurve" smooth="yes"/>
      <point x="224" y="87"/>
      <point x="232" y="99"/>
      <point x="233" y="109" type="qcurve" smooth="yes"/>
      <point x="235" y="126"/>
      <point x="217" y="146"/>
      <point x="200" y="152" type="qcurve" smooth="yes" name="inserted"/>
      <point x="184" y="159"/>
      <point x="143" y="172"/>
      <point x="126" y="184" type="qcurve" smooth="yes" name="inserted"/>
      <point x="110" y="195"/>
      <point x="92" y="237"/>
      <point x="97" y="272" type="qcurve" smooth="yes"/>
      <point x="101" y="303"/>
      <point x="131" y="345"/>
      <point x="151" y="358" type="qcurve" smooth="yes" name="inserted"/>
      <point x="171" y="372"/>
      <point x="215" y="384"/>
      <point x="232" y="384" type="qcurve" smooth="yes"/>
      <point x="242" y="384"/>
      <point x="270" y="380"/>
      <point x="284" y="375" type="qcurve" smooth="yes" name="inserted"/>
      <point x="299" y="370"/>
      <point x="326" y="354"/>
      <point x="335" y="342" type="qcurve"/>
      <point x="322" y="255" type="line"/>
      <point x="248" y="255" type="line"/>
      <point x="255" y="298" type="line"/>
      <point x="248" y="300" name="inserted"/>
      <point x="232" y="303"/>
      <point x="225" y="303" type="qcurve" smooth="yes"/>
      <point x="215" y="303"/>
      <point x="199" y="299"/>
      <point x="193" y="295" type="qcurve" smooth="yes"/>
      <point x="187" y="290"/>
      <point x="180" y="277"/>
      <point x="180" y="268" type="qcurve" smooth="yes"/>
      <point x="180" y="256"/>
      <point x="204" y="241"/>
      <point x="221" y="234" type="qcurve" smooth="yes" name="inserted"/>
      <point x="238" y="227"/>
      <point x="275" y="209"/>
      <point x="290" y="196" type="qcurve" smooth="yes" name="inserted"/>
      <point x="305" y="182"/>
      <point x="321" y="141"/>
      <point x="317" y="110" type="qcurve" smooth="yes"/>
      <point x="315" y="96"/>
      <point x="299" y="56"/>
      <point x="282" y="37" type="qcurve" smooth="yes" name="inserted"/>
      <point x="266" y="18"/>
      <point x="212" y="-8"/>
      <point x="172" y="-8" type="qcurve" smooth="yes"/>
      <point x="135" y="-8"/>
      <point x="69" y="11"/>
      <point x="52" y="33" type="qcurve"/>
      <point x="64" y="120" type="line"/>
    </contour>
  </outline>
</glyph>
<glyph name="t" format="2">
  <advance width="335"/>
  <unicode hex="0074"/>
  <outline>
    <contour>
      <point x="205" y="619" type="line"/>
      <point x="288" y="619" type="line"/>
      <point x="254" y="375" type="line"/>
      <point x="352" y="375" type="line"/>
      <point x="341" y="294" type="line"/>
      <point x="243" y="294" type="line"/>
      <point x="213" y="79" type="line"/>
      <point x="288" y="79" type="line"/>
      <point x="277" y="0" type="line"/>
      <point x="119" y="0" type="line"/>
      <point x="160" y="294" type="line"/>
      <point x="76" y="294" type="line"/>
      <point x="87" y="375" type="line"/>
      <point x="171" y="375" type="line"/>
    </contour>
  </outline>
</glyph>
<glyph name="w" format="2">
  <advance width="830"/>
  <unicode hex="0077"/>
  <outline>
    <contour>
      <point x="636" y="375" type="line"/>
      <point x="850" y="375" type="line"/>
      <point x="839" y="296" type="line"/>
      <point x="763" y="296" type="line"/>
      <point x="712" y="215"/>
      <point x="609" y="57"/>
      <point x="558" y="-23" type="qcurve"/>
      <point x="463" y="232" type="line"/>
      <point x="286" y="-23" type="line"/>
      <point x="256" y="57"/>
      <point x="197" y="216"/>
      <point x="168" y="296" type="qcurve"/>
      <point x="79" y="296" type="line"/>
      <point x="90" y="375" type="line"/>
      <point x="297" y="375" type="line"/>
      <point x="286" y="296" type="line"/>
      <point x="251" y="296" type="line"/>
      <point x="267" y="252"/>
      <point x="297" y="165"/>
      <point x="306" y="120" type="qcurve"/>
      <point x="323" y="146"/>
      <point x="401" y="255"/>
      <point x="432" y="291" type="qcurve"/>
      <point x="429" y="296" type="line"/>
      <point x="358" y="296" type="line"/>
      <point x="369" y="375" type="line"/>
      <point x="591" y="375" type="line"/>
      <point x="580" y="296" type="line"/>
      <point x="523" y="296" type="line"/>
      <point x="539" y="252"/>
      <point x="569" y="165"/>
      <point x="578" y="120" type="qcurve"/>
      <point x="599" y="165"/>
      <point x="652" y="252"/>
      <point x="681" y="296" type="qcurve"/>
      <point x="625" y="296" type="line"/>
    </contour>
  </outline>
</glyph>
<glyph name="x" format="1">
  <advance width="526"/>
  <unicode hex="0078"/>
  <outline>
    <contour>
      <point x="87" y="375" type="line"/>
      <point x="309" y="375" type="line"/>
      <point x="298" y="296" type="line"/>
      <point x="275" y="296" type="line"/>
      <point x="310" y="237" type="line"/>
      <point x="360" y="296" type="line"/>
      <point x="333" y="296" type="line"/>
      <point x="344" y="375" type="line"/>
      <point x="543" y="375" type="line"/>
      <point x="532" y="296" type="line"/>
      <point x="459" y="296" type="line"/>
      <point x="353" y="173" type="line"/>
      <point x="367" y="149"/>
      <point x="395" y="102"/>
      <point x="410" y="79" type="qcurve"/>
      <point x="502" y="79" type="line"/>
      <point x="491" y="0" type="line"/>
      <point x="269" y="0" type="line"/>
      <point x="280" y="79" type="line"/>
      <point x="305" y="79" type="line"/>
      <point x="296" y="93"/>
      <point x="280" y="119"/>
      <point x="272" y="133" type="qcurve"/>
      <point x="261" y="119"/>
      <point x="236" y="93"/>
      <point x="225" y="79" type="qcurve"/>
      <point x="245" y="79" type="line"/>
      <point x="234" y="0" type="line"/>
      <point x="35" y="0" type="line"/>
      <point x="46" y="79" type="line"/>
      <point x="123" y="79" type="line"/>
      <point x="149" y="110"/>
      <point x="204" y="171"/>
      <point x="231" y="202" type="qcurve"/>
      <point x="217" y="225"/>
      <point x="189" y="273"/>
      <point x="175" y="296" type="qcurve"/>
      <point x="76" y="296" type="line"/>
    </contour>
  </outline>
</glyph>
<glyph name="y" format="1">
  <advance width="617"/>
  <unicode hex="0079"/>
  <outline>
    <contour>
      <point x="103" y="-171" type="line"/>
      <point x="193" y="-171" type="line"/>
      <point x="220" y="-128"/>
      <point x="275" y="-42"/>
      <point x="303" y="0" type="qcurve"/>
      <point x="276" y="75"/>
      <point x="222" y="221"/>
      <point x="195" y="296" type="qcurve"/>
      <point x="111" y="296" type="line"/>
      <point x="122" y="375" type="line"/>
      <point x="344" y="375" type="line"/>
      <point x="333" y="296" type="line"/>
      <point x="280" y="296" type="line"/>
      <point x="302" y="241"/>
      <point x="344" y="130"/>
      <point x="355" y="74" type="qcurve"/>
      <point x="381" y="130"/>
      <point x="454" y="241"/>
      <point x="491" y="296" type="qcurve"/>
      <point x="429" y="296" type="line"/>
      <point x="440" y="375" type="line"/>
      <point x="669" y="375" type="line"/>
      <point x="658" y="296" type="line"/>
      <point x="576" y="296" type="line"/>
      <point x="501" y="178"/>
      <point x="351" y="-53"/>
      <point x="276" y="-171" type="qcurve"/>
      <point x="325" y="-171" type="line"/>
      <point x="314" y="-250" type="line"/>
      <point x="92" y="-250" type="line"/>
    </contour>
  </outline>
</glyph>
<glyph name="z" format="1">
  <advance width="435"/>
  <unicode hex="007A"/>
  <outline>
    <contour>
      <point x="419" y="138" type="line"/>
      <point x="400" y="0" type="line"/>
      <point x="35" y="0" type="line"/>
      <point x="46" y="81" type="line"/>
      <point x="81" y="109"/>
      <point x="143" y="162"/>
      <point x="173.5" y="188.0" type="qcurve" smooth="yes" name="inserted"/>
      <point x="204" y="214"/>
      <point x="266" y="268"/>
      <point x="301" y="296" type="qcurve"/>
      <point x="88" y="296" type="line"/>
      <point x="104" y="410" type="line"/>
      <point x="178" y="410" type="line"/>
      <point x="173" y="375" type="line"/>
      <point x="429" y="375" type="line"/>
      <point x="418" y="294" type="line"/>
      <point x="382" y="266"/>
      <point x="320" y="213"/>
      <point x="290.0" y="187.0" type="qcurve" smooth="yes" name="inserted"/>
      <point x="260" y="161"/>
      <point x="198" y="109"/>
      <point x="163" y="81" type="qcurve"/>
      <point x="337" y="81" type="line"/>
      <point x="345" y="138" type="line"/>
    </contour>
  </outline>
</glyph>
<glyph name="braceleft" format="2">
  <advance width="320"/>
  <unicode hex="007B"/>
  <outline>
    <contour>
      <point x="87" y="256" type="qcurve"/>
      <point x="99" y="337" type="line"/>
      <point x="123" y="338"/>
      <point x="158" y="365"/>
      <point x="169.5" y="385.0" type="qcurve" smooth="yes" name="inserted"/>
      <point x="181" y="405"/>
      <point x="194" y="452"/>
      <point x="197" y="472" type="qcurve" smooth="yes"/>
      <point x="219" y="628" type="line" smooth="yes"/>
      <point x="225" y="674"/>
      <point x="251" y="723"/>
      <point x="268.5" y="733.5" type="qcurve" smooth="yes" name="inserted"/>
      <point x="286" y="744"/>
      <point x="329" y="746"/>
      <point x="353" y="746" type="qcurve" smooth="yes"/>
      <point x="416" y="746" type="line"/>
      <point x="405" y="665" type="line"/>
      <point x="361" y="665" type="line" smooth="yes"/>
      <point x="346" y="665"/>
      <point x="324" y="657"/>
      <point x="316.5" y="645.5" type="qcurve" smooth="yes" name="inserted"/>
      <point x="309" y="634"/>
      <point x="298" y="594"/>
      <point x="294" y="562" type="qcurve" smooth="yes"/>
      <point x="276" y="433" type="line" smooth="yes"/>
      <point x="272" y="402"/>
      <point x="253" y="357"/>
      <point x="241.0" y="341.0" type="qcurve" smooth="yes" name="inserted"/>
      <point x="229" y="325"/>
      <point x="203" y="304"/>
      <point x="192" y="298" type="qcurve"/>
      <point x="201" y="292"/>
      <point x="221" y="271"/>
      <point x="228.5" y="254.5" type="qcurve" smooth="yes" name="inserted"/>
      <point x="236" y="238"/>
      <point x="242" y="194"/>
      <point x="238" y="164" type="qcurve" smooth="yes"/>
      <point x="220" y="35" type="line" smooth="yes"/>
      <point x="215" y="3"/>
      <point x="215" y="-38"/>
      <point x="219.5" y="-49.0" type="qcurve" smooth="yes" name="inserted"/>
      <point x="224" y="-60"/>
      <point x="243" y="-68"/>
      <point x="258" y="-68" type="qcurve" smooth="yes"/>
      <point x="302" y="-68" type="line"/>
      <point x="290" y="-149" type="line"/>
      <point x="227" y="-149" type="line" smooth="yes"/>
      <point x="204" y="-149"/>
      <point x="162" y="-147"/>
      <point x="147.0" y="-136.5" type="qcurve" smooth="yes" name="inserted"/>
      <point x="132" y="-126"/>
      <point x="120" y="-78"/>
      <point x="126" y="-31" type="qcurve" smooth="yes"/>
      <point x="147" y="121" type="line" smooth="yes"/>
      <point x="150" y="141"/>
      <point x="150" y="188"/>
      <point x="144.0" y="208.0" type="qcurve" smooth="yes" name="inserted"/>
      <point x="138" y="228"/>
      <point x="111" y="255"/>
    </contour>
  </outline>
</glyph>
<glyph name="braceright" format="2">
  <advance width="320"/>
  <unicode hex="007D"/>
  <outline>
    <contour>
      <point x="359" y="337" type="qcurve"/>
      <point x="347" y="256" type="line"/>
      <point x="323" y="255"/>
      <point x="289" y="228"/>
      <point x="277.0" y="208.0" type="qcurve" smooth="yes" name="inserted"/>
      <point x="265" y="188"/>
      <point x="252" y="141"/>
      <point x="249" y="121" type="qcurve" smooth="yes"/>
      <point x="228" y="-31" type="line" smooth="yes"/>
      <point x="222" y="-78"/>
      <point x="196" y="-126"/>
      <point x="178.0" y="-136.5" type="qcurve" smooth="yes" name="inserted"/>
      <point x="160" y="-147"/>
      <point x="117" y="-149"/>
      <point x="93" y="-149" type="qcurve" smooth="yes"/>
      <point x="30" y="-149" type="line"/>
      <point x="42" y="-68" type="line"/>
      <point x="86" y="-68" type="line" smooth="yes"/>
      <point x="101" y="-68"/>
      <point x="122" y="-60"/>
      <point x="129.5" y="-49.0" type="qcurve" smooth="yes" name="inserted"/>
      <point x="137" y="-38"/>
      <point x="147" y="3"/>
      <point x="152" y="35" type="qcurve" smooth="yes"/>
      <point x="170" y="164" type="line" smooth="yes"/>
      <point x="174" y="194"/>
      <point x="194" y="239"/>
      <point x="206.0" y="255.0" type="qcurve" smooth="yes" name="inserted"/>
      <point x="218" y="271"/>
      <point x="244" y="292"/>
      <point x="254" y="298" type="qcurve"/>
      <point x="245" y="304"/>
      <point x="226" y="325"/>
      <point x="218.5" y="341.0" type="qcurve" smooth="yes" name="inserted"/>
      <point x="211" y="357"/>
      <point x="204" y="402"/>
      <point x="208" y="433" type="qcurve" smooth="yes"/>
      <point x="226" y="562" type="line" smooth="yes"/>
      <point x="230" y="594"/>
      <point x="232" y="634"/>
      <point x="227.5" y="645.5" type="qcurve" smooth="yes" name="inserted"/>
      <point x="223" y="657"/>
      <point x="204" y="665"/>
      <point x="189" y="665" type="qcurve" smooth="yes"/>
      <point x="145" y="665" type="line"/>
      <point x="156" y="746" type="line"/>
      <point x="219" y="746" type="line" smooth="yes"/>
      <point x="242" y="746"/>
      <point x="285" y="744"/>
      <point x="300.0" y="733.5" type="qcurve" smooth="yes" name="inserted"/>
      <point x="315" y="723"/>
      <point x="327" y="675"/>
      <point x="321" y="628" type="qcurve" smooth="yes"/>
      <point x="299" y="472" type="line" smooth="yes"/>
      <point x="296" y="452"/>
      <point x="296" y="405"/>
      <point x="302.0" y="385.0" type="qcurve" smooth="yes" name="inserted"/>
      <point x="308" y="365"/>
      <point x="335" y="338"/>
    </contour>
  </outline>
</glyph>
<glyph name="asciitilde" format="1">
  <advance width="489"/>
  <unicode hex="007E"/>
  <outline>
    <contour>
      <point x="275" y="481" type="qcurve"/>
      <point x="262" y="497"/>
      <point x="241" y="507"/>
      <point x="227" y="507" type="qcurve" smooth="yes"/>
      <point x="213" y="507"/>
      <point x="175" y="490"/>
      <point x="167" y="461" type="qcurve"/>
      <point x="156" y="462"/>
      <point x="134" y="463"/>
      <point x="123" y="464" type="qcurve"/>
      <point x="127" y="484"/>
      <point x="149" y="517"/>
      <point x="163.5" y="528.5" type="qcurve" smooth="yes" name="inserted"/>
      <point x="178" y="540"/>
      <point x="211" y="552"/>
      <point x="226" y="552" type="qcurve" smooth="yes"/>
      <point x="249" y="552"/>
      <point x="284" y="534"/>
      <point x="298" y="519" type="qcurve"/>
      <point x="311" y="503"/>
      <point x="333" y="493"/>
      <point x="347" y="493" type="qcurve" smooth="yes"/>
      <point x="354" y="493"/>
      <point x="371" y="497"/>
      <point x="379.5" y="502.0" type="qcurve" smooth="yes" name="inserted"/>
      <point x="388" y="507"/>
      <point x="403" y="525"/>
      <point x="406" y="539" type="qcurve"/>
      <point x="451" y="536" type="line"/>
      <point x="447" y="516"/>
      <point x="425" y="483"/>
      <point x="410.5" y="472.0" type="qcurve" smooth="yes" name="inserted"/>
      <point x="396" y="461"/>
      <point x="363" y="449"/>
      <point x="348" y="449" type="qcurve" smooth="yes"/>
      <point x="325" y="449"/>
      <point x="289" y="467"/>
    </contour>
  </outline>
</glyph>
<glyph name="exclamdown" format="2">
  <advance width="200"/>
  <unicode hex="00A1"/>
  <outline>
    <contour>
      <point x="207" y="540" type="qcurve" smooth="yes"/>
      <point x="226" y="540"/>
      <point x="253" y="510"/>
      <point x="249" y="487" type="qcurve" smooth="yes"/>
      <point x="246" y="464"/>
      <point x="211" y="435"/>
      <point x="192" y="435" type="qcurve" smooth="yes"/>
      <point x="172" y="435"/>
      <point x="144" y="464"/>
      <point x="147" y="487" type="qcurve"/>
      <point x="152" y="510"/>
      <point x="187" y="540"/>
    </contour>
    <contour>
      <point x="141" y="374" type="line"/>
      <point x="224" y="374" type="line"/>
      <point x="142" y="-210" type="line"/>
      <point x="59" y="-210" type="line"/>
    </contour>
  </outline>
</glyph>
<glyph name="cent" format="1">
  <advance width="385"/>
  <unicode hex="00A2"/>
  <outline>
    <contour>
      <point x="334" y="97" type="qcurve"/>
      <point x="375" y="34" type="line"/>
      <point x="351" y="17"/>
      <point x="302" y="-2"/>
      <point x="271" y="-7" type="qcurve"/>
      <point x="263" y="-68" type="line"/>
      <point x="179" y="-68" type="line"/>
      <point x="188" y="0" type="line"/>
      <point x="158" y="9"/>
      <point x="111" y="45"/>
      <point x="95.0" y="69.5" type="qcurve" smooth="yes" name="inserted"/>
      <point x="79" y="94"/>
      <point x="66" y="155"/>
      <point x="71" y="188" type="qcurve" smooth="yes"/>
      <point x="76" y="221"/>
      <point x="106" y="281"/>
      <point x="128.5" y="306.0" type="qcurve" smooth="yes" name="inserted"/>
      <point x="151" y="331"/>
      <point x="209" y="367"/>
      <point x="241" y="376" type="qcurve"/>
      <point x="250" y="438" type="line"/>
      <point x="334" y="438" type="line"/>
      <point x="326" y="382" type="line"/>
      <point x="355" y="379"/>
      <point x="401" y="357"/>
      <point x="420" y="341" type="qcurve"/>
      <point x="419" y="340" type="line"/>
      <point x="417" y="332"/>
      <point x="416" y="319"/>
      <point x="415" y="311" type="qcurve" smooth="yes"/>
      <point x="403" y="225" type="line"/>
      <point x="329" y="225" type="line"/>
      <point x="338" y="292" type="line"/>
      <point x="333" y="295"/>
      <point x="321" y="298"/>
      <point x="314" y="300" type="qcurve"/>
      <point x="282" y="74" type="line"/>
      <point x="296" y="77"/>
      <point x="323" y="89"/>
    </contour>
    <contour>
      <point x="154" y="188" type="qcurve" smooth="yes"/>
      <point x="149" y="154"/>
      <point x="174" y="100"/>
      <point x="200" y="85" type="qcurve"/>
      <point x="229" y="289" type="line"/>
      <point x="199" y="275"/>
      <point x="159" y="222"/>
    </contour>
  </outline>
</glyph>
<glyph name="sterling" format="2">
  <advance width="574"/>
  <unicode hex="00A3"/>
  <outline>
    <contour>
      <point x="547" y="0" type="line"/>
      <point x="29" y="0" type="line"/>
      <point x="40" y="81" type="line"/>
      <point x="84" y="81" type="line" smooth="yes"/>
      <point x="100" y="81"/>
      <point x="121" y="88"/>
      <point x="128" y="99" type="qcurve" smooth="yes" name="inserted"/>
      <point x="136" y="110"/>
      <point x="145" y="149"/>
      <point x="150" y="181" type="qcurve" smooth="yes"/>
      <point x="163" y="273" type="line"/>
      <point x="98" y="273" type="line"/>
      <point x="109" y="354" type="line"/>
      <point x="174" y="354" type="line"/>
      <point x="195" y="500" type="line" smooth="yes"/>
      <point x="205" y="569"/>
      <point x="317" y="634"/>
      <point x="422" y="634" type="qcurve" smooth="yes"/>
      <point x="455" y="634"/>
      <point x="519" y="618"/>
      <point x="538" y="604" type="qcurve" smooth="yes" name="inserted"/>
      <point x="556" y="590"/>
      <point x="581" y="554"/>
      <point x="588" y="534" type="qcurve"/>
      <point x="519" y="497" type="line"/>
      <point x="515" y="504"/>
      <point x="505" y="523"/>
      <point x="495" y="532" type="qcurve" smooth="yes" name="inserted"/>
      <point x="485" y="541"/>
      <point x="442" y="553"/>
      <point x="414" y="553" type="qcurve" smooth="yes"/>
      <point x="387" y="553"/>
      <point x="351" y="549"/>
      <point x="334" y="545" type="qcurve" smooth="yes"/>
      <point x="309" y="537"/>
      <point x="280" y="506"/>
      <point x="276" y="478" type="qcurve" smooth="yes"/>
      <point x="258" y="354" type="line"/>
      <point x="375" y="354" type="line"/>
      <point x="364" y="273" type="line"/>
      <point x="247" y="273" type="line"/>
      <point x="231" y="163" type="line" smooth="yes"/>
      <point x="227" y="134"/>
      <point x="216" y="95"/>
      <point x="199" y="81" type="qcurve"/>
      <point x="474" y="81" type="line"/>
      <point x="487" y="177" type="line"/>
      <point x="572" y="177" type="line"/>
    </contour>
  </outline>
</glyph>
<glyph name="currency" format="2">
  <advance width="500"/>
  <unicode hex="00A4"/>
  <outline>
    <contour>
      <point x="194" y="360" type="qcurve" smooth="yes"/>
      <point x="191" y="341"/>
      <point x="203" y="309"/>
      <point x="215" y="299" type="qcurve" smooth="yes"/>
      <point x="224" y="291"/>
      <point x="247" y="283"/>
      <point x="260" y="283" type="qcurve" smooth="yes"/>
      <point x="276" y="283"/>
      <point x="306" y="295"/>
      <point x="318" y="306" type="qcurve" smooth="yes" name="inserted"/>
      <point x="330" y="316"/>
      <point x="347" y="344"/>
      <point x="349" y="360" type="qcurve" smooth="yes"/>
      <point x="351" y="377"/>
      <point x="341" y="407"/>
      <point x="331" y="418" type="qcurve" smooth="yes"/>
      <point x="322" y="427"/>
      <point x="297" y="438"/>
      <point x="282" y="438" type="qcurve" smooth="yes"/>
      <point x="265" y="438"/>
      <point x="235" y="425"/>
      <point x="223" y="413" type="qcurve" smooth="yes"/>
      <point x="212" y="403"/>
      <point x="196" y="375"/>
    </contour>
    <contour>
      <point x="110" y="361" type="qcurve" smooth="yes"/>
      <point x="113" y="382.5" name="inserted"/>
      <point x="129" y="421.5"/>
      <point x="142" y="439" type="qcurve"/>
      <point x="137" y="445"/>
      <point x="127" y="457"/>
      <point x="122" y="463" type="qcurve"/>
      <point x="189" y="522" type="line"/>
      <point x="210" y="498" type="line"/>
      <point x="230" y="507"/>
      <point x="270" y="519"/>
      <point x="292" y="519" type="qcurve" smooth="yes"/>
      <point x="314" y="519"/>
      <point x="352" y="508"/>
      <point x="369" y="498" type="qcurve"/>
      <point x="396" y="522" type="line"/>
      <point x="447" y="463" type="line"/>
      <point x="422" y="441" type="line"/>
      <point x="430.5" y="422.5" name="inserted"/>
      <point x="436" y="382.5"/>
      <point x="433" y="361" type="qcurve" smooth="yes"/>
      <point x="429" y="337.5" name="inserted"/>
      <point x="411.5" y="297"/>
      <point x="398" y="280" type="qcurve"/>
      <point x="419" y="256" type="line"/>
      <point x="352" y="197" type="line"/>
      <point x="346" y="203"/>
      <point x="335" y="216"/>
      <point x="329" y="222" type="qcurve"/>
      <point x="310" y="212" name="inserted"/>
      <point x="269" y="202"/>
      <point x="247" y="202" type="qcurve" smooth="yes"/>
      <point x="226" y="202" name="inserted"/>
      <point x="188.5" y="211.5"/>
      <point x="172" y="221" type="qcurve"/>
      <point x="144" y="196" type="line"/>
      <point x="93" y="255" type="line"/>
      <point x="120" y="279" type="line"/>
      <point x="112" y="297"/>
      <point x="106" y="338"/>
    </contour>
  </outline>
</glyph>
<glyph name="yen" format="1">
  <advance width="789"/>
  <unicode hex="00A5"/>
  <outline>
    <contour>
      <point x="577" y="100" type="line"/>
      <point x="460" y="100" type="line"/>
      <point x="457" y="79" type="line"/>
      <point x="530" y="79" type="line"/>
      <point x="519" y="0" type="line"/>
      <point x="277" y="0" type="line"/>
      <point x="288" y="79" type="line"/>
      <point x="355" y="79" type="line"/>
      <point x="358" y="100" type="line"/>
      <point x="243" y="100" type="line"/>
      <point x="254" y="181" type="line"/>
      <point x="369" y="181" type="line"/>
      <point x="380" y="263" type="line"/>
      <point x="265" y="263" type="line"/>
      <point x="277" y="344" type="line"/>
      <point x="348" y="344" type="line"/>
      <point x="223" y="621" type="line"/>
      <point x="122" y="621" type="line"/>
      <point x="133" y="700" type="line"/>
      <point x="375" y="700" type="line"/>
      <point x="364" y="621" type="line"/>
      <point x="324" y="621" type="line"/>
      <point x="352" y="560"/>
      <point x="407" y="438"/>
      <point x="435" y="377" type="qcurve"/>
      <point x="442" y="346" type="line"/>
      <point x="443" y="346" type="line"/>
      <point x="459" y="377" type="line"/>
      <point x="638" y="621" type="line"/>
      <point x="599" y="621" type="line"/>
      <point x="610" y="700" type="line"/>
      <point x="852" y="700" type="line"/>
      <point x="841" y="621" type="line"/>
      <point x="740" y="621" type="line"/>
      <point x="689" y="551"/>
      <point x="589" y="413"/>
      <point x="538" y="344" type="qcurve"/>
      <point x="610" y="344" type="line"/>
      <point x="598" y="263" type="line"/>
      <point x="482" y="263" type="line"/>
      <point x="471" y="181" type="line"/>
      <point x="588" y="181" type="line"/>
    </contour>
  </outline>
</glyph>
<glyph name="brokenbar" format="2">
  <advance width="215"/>
  <unicode hex="00A6"/>
  <outline>
    <contour>
      <point x="153" y="-233" type="line"/>
      <point x="69" y="-233" type="line"/>
      <point x="118" y="117" type="line"/>
      <point x="202" y="117" type="line"/>
    </contour>
    <contour>
      <point x="234" y="350" type="line"/>
      <point x="150" y="350" type="line"/>
      <point x="200" y="700" type="line"/>
      <point x="284" y="700" type="line"/>
    </contour>
  </outline>
</glyph>
<glyph name="section" format="1">
  <advance width="500"/>
  <unicode hex="00A7"/>
  <outline>
    <contour>
      <point x="251" y="360" type="qcurve" smooth="yes"/>
      <point x="247" y="333"/>
      <point x="279" y="296"/>
      <point x="306" y="296" type="qcurve" smooth="yes"/>
      <point x="332" y="296"/>
      <point x="375" y="333"/>
      <point x="379" y="360" type="qcurve" smooth="yes"/>
      <point x="383" y="386"/>
      <point x="351" y="424"/>
      <point x="324" y="424" type="qcurve" smooth="yes"/>
      <point x="298" y="424"/>
      <point x="255" y="387"/>
    </contour>
    <contour>
      <point x="244" y="148" type="qcurve" smooth="yes"/>
      <point x="223" y="192"/>
      <point x="198" y="244"/>
      <point x="192.0" y="257.5" type="qcurve" smooth="yes" name="inserted"/>
      <point x="186" y="271"/>
      <point x="184" y="280"/>
      <point x="184" y="282" type="qcurve"/>
      <point x="174" y="305"/>
      <point x="172" y="358"/>
      <point x="180.0" y="384.0" type="qcurve" smooth="yes" name="inserted"/>
      <point x="188" y="410"/>
      <point x="220" y="456"/>
      <point x="243" y="473" type="qcurve" smooth="yes"/>
      <point x="259.0" y="484.5" name="inserted"/>
      <point x="296.0" y="498.0"/>
      <point x="317" y="500" type="qcurve"/>
      <point x="309" y="517"/>
      <point x="294" y="551"/>
      <point x="286" y="569" type="qcurve" smooth="yes"/>
      <point x="272" y="602"/>
      <point x="267" y="649"/>
      <point x="273.0" y="666.5" type="qcurve" smooth="yes" name="inserted"/>
      <point x="279" y="684"/>
      <point x="306" y="708"/>
      <point x="324" y="718" type="qcurve" smooth="yes"/>
      <point x="344" y="729"/>
      <point x="385" y="751"/>
      <point x="405" y="762" type="qcurve"/>
      <point x="412.5" y="745.0" name="inserted"/>
      <point x="428.5" y="710.0"/>
      <point x="437" y="692" type="qcurve"/>
      <point x="426" y="687"/>
      <point x="406" y="675"/>
      <point x="395" y="670" type="qcurve"/>
      <point x="382" y="662"/>
      <point x="367" y="648"/>
      <point x="364.5" y="638.0" type="qcurve" smooth="yes" name="inserted"/>
      <point x="362" y="628"/>
      <point x="369" y="601"/>
      <point x="378" y="580" type="qcurve"/>
      <point x="379" y="580" type="line"/>
      <point x="396" y="542"/>
      <point x="430" y="469"/>
      <point x="447" y="431" type="qcurve" smooth="yes"/>
      <point x="458" y="408"/>
      <point x="459" y="356"/>
      <point x="451.0" y="330.5" type="qcurve" smooth="yes" name="inserted"/>
      <point x="443" y="305"/>
      <point x="410" y="259"/>
      <point x="386" y="243" type="qcurve" smooth="yes"/>
      <point x="370.0" y="231.5" name="inserted"/>
      <point x="333.0" y="217.0"/>
      <point x="312" y="214" type="qcurve"/>
      <point x="319.5" y="197.0" name="inserted"/>
      <point x="335.5" y="162.0"/>
      <point x="344" y="144" type="qcurve" smooth="yes"/>
      <point x="359" y="111"/>
      <point x="364" y="63"/>
      <point x="358.0" y="45.5" type="qcurve" smooth="yes" name="inserted"/>
      <point x="352" y="28"/>
      <point x="325" y="3"/>
      <point x="307" y="-7" type="qcurve" smooth="yes"/>
      <point x="287" y="-18"/>
      <point x="248" y="-39"/>
      <point x="228" y="-50" type="qcurve"/>
      <point x="220" y="-33"/>
      <point x="203" y="3"/>
      <point x="195" y="20" type="qcurve"/>
      <point x="206" y="26"/>
      <point x="227" y="37"/>
      <point x="238" y="43" type="qcurve" smooth="yes"/>
      <point x="251" y="50"/>
      <point x="266" y="66"/>
      <point x="266.5" y="77.5" type="qcurve" smooth="yes" name="inserted"/>
      <point x="267" y="89"/>
      <point x="256" y="122"/>
    </contour>
  </outline>
</glyph>
<glyph name="dieresis" format="1">
  <advance width="370"/>
  <unicode hex="00A8"/>
  <outline>
    <contour>
      <point x="222" y="520" type="qcurve" smooth="yes"/>
      <point x="225" y="543"/>
      <point x="261" y="573"/>
      <point x="281" y="573" type="qcurve" smooth="yes"/>
      <point x="300" y="573"/>
      <point x="328" y="543"/>
      <point x="325" y="520" type="qcurve" smooth="yes"/>
      <point x="321" y="497"/>
      <point x="286" y="468"/>
      <point x="267" y="468" type="qcurve" smooth="yes"/>
      <point x="247" y="468"/>
      <point x="218" y="497"/>
    </contour>
    <contour>
      <point x="56" y="520" type="qcurve" smooth="yes"/>
      <point x="59" y="543"/>
      <point x="95" y="573"/>
      <point x="115" y="573" type="qcurve" smooth="yes"/>
      <point x="134" y="573"/>
      <point x="162" y="543"/>
      <point x="159" y="520" type="qcurve" smooth="yes"/>
      <point x="155" y="497"/>
      <point x="120" y="468"/>
      <point x="101" y="468" type="qcurve" smooth="yes"/>
      <point x="81" y="468"/>
      <point x="52" y="497"/>
    </contour>
  </outline>
</glyph>
<glyph name="copyright" format="2">
  <advance width="793"/>
  <unicode hex="00A9"/>
  <outline>
    <contour>
      <point x="405" y="148" type="qcurve" smooth="yes"/>
      <point x="452" y="148"/>
      <point x="538" y="182"/>
      <point x="572.5" y="212" type="qcurve" smooth="yes" name="inserted"/>
      <point x="607" y="242"/>
      <point x="652" y="324"/>
      <point x="659" y="372" type="qcurve" smooth="yes"/>
      <point x="666" y="421"/>
      <point x="643" y="503"/>
      <point x="617.5" y="533" type="qcurve" smooth="yes" name="inserted"/>
      <point x="592" y="563"/>
      <point x="515" y="597"/>
      <point x="468" y="597" type="qcurve" smooth="yes"/>
      <point x="421" y="597"/>
      <point x="334" y="563"/>
      <point x="300" y="533" type="qcurve" smooth="yes" name="inserted"/>
      <point x="266" y="503"/>
      <point x="220" y="421"/>
      <point x="213" y="372" type="qcurve" smooth="yes"/>
      <point x="206" y="324"/>
      <point x="229" y="242"/>
      <point x="255" y="212" type="qcurve" smooth="yes" name="inserted"/>
      <point x="281" y="182"/>
      <point x="358" y="148"/>
    </contour>
    <contour>
      <point x="400" y="111" type="qcurve" smooth="yes"/>
      <point x="346" y="111"/>
      <point x="256" y="151"/>
      <point x="225" y="186" type="qcurve" smooth="yes" name="inserted"/>
      <point x="194" y="221"/>
      <point x="165" y="316"/>
      <point x="173" y="372" type="qcurve" smooth="yes"/>
      <point x="181" y="429"/>
      <point x="236" y="525"/>
      <point x="277" y="560" type="qcurve" smooth="yes" name="inserted"/>
      <point x="318" y="595"/>
      <point x="419" y="634"/>
      <point x="473" y="634" type="qcurve" smooth="yes"/>
      <point x="527" y="634"/>
      <point x="617" y="595"/>
      <point x="648" y="560" type="qcurve" smooth="yes" name="inserted"/>
      <point x="679" y="525"/>
      <point x="707" y="429"/>
      <point x="699" y="372" type="qcurve" smooth="yes"/>
      <point x="691" y="316"/>
      <point x="636" y="221"/>
      <point x="595.5" y="186" type="qcurve" smooth="yes" name="inserted"/>
      <point x="555" y="151"/>
      <point x="454" y="111"/>
    </contour>
    <contour>
      <point x="500" y="464" type="line"/>
      <point x="504" y="492" type="line"/>
      <point x="492.5" y="497" name="inserted"/>
      <point x="469.5" y="502"/>
      <point x="458" y="502" type="qcurve" smooth="yes"/>
      <point x="432" y="502"/>
      <point x="385" y="482"/>
      <point x="365.5" y="464.5" type="qcurve" smooth="yes" name="inserted"/>
      <point x="346" y="447"/>
      <point x="320" y="401"/>
      <point x="317" y="375" type="qcurve" smooth="yes"/>
      <point x="313" y="349"/>
      <point x="326" y="303"/>
      <point x="340.5" y="286" type="qcurve" smooth="yes" name="inserted"/>
      <point x="355" y="269"/>
      <point x="397" y="249"/>
      <point x="423" y="249" type="qcurve" smooth="yes"/>
      <point x="439.5" y="249" name="inserted"/>
      <point x="471.5" y="257.5"/>
      <point x="487" y="266" type="qcurve"/>
      <point x="504" y="236" type="line"/>
      <point x="484" y="225"/>
      <point x="441" y="213"/>
      <point x="418" y="213" type="qcurve" smooth="yes"/>
      <point x="385" y="213"/>
      <point x="329" y="239"/>
      <point x="310.5" y="261" type="qcurve" smooth="yes" name="inserted"/>
      <point x="292" y="283"/>
      <point x="274" y="342"/>
      <point x="279" y="375" type="qcurve" smooth="yes"/>
      <point x="284" y="409"/>
      <point x="318" y="468"/>
      <point x="342.5" y="490" type="qcurve" smooth="yes" name="inserted"/>
      <point x="367" y="512"/>
      <point x="430" y="537"/>
      <point x="463" y="537" type="qcurve" smooth="yes"/>
      <point x="485.5" y="537" name="inserted"/>
      <point x="525.5" y="526"/>
      <point x="543" y="515" type="qcurve"/>
      <point x="536" y="464" type="line"/>
    </contour>
  </outline>
</glyph>
<glyph name="ordfeminine" format="2">
  <advance width="585"/>
  <unicode hex="00AA"/>
  <outline>
    <contour>
      <point x="103" y="441" type="qcurve" smooth="yes"/>
      <point x="107" y="469"/>
      <point x="137" y="521"/>
      <point x="159" y="540" type="qcurve" smooth="yes" name="inserted"/>
      <point x="181" y="560"/>
      <point x="238" y="583"/>
      <point x="268" y="583" type="qcurve" smooth="yes"/>
      <point x="287" y="583"/>
      <point x="318" y="574"/>
      <point x="330" y="567" type="qcurve" smooth="yes" name="inserted"/>
      <point x="342" y="560"/>
      <point x="354" y="545"/>
      <point x="354" y="543" type="qcurve"/>
      <point x="355" y="551"/>
      <point x="360" y="568"/>
      <point x="361" y="576" type="qcurve"/>
      <point x="411" y="576" type="line"/>
      <point x="381" y="363" type="line"/>
      <point x="436" y="363" type="line"/>
      <point x="428" y="306" type="line"/>
      <point x="321" y="306" type="line"/>
      <point x="322" y="320" type="line" smooth="yes"/>
      <point x="323" y="325"/>
      <point x="323" y="331"/>
      <point x="324" y="335" type="qcurve"/>
      <point x="323" y="333"/>
      <point x="308" y="321"/>
      <point x="296" y="315" type="qcurve" smooth="yes" name="inserted"/>
      <point x="284" y="309"/>
      <point x="249" y="300"/>
      <point x="228" y="300" type="qcurve" smooth="yes"/>
      <point x="198" y="300"/>
      <point x="147" y="322"/>
      <point x="131" y="341" type="qcurve" smooth="yes" name="inserted"/>
      <point x="114" y="361"/>
      <point x="98" y="412"/>
    </contour>
    <contour>
      <point x="163" y="442" type="qcurve" smooth="yes"/>
      <point x="160" y="421"/>
      <point x="172" y="387"/>
      <point x="185" y="375" type="qcurve" smooth="yes"/>
      <point x="194" y="367"/>
      <point x="220" y="358"/>
      <point x="236" y="358" type="qcurve" smooth="yes"/>
      <point x="255" y="358"/>
      <point x="287" y="371"/>
      <point x="300" y="382" type="qcurve" smooth="yes" name="inserted"/>
      <point x="313" y="393"/>
      <point x="330" y="424"/>
      <point x="332" y="441" type="qcurve" smooth="yes"/>
      <point x="335" y="460"/>
      <point x="326" y="491"/>
      <point x="316" y="501" type="qcurve" smooth="yes"/>
      <point x="307" y="512"/>
      <point x="277" y="524"/>
      <point x="259" y="524" type="qcurve" smooth="yes"/>
      <point x="241" y="524"/>
      <point x="208" y="512"/>
      <point x="195" y="501" type="qcurve" smooth="yes" name="inserted"/>
      <point x="182" y="490"/>
      <point x="165" y="460"/>
    </contour>
  </outline>
</glyph>
<glyph name="logicalnot" format="2">
  <advance width="559"/>
  <unicode hex="00AC"/>
  <outline>
    <contour>
      <point x="376" y="148" type="line"/>
      <point x="381" y="188" type="line"/>
      <point x="105" y="188" type="line"/>
      <point x="114" y="248" type="line"/>
      <point x="474" y="248" type="line"/>
      <point x="460" y="148" type="line"/>
    </contour>
  </outline>
</glyph>
<glyph name="degree" format="2">
  <advance width="282"/>
  <unicode hex="00B0"/>
  <outline>
    <contour>
      <point x="145" y="511" type="qcurve" smooth="yes"/>
      <point x="165" y="511"/>
      <point x="198" y="539"/>
      <point x="200" y="559" type="qcurve" smooth="yes"/>
      <point x="203" y="579"/>
      <point x="178" y="608"/>
      <point x="158" y="608" type="qcurve" smooth="yes"/>
      <point x="138" y="608"/>
      <point x="106" y="579"/>
      <point x="103" y="559" type="qcurve" smooth="yes"/>
      <point x="101" y="539"/>
      <point x="125" y="511"/>
    </contour>
    <contour>
      <point x="50" y="560" type="qcurve" smooth="yes"/>
      <point x="53" y="581"/>
      <point x="73" y="617"/>
      <point x="89" y="630.5" type="qcurve" smooth="yes" name="inserted"/>
      <point x="105" y="644"/>
      <point x="145" y="660"/>
      <point x="166" y="660" type="qcurve" smooth="yes"/>
      <point x="208" y="660"/>
      <point x="257" y="602"/>
      <point x="252" y="560" type="qcurve" smooth="yes"/>
      <point x="249" y="539"/>
      <point x="228" y="502"/>
      <point x="212.5" y="488.5" type="qcurve" smooth="yes" name="inserted"/>
      <point x="197" y="475"/>
      <point x="159" y="460"/>
      <point x="138" y="460" type="qcurve" smooth="yes"/>
      <point x="95" y="460"/>
      <point x="44" y="518"/>
    </contour>
  </outline>
</glyph>
<glyph name="twosuperior" format="2">
  <advance width="398"/>
  <unicode hex="00B2"/>
  <outline>
    <contour>
      <point x="186" y="415" type="qcurve"/>
      <point x="266" y="415" type="line"/>
      <point x="273" y="461" type="line"/>
      <point x="312" y="461" type="line"/>
      <point x="300" y="375" type="line"/>
      <point x="81" y="375" type="line"/>
      <point x="115" y="406"/>
      <point x="181" y="463"/>
      <point x="207" y="490" type="qcurve" smooth="yes" name="inserted"/>
      <point x="233" y="517"/>
      <point x="267" y="568"/>
      <point x="270" y="591" type="qcurve" smooth="yes"/>
      <point x="273" y="610"/>
      <point x="264" y="635"/>
      <point x="257" y="644" type="qcurve" smooth="yes" name="inserted"/>
      <point x="249" y="652"/>
      <point x="228" y="660"/>
      <point x="220" y="660" type="qcurve" smooth="yes"/>
      <point x="201" y="660"/>
      <point x="175" y="647"/>
      <point x="167" y="638" type="qcurve" smooth="yes" name="inserted"/>
      <point x="159" y="628"/>
      <point x="151" y="608"/>
      <point x="150" y="600" type="qcurve" smooth="yes"/>
      <point x="147" y="584" name="inserted"/>
      <point x="153" y="558"/>
      <point x="162" y="548" type="qcurve"/>
      <point x="133" y="523" type="line"/>
      <point x="119" y="534"/>
      <point x="105" y="581"/>
      <point x="108" y="600" type="qcurve" smooth="yes"/>
      <point x="111" y="619"/>
      <point x="129" y="656"/>
      <point x="145" y="670" type="qcurve" smooth="yes" name="inserted"/>
      <point x="160" y="684"/>
      <point x="200" y="700"/>
      <point x="226" y="700" type="qcurve" smooth="yes"/>
      <point x="248" y="700"/>
      <point x="283" y="683"/>
      <point x="295" y="669" type="qcurve" smooth="yes" name="inserted"/>
      <point x="306" y="655"/>
      <point x="316" y="618"/>
      <point x="313" y="597" type="qcurve" smooth="yes"/>
      <point x="309" y="573"/>
      <point x="286" y="527"/>
      <point x="268" y="504" type="qcurve" smooth="yes" name="inserted"/>
      <point x="251" y="481"/>
      <point x="208" y="437"/>
    </contour>
  </outline>
</glyph>
<glyph name="acute" format="1">
  <advance width="274"/>
  <unicode hex="00B4"/>
  <outline>
    <contour>
      <point x="100" y="479" type="line"/>
      <point x="127" y="512"/>
      <point x="181" y="579"/>
      <point x="208" y="612" type="qcurve"/>
      <point x="292" y="612" type="line"/>
      <point x="159" y="479" type="line"/>
    </contour>
  </outline>
</glyph>
<glyph name="cedilla" format="2">
  <advance width="452"/>
  <unicode hex="00B8"/>
  <outline>
    <contour>
      <point x="219" y="0" type="line"/>
      <point x="270" y="0" type="line"/>
      <point x="269" y="-7" type="line" smooth="yes"/>
      <point x="267" y="-21"/>
      <point x="273" y="-38"/>
      <point x="278.5" y="-43.5" type="qcurve" smooth="yes" name="inserted"/>
      <point x="284" y="-49"/>
      <point x="297" y="-56"/>
      <point x="303" y="-61" type="qcurve" smooth="yes"/>
      <point x="322" y="-77"/>
      <point x="333" y="-117"/>
      <point x="330" y="-142" type="qcurve" smooth="yes"/>
      <point x="327" y="-163"/>
      <point x="308" y="-202"/>
      <point x="293" y="-217" type="qcurve" smooth="yes" name="inserted"/>
      <point x="278" y="-232"/>
      <point x="236" y="-250"/>
      <point x="210" y="-250" type="qcurve" smooth="yes"/>
      <point x="176" y="-250"/>
      <point x="124" y="-213"/>
      <point x="116" y="-175" type="qcurve"/>
      <point x="128" y="-169"/>
      <point x="153" y="-157"/>
      <point x="165" y="-151" type="qcurve"/>
      <point x="168" y="-167"/>
      <point x="191" y="-188"/>
      <point x="211" y="-188" type="qcurve" smooth="yes"/>
      <point x="235" y="-188"/>
      <point x="266" y="-156"/>
      <point x="269" y="-132" type="qcurve" smooth="yes"/>
      <point x="272" y="-112"/>
      <point x="254" y="-89"/>
      <point x="242.5" y="-80" type="qcurve" smooth="yes" name="inserted"/>
      <point x="231" y="-71"/>
      <point x="212" y="-51"/>
      <point x="214" y="-34" type="qcurve" smooth="yes"/>
    </contour>
  </outline>
</glyph>
<glyph name="onesuperior" format="2">
  <advance width="273"/>
  <unicode hex="00B9"/>
  <outline>
    <contour>
      <point x="25" y="414.0" type="line"/>
      <point x="64" y="414.0" type="line"/>
      <point x="99" y="658.0" type="line"/>
      <point x="64" y="658.0" type="line"/>
      <point x="69" y="698.0" type="line"/>
      <point x="145" y="698.0" type="line"/>
      <point x="106" y="414.0" type="line"/>
      <point x="145" y="414.0" type="line"/>
      <point x="140" y="375.0" type="line"/>
      <point x="20" y="375.0" type="line"/>
    </contour>
  </outline>
</glyph>
<glyph name="ordmasculine" format="2">
  <advance width="469"/>
  <unicode hex="00BA"/>
  <outline>
    <contour>
      <point x="110" y="442" type="qcurve" smooth="yes"/>
      <point x="114" y="470"/>
      <point x="144" y="522"/>
      <point x="166" y="541" type="qcurve" smooth="yes" name="inserted"/>
      <point x="188" y="561"/>
      <point x="244" y="583"/>
      <point x="274" y="583" type="qcurve" smooth="yes"/>
      <point x="304" y="583"/>
      <point x="354" y="561"/>
      <point x="371" y="541" type="qcurve" smooth="yes" name="inserted"/>
      <point x="388" y="522"/>
      <point x="403" y="470"/>
      <point x="399" y="442" type="qcurve" smooth="yes"/>
      <point x="395" y="412"/>
      <point x="365" y="361"/>
      <point x="343" y="341" type="qcurve" smooth="yes" name="inserted"/>
      <point x="321" y="322"/>
      <point x="265" y="300"/>
      <point x="234" y="300" type="qcurve" smooth="yes"/>
      <point x="204" y="300"/>
      <point x="155" y="322"/>
      <point x="138" y="341" type="qcurve" smooth="yes" name="inserted"/>
      <point x="121" y="361"/>
      <point x="105" y="412"/>
    </contour>
    <contour>
      <point x="170" y="441" type="qcurve" smooth="yes"/>
      <point x="167" y="424"/>
      <point x="176" y="393"/>
      <point x="186" y="382" type="qcurve" smooth="yes" name="inserted"/>
      <point x="196" y="371"/>
      <point x="224" y="358"/>
      <point x="241" y="358" type="qcurve" smooth="yes"/>
      <point x="258" y="358"/>
      <point x="291" y="371"/>
      <point x="304" y="382" type="qcurve" smooth="yes" name="inserted"/>
      <point x="317" y="393"/>
      <point x="334" y="424"/>
      <point x="336" y="441" type="qcurve" smooth="yes"/>
      <point x="338" y="458"/>
      <point x="330" y="488"/>
      <point x="320" y="500" type="qcurve" smooth="yes" name="inserted"/>
      <point x="310" y="512"/>
      <point x="281" y="525"/>
      <point x="264" y="525" type="qcurve" smooth="yes"/>
      <point x="247" y="525"/>
      <point x="215" y="512"/>
      <point x="202" y="500" type="qcurve" smooth="yes" name="inserted"/>
      <point x="189" y="488"/>
      <point x="172" y="458"/>
    </contour>
  </outline>
</glyph>
<glyph name="guillemotright" format="2">
  <advance width="601"/>
  <unicode hex="00BB"/>
  <outline>
    <contour>
      <point x="130" y="172" type="line"/>
      <point x="149" y="189"/>
      <point x="185" y="222"/>
      <point x="204" y="239" type="qcurve"/>
      <point x="190" y="256"/>
      <point x="163" y="289"/>
      <point x="149" y="306" type="qcurve"/>
      <point x="162" y="400" type="line"/>
      <point x="199" y="359"/>
      <point x="273" y="280"/>
      <point x="310" y="239" type="qcurve"/>
      <point x="117" y="77" type="line"/>
    </contour>
    <contour>
      <point x="301" y="172" type="line"/>
      <point x="320" y="189"/>
      <point x="356" y="222"/>
      <point x="375" y="239" type="qcurve"/>
      <point x="361" y="256"/>
      <point x="334" y="288"/>
      <point x="320" y="305" type="qcurve"/>
      <point x="333" y="400" type="line"/>
      <point x="370" y="359"/>
      <point x="444" y="280"/>
      <point x="481" y="239" type="qcurve"/>
      <point x="288" y="77" type="line"/>
    </contour>
  </outline>
</glyph>
<glyph name="onehalf" format="2">
  <advance width="1069"/>
  <unicode hex="00BD"/>
  <outline>
    <contour>
      <point x="89" y="290" type="line"/>
      <point x="145" y="290" type="line"/>
      <point x="194" y="638" type="line"/>
      <point x="145" y="638" type="line"/>
      <point x="153" y="695" type="line"/>
      <point x="261" y="695" type="line"/>
      <point x="204" y="290" type="line"/>
      <point x="260" y="290" type="line"/>
      <point x="252" y="234" type="line"/>
      <point x="81" y="234" type="line"/>
    </contour>
    <contour>
      <point x="687" y="57" type="qcurve"/>
      <point x="804" y="57" type="line"/>
      <point x="813" y="123" type="line"/>
      <point x="869" y="123" type="line"/>
      <point x="851" y="0" type="line"/>
      <point x="537" y="0" type="line"/>
      <point x="587" y="44"/>
      <point x="681" y="127"/>
      <point x="718" y="166" type="qcurve" smooth="yes" name="inserted"/>
      <point x="755" y="204"/>
      <point x="804" y="277"/>
      <point x="809" y="311" type="qcurve" smooth="yes"/>
      <point x="813" y="337"/>
      <point x="801" y="374"/>
      <point x="789" y="386" type="qcurve" smooth="yes" name="inserted"/>
      <point x="778" y="398"/>
      <point x="749" y="409"/>
      <point x="736" y="409" type="qcurve" smooth="yes"/>
      <point x="709" y="409"/>
      <point x="673" y="391"/>
      <point x="661" y="378" type="qcurve" smooth="yes" name="inserted"/>
      <point x="649" y="364"/>
      <point x="637" y="334"/>
      <point x="636" y="323" type="qcurve" smooth="yes"/>
      <point x="633" y="300" name="inserted"/>
      <point x="641" y="263"/>
      <point x="653" y="249" type="qcurve"/>
      <point x="612" y="213" type="line"/>
      <point x="591" y="228"/>
      <point x="572" y="296"/>
      <point x="576" y="323" type="qcurve" smooth="yes"/>
      <point x="580" y="351"/>
      <point x="607" y="404"/>
      <point x="629" y="424" type="qcurve" smooth="yes" name="inserted"/>
      <point x="651" y="444"/>
      <point x="709" y="467"/>
      <point x="745" y="467" type="qcurve" smooth="yes"/>
      <point x="777" y="467"/>
      <point x="828" y="443"/>
      <point x="844" y="423" type="qcurve" smooth="yes" name="inserted"/>
      <point x="860" y="402"/>
      <point x="874" y="349"/>
      <point x="870" y="319" type="qcurve" smooth="yes"/>
      <point x="865" y="284"/>
      <point x="831" y="218"/>
      <point x="806" y="185" type="qcurve" smooth="yes" name="inserted"/>
      <point x="782" y="153"/>
      <point x="720" y="89"/>
    </contour>
    <contour>
      <point x="203" y="-19" type="line"/>
      <point x="300" y="171"/>
      <point x="490" y="546"/>
      <point x="587" y="736" type="qcurve"/>
      <point x="671" y="736" type="line"/>
      <point x="574" y="546"/>
      <point x="383" y="171"/>
      <point x="286" y="-19" type="qcurve"/>
    </contour>
  </outline>
</glyph>
<glyph name="Aring" format="1">
  <advance width="788"/>
  <unicode hex="00C5"/>
  <outline>
    <contour>
      <point x="478" y="836" type="qcurve" smooth="yes"/>
      <point x="476" y="822"/>
      <point x="491" y="804"/>
      <point x="505" y="804" type="qcurve" smooth="yes"/>
      <point x="519" y="804"/>
      <point x="541" y="822"/>
      <point x="543" y="836" type="qcurve" smooth="yes"/>
      <point x="545" y="850"/>
      <point x="528" y="869"/>
      <point x="514" y="869" type="qcurve" smooth="yes"/>
      <point x="500" y="869"/>
      <point x="480" y="850"/>
    </contour>
    <contour>
      <point x="423" y="837" type="qcurve"/>
      <point x="425" y="855"/>
      <point x="444" y="886"/>
      <point x="457.5" y="898.0" type="qcurve" smooth="yes" name="inserted"/>
      <point x="471" y="910"/>
      <point x="504" y="924"/>
      <point x="522" y="924" type="qcurve" smooth="yes"/>
      <point x="540" y="924"/>
      <point x="569" y="910"/>
      <point x="579.5" y="898.0" type="qcurve" smooth="yes" name="inserted"/>
      <point x="590" y="886"/>
      <point x="599" y="855"/>
      <point x="597" y="837" type="qcurve"/>
      <point x="594" y="819"/>
      <point x="576" y="788"/>
      <point x="562.5" y="776.0" type="qcurve" smooth="yes" name="inserted"/>
      <point x="549" y="764"/>
      <point x="516" y="750"/>
      <point x="498" y="750" type="qcurve" smooth="yes"/>
      <point x="480" y="750"/>
      <point x="451" y="764"/>
      <point x="440.5" y="776.0" type="qcurve" smooth="yes" name="inserted"/>
      <point x="430" y="788"/>
      <point x="420" y="819"/>
    </contour>
    <contour>
      <point x="46" y="79" type="line"/>
      <point x="128" y="79" type="line"/>
      <point x="220" y="244"/>
      <point x="404" y="567"/>
      <point x="496" y="732" type="qcurve"/>
      <point x="543" y="567"/>
      <point x="635" y="244"/>
      <point x="682" y="79" type="qcurve"/>
      <point x="764" y="79" type="line"/>
      <point x="753" y="0" type="line"/>
      <point x="531" y="0" type="line"/>
      <point x="542" y="79" type="line"/>
      <point x="598" y="79" type="line"/>
      <point x="584" y="129"/>
      <point x="556" y="227"/>
      <point x="542" y="277" type="qcurve"/>
      <point x="322" y="277" type="line"/>
      <point x="211" y="79" type="line"/>
      <point x="268" y="79" type="line"/>
      <point x="257" y="0" type="line"/>
      <point x="35" y="0" type="line"/>
    </contour>
    <contour>
      <point x="475" y="515" type="line"/>
      <point x="470" y="548" type="line"/>
      <point x="469" y="546"/>
      <point x="464" y="536"/>
      <point x="462" y="530" type="qcurve"/>
      <point x="460.0" y="526.5" name="inserted"/>
      <point x="456.5" y="519.0"/>
      <point x="455" y="515" type="qcurve"/>
      <point x="447.0" y="500.5" name="inserted"/>
      <point x="431.0" y="472.0"/>
      <point x="423" y="458" type="qcurve" smooth="yes"/>
      <point x="409" y="434"/>
      <point x="380" y="378"/>
      <point x="368" y="356" type="qcurve"/>
      <point x="520" y="356" type="line"/>
    </contour>
  </outline>
</glyph>
<glyph name="AE" format="1">
  <advance width="777"/>
  <unicode hex="00C6"/>
  <outline>
    <contour>
      <point x="725" y="546" type="line"/>
      <point x="736" y="621" type="line"/>
      <point x="562" y="621" type="line"/>
      <point x="530" y="392" type="line"/>
      <point x="744" y="392" type="line"/>
      <point x="732" y="313" type="line"/>
      <point x="518" y="313" type="line"/>
      <point x="486" y="79" type="line"/>
      <point x="674" y="79" type="line"/>
      <point x="684" y="154" type="line"/>
      <point x="763" y="154" type="line"/>
      <point x="742" y="0" type="line"/>
      <point x="392" y="0" type="line"/>
      <point x="429" y="264" type="line"/>
      <point x="314" y="264" type="line"/>
      <point x="288" y="217"/>
      <point x="235" y="126"/>
      <point x="209" y="79" type="qcurve"/>
      <point x="268" y="79" type="line"/>
      <point x="257" y="0" type="line"/>
      <point x="35" y="0" type="line"/>
      <point x="46" y="79" type="line"/>
      <point x="126" y="79" type="line"/>
      <point x="214" y="235"/>
      <point x="388" y="544"/>
      <point x="476" y="700" type="qcurve"/>
      <point x="826" y="700" type="line"/>
      <point x="804" y="546" type="line"/>
    </contour>
    <contour>
      <point x="440" y="343" type="line"/>
      <point x="469" y="548" type="line"/>
      <point x="447" y="496"/>
      <point x="386" y="394"/>
      <point x="358" y="343" type="qcurve"/>
    </contour>
  </outline>
</glyph>
<glyph name="Ccedilla" format="2">
  <advance width="610"/>
  <unicode hex="00C7"/>
  <outline>
    <contour>
      <point x="592" y="436" type="line"/>
      <point x="616" y="607" type="line"/>
      <point x="592" y="618" name="inserted"/>
      <point x="542" y="629"/>
      <point x="515" y="629" type="qcurve" smooth="yes"/>
      <point x="458" y="629"/>
      <point x="352" y="585"/>
      <point x="310" y="546" type="qcurve" smooth="yes" name="inserted"/>
      <point x="267" y="508"/>
      <point x="210" y="406"/>
      <point x="202" y="349" type="qcurve" smooth="yes"/>
      <point x="194" y="292"/>
      <point x="223" y="190"/>
      <point x="255" y="152" type="qcurve" smooth="yes" name="inserted"/>
      <point x="287" y="115"/>
      <point x="380" y="71"/>
      <point x="437" y="71" type="qcurve" smooth="yes"/>
      <point x="474" y="71" name="inserted"/>
      <point x="544" y="90"/>
      <point x="579" y="108" type="qcurve"/>
      <point x="615" y="42" type="line"/>
      <point x="573" y="20"/>
      <point x="486" y="-6"/>
      <point x="440" y="-8" type="qcurve"/>
      <point x="439" y="-14" name="inserted"/>
      <point x="438" y="-22"/>
      <point x="439" y="-22" type="qcurve"/>
      <point x="441" y="-41"/>
      <point x="464" y="-53"/>
      <point x="474" y="-61" type="qcurve" smooth="yes"/>
      <point x="493" y="-77"/>
      <point x="504" y="-117"/>
      <point x="501" y="-142" type="qcurve" smooth="yes"/>
      <point x="498" y="-163"/>
      <point x="479" y="-202"/>
      <point x="464" y="-217" type="qcurve" smooth="yes" name="inserted"/>
      <point x="449" y="-232"/>
      <point x="407" y="-250"/>
      <point x="381" y="-250" type="qcurve" smooth="yes"/>
      <point x="347" y="-250"/>
      <point x="295" y="-213"/>
      <point x="287" y="-175" type="qcurve"/>
      <point x="336" y="-151" type="line"/>
      <point x="339" y="-167"/>
      <point x="362" y="-188"/>
      <point x="382" y="-188" type="qcurve" smooth="yes"/>
      <point x="394" y="-188"/>
      <point x="414" y="-180"/>
      <point x="421" y="-172" type="qcurve" smooth="yes"/>
      <point x="429" y="-165"/>
      <point x="438" y="-144"/>
      <point x="440" y="-132" type="qcurve" smooth="yes"/>
      <point x="443" y="-112"/>
      <point x="425" y="-89"/>
      <point x="414" y="-80" type="qcurve" smooth="yes" name="inserted"/>
      <point x="402" y="-71"/>
      <point x="383" y="-51"/>
      <point x="385" y="-34" type="qcurve" smooth="yes"/>
      <point x="389" y="-6" type="line"/>
      <point x="322" y="1"/>
      <point x="214" y="61"/>
      <point x="178" y="108" type="qcurve" smooth="yes" name="inserted"/>
      <point x="141" y="156"/>
      <point x="109" y="280"/>
      <point x="119" y="349" type="qcurve" smooth="yes"/>
      <point x="129" y="423"/>
      <point x="204" y="554"/>
      <point x="259" y="602" type="qcurve" smooth="yes" name="inserted"/>
      <point x="314" y="651"/>
      <point x="452" y="708"/>
      <point x="526" y="708" type="qcurve" smooth="yes"/>
      <point x="577" y="708"/>
      <point x="665" y="682"/>
      <point x="702" y="658" type="qcurve"/>
      <point x="671" y="436" type="line"/>
    </contour>
  </outline>
</glyph>
<glyph name="Eth" format="2">
  <advance width="632"/>
  <unicode hex="00D0"/>
  <outline>
    <contour>
      <point x="98" y="390" type="line"/>
      <point x="136" y="390" type="line"/>
      <point x="169" y="621" type="line"/>
      <point x="122" y="621" type="line"/>
      <point x="133" y="700" type="line"/>
      <point x="343" y="700" type="line" smooth="yes"/>
      <point x="415" y="700"/>
      <point x="536" y="651"/>
      <point x="577.5" y="605.0" type="qcurve" smooth="yes" name="inserted"/>
      <point x="619" y="559"/>
      <point x="657" y="430"/>
      <point x="646" y="349" type="qcurve" smooth="yes"/>
      <point x="637" y="290"/>
      <point x="579" y="166"/>
      <point x="526.0" y="115.5" type="qcurve" smooth="yes" name="inserted"/>
      <point x="473" y="65"/>
      <point x="317" y="0"/>
      <point x="211" y="0" type="qcurve" smooth="yes"/>
      <point x="35" y="0" type="line"/>
      <point x="46" y="79" type="line"/>
      <point x="93" y="79" type="line"/>
      <point x="125" y="309" type="line"/>
      <point x="87" y="309" type="line"/>
    </contour>
    <contour>
      <point x="252" y="621" type="line"/>
      <point x="219" y="390" type="line"/>
      <point x="400" y="390" type="line"/>
      <point x="389" y="309" type="line"/>
      <point x="208" y="309" type="line"/>
      <point x="176" y="79" type="line"/>
      <point x="246" y="79" type="line" smooth="yes"/>
      <point x="305" y="79"/>
      <point x="412" y="118"/>
      <point x="454.5" y="153.0" type="qcurve" smooth="yes" name="inserted"/>
      <point x="497" y="188"/>
      <point x="554" y="288"/>
      <point x="563" y="350" type="qcurve" smooth="yes"/>
      <point x="572" y="412"/>
      <point x="543" y="512"/>
      <point x="510.0" y="547.5" type="qcurve" smooth="yes" name="inserted"/>
      <point x="477" y="583"/>
      <point x="381" y="621"/>
      <point x="322" y="621" type="qcurve" smooth="yes"/>
    </contour>
  </outline>
</glyph>
<glyph name="Thorn" format="1">
  <advance width="543"/>
  <unicode hex="00DE"/>
  <outline>
    <contour>
      <point x="46" y="79" type="line"/>
      <point x="117" y="79" type="line"/>
      <point x="193" y="621" type="line"/>
      <point x="122" y="621" type="line"/>
      <point x="133" y="700" type="line"/>
      <point x="355" y="700" type="line"/>
      <point x="344" y="621" type="line"/>
      <point x="276" y="621" type="line"/>
      <point x="264" y="535" type="line"/>
      <point x="346" y="535" type="line" smooth="yes"/>
      <point x="380" y="535"/>
      <point x="460" y="514"/>
      <point x="492.5" y="491.0" type="qcurve" smooth="yes" name="inserted"/>
      <point x="525" y="468"/>
      <point x="563" y="396"/>
      <point x="556" y="345" type="qcurve" smooth="yes"/>
      <point x="543" y="254"/>
      <point x="420" y="147"/>
      <point x="318" y="147" type="qcurve" smooth="yes"/>
      <point x="209" y="147" type="line"/>
      <point x="200" y="79" type="line"/>
      <point x="288" y="79" type="line"/>
      <point x="277" y="0" type="line"/>
      <point x="35" y="0" type="line"/>
    </contour>
    <contour>
      <point x="220" y="227" type="line"/>
      <point x="307" y="227" type="line" smooth="yes"/>
      <point x="351" y="227"/>
      <point x="412" y="250"/>
      <point x="431.5" y="267.0" type="qcurve" smooth="yes" name="inserted"/>
      <point x="451" y="284"/>
      <point x="470" y="326"/>
      <point x="473" y="345" type="qcurve" smooth="yes"/>
      <point x="476" y="367"/>
      <point x="459" y="408"/>
      <point x="441.5" y="423.5" type="qcurve" smooth="yes" name="inserted"/>
      <point x="424" y="439"/>
      <point x="372" y="457"/>
      <point x="341" y="457" type="qcurve" smooth="yes"/>
      <point x="253" y="457" type="line"/>
    </contour>
  </outline>
</glyph>
<glyph name="germandbls" format="1">
  <advance width="559"/>
  <unicode hex="00DF"/>
  <outline>
    <contour>
      <point x="47" y="79" type="line"/>
      <point x="107" y="79" type="line"/>
      <point x="143" y="334" type="line"/>
      <point x="83" y="334" type="line"/>
      <point x="94" y="415" type="line"/>
      <point x="154" y="415" type="line"/>
      <point x="155" y="423" type="line" smooth="yes"/>
      <point x="163" y="477"/>
      <point x="210" y="564"/>
      <point x="243.0" y="594.5" type="qcurve" smooth="yes" name="inserted"/>
      <point x="276" y="625"/>
      <point x="357" y="657"/>
      <point x="398" y="657" type="qcurve" smooth="yes"/>
      <point x="431" y="657"/>
      <point x="486" y="632"/>
      <point x="504.5" y="610.0" type="qcurve" smooth="yes" name="inserted"/>
      <point x="523" y="588"/>
      <point x="540" y="530"/>
      <point x="536" y="497" type="qcurve" smooth="yes"/>
      <point x="531" y="465"/>
      <point x="500" y="410"/>
      <point x="477" y="390" type="qcurve"/>
      <point x="519" y="361"/>
      <point x="562" y="266"/>
      <point x="554" y="208" type="qcurve" smooth="yes"/>
      <point x="548" y="163"/>
      <point x="502" y="84"/>
      <point x="468.0" y="54.5" type="qcurve" smooth="yes" name="inserted"/>
      <point x="434" y="25"/>
      <point x="350" y="-9"/>
      <point x="305" y="-9" type="qcurve" smooth="yes"/>
      <point x="282" y="-9"/>
      <point x="239" y="0"/>
      <point x="221" y="9" type="qcurve"/>
      <point x="265" y="83" type="line"/>
      <point x="277.0" y="77.5" name="inserted"/>
      <point x="302.5" y="72.0"/>
      <point x="316" y="72" type="qcurve" smooth="yes"/>
      <point x="344" y="72"/>
      <point x="396" y="94"/>
      <point x="417.5" y="112.5" type="qcurve" smooth="yes" name="inserted"/>
      <point x="439" y="131"/>
      <point x="467" y="180"/>
      <point x="471" y="208" type="qcurve" smooth="yes"/>
      <point x="475" y="236"/>
      <point x="459" y="285"/>
      <point x="443.0" y="303.0" type="qcurve" smooth="yes" name="inserted"/>
      <point x="427" y="321"/>
      <point x="380" y="342"/>
      <point x="352" y="342" type="qcurve"/>
      <point x="354" y="352"/>
      <point x="354" y="371"/>
      <point x="356" y="382" type="qcurve" smooth="yes"/>
      <point x="362" y="423" type="line"/>
      <point x="396" y="423"/>
      <point x="448" y="462"/>
      <point x="453" y="497" type="qcurve" smooth="yes"/>
      <point x="457" y="528"/>
      <point x="420" y="577"/>
      <point x="388" y="576" type="qcurve" smooth="yes"/>
      <point x="331" y="574"/>
      <point x="248" y="491"/>
      <point x="238" y="418" type="qcurve" smooth="yes"/>
      <point x="179" y="0" type="line"/>
      <point x="36" y="0" type="line"/>
    </contour>
  </outline>
</glyph>
<glyph name="aring" format="1">
  <advance width="547"/>
  <unicode hex="00E5"/>
  <outline>
    <contour>
      <point x="280" y="539" type="qcurve" smooth="yes"/>
      <point x="278" y="525"/>
      <point x="294" y="507"/>
      <point x="308" y="507" type="qcurve" smooth="yes"/>
      <point x="322" y="507"/>
      <point x="343" y="525"/>
      <point x="345" y="539" type="qcurve" smooth="yes"/>
      <point x="347" y="553"/>
      <point x="331" y="572"/>
      <point x="317" y="572" type="qcurve" smooth="yes"/>
      <point x="303" y="572"/>
      <point x="282" y="553"/>
    </contour>
    <contour>
      <point x="226" y="540" type="qcurve"/>
      <point x="228" y="558"/>
      <point x="247" y="589"/>
      <point x="260.5" y="601.0" type="qcurve" smooth="yes" name="inserted"/>
      <point x="274" y="613"/>
      <point x="307" y="627"/>
      <point x="325" y="627" type="qcurve" smooth="yes"/>
      <point x="343" y="627"/>
      <point x="372" y="613"/>
      <point x="382.5" y="601.0" type="qcurve" smooth="yes" name="inserted"/>
      <point x="393" y="589"/>
      <point x="402" y="558"/>
      <point x="400" y="540" type="qcurve"/>
      <point x="397" y="522"/>
      <point x="379" y="491"/>
      <point x="365.0" y="479.0" type="qcurve" smooth="yes" name="inserted"/>
      <point x="351" y="467"/>
      <point x="318" y="453"/>
      <point x="300" y="453" type="qcurve" smooth="yes"/>
      <point x="282" y="453"/>
      <point x="253" y="467"/>
      <point x="243.0" y="479.0" type="qcurve" smooth="yes" name="inserted"/>
      <point x="233" y="491"/>
      <point x="223" y="522"/>
    </contour>
    <contour>
      <point x="62" y="187" type="qcurve" smooth="yes"/>
      <point x="68" y="226"/>
      <point x="109" y="298"/>
      <point x="140.0" y="325.0" type="qcurve" smooth="yes" name="inserted"/>
      <point x="171" y="352"/>
      <point x="249" y="384"/>
      <point x="291" y="384" type="qcurve" smooth="yes"/>
      <point x="318" y="384"/>
      <point x="361" y="368"/>
      <point x="377.0" y="358.5" type="qcurve" smooth="yes" name="inserted"/>
      <point x="393" y="349"/>
      <point x="410" y="331"/>
      <point x="410" y="328" type="qcurve"/>
      <point x="412" y="339"/>
      <point x="418" y="363"/>
      <point x="420" y="375" type="qcurve"/>
      <point x="489" y="375" type="line"/>
      <point x="448" y="79" type="line"/>
      <point x="524" y="79" type="line"/>
      <point x="513" y="0" type="line"/>
      <point x="364" y="0" type="line"/>
      <point x="367" y="20" type="line" smooth="yes"/>
      <point x="368" y="25"/>
      <point x="368" y="35"/>
      <point x="369" y="40" type="qcurve"/>
      <point x="367" y="37"/>
      <point x="347" y="21"/>
      <point x="330.0" y="12.5" type="qcurve" smooth="yes" name="inserted"/>
      <point x="313" y="4"/>
      <point x="265" y="-9"/>
      <point x="236" y="-9" type="qcurve" smooth="yes"/>
      <point x="194" y="-9"/>
      <point x="124" y="22"/>
      <point x="101.0" y="49.0" type="qcurve" smooth="yes" name="inserted"/>
      <point x="78" y="76"/>
      <point x="56" y="147"/>
    </contour>
    <contour>
      <point x="146" y="188" type="qcurve" smooth="yes"/>
      <point x="139" y="139"/>
      <point x="195" y="72"/>
      <point x="247" y="72" type="qcurve" smooth="yes"/>
      <point x="273" y="72"/>
      <point x="318" y="90"/>
      <point x="336.0" y="105.5" type="qcurve" smooth="yes" name="inserted"/>
      <point x="354" y="121"/>
      <point x="377" y="164"/>
      <point x="380" y="188" type="qcurve" smooth="yes"/>
      <point x="387" y="238"/>
      <point x="331" y="303"/>
      <point x="279" y="303" type="qcurve" smooth="yes"/>
      <point x="253" y="303"/>
      <point x="208" y="286"/>
      <point x="190.0" y="270.5" type="qcurve" smooth="yes" name="inserted"/>
      <point x="172" y="255"/>
      <point x="149" y="213"/>
    </contour>
  </outline>
</glyph>
<glyph name="ae" format="2">
  <advance width="613"/>
  <unicode hex="00E6"/>
  <outline>
    <contour>
      <point x="387" y="242" type="qcurve" smooth="yes"/>
      <point x="384" y="220" type="line"/>
      <point x="416" y="231"/>
      <point x="478" y="253"/>
      <point x="510" y="264" type="qcurve"/>
      <point x="499" y="281"/>
      <point x="466" y="302"/>
      <point x="445" y="302" type="qcurve" smooth="yes"/>
      <point x="430.5" y="302.0" name="inserted"/>
      <point x="403.5" y="296.5"/>
      <point x="391" y="291" type="qcurve"/>
      <point x="391" y="280"/>
      <point x="389" y="256"/>
    </contour>
    <contour>
      <point x="288" y="134" type="line"/>
      <point x="232" y="134" type="line" smooth="yes"/>
      <point x="218" y="134"/>
      <point x="185" y="132"/>
      <point x="170.5" y="129.0" type="qcurve" smooth="yes" name="inserted"/>
      <point x="156" y="126"/>
      <point x="136" y="115"/>
      <point x="135" y="106" type="qcurve" smooth="yes"/>
      <point x="133" y="95"/>
      <point x="145" y="82"/>
      <point x="155.0" y="78.0" type="qcurve" smooth="yes" name="inserted"/>
      <point x="165" y="74"/>
      <point x="191" y="71"/>
      <point x="205" y="71" type="qcurve" smooth="yes"/>
      <point x="216" y="71"/>
      <point x="242" y="72"/>
      <point x="253.5" y="75.0" type="qcurve" smooth="yes" name="inserted"/>
      <point x="265" y="78"/>
      <point x="282" y="93"/>
      <point x="284" y="108" type="qcurve" smooth="yes"/>
    </contour>
    <contour>
      <point x="133" y="274" type="qcurve"/>
      <point x="97" y="327" type="line"/>
      <point x="110" y="338"/>
      <point x="147" y="359"/>
      <point x="168" y="366" type="qcurve" smooth="yes" name="inserted"/>
      <point x="189" y="374"/>
      <point x="233" y="383"/>
      <point x="252" y="383" type="qcurve" smooth="yes"/>
      <point x="291" y="383" name="inserted"/>
      <point x="346" y="372"/>
      <point x="361" y="361" type="qcurve"/>
      <point x="384" y="372" name="inserted"/>
      <point x="432" y="383"/>
      <point x="457" y="383" type="qcurve" smooth="yes"/>
      <point x="488" y="383"/>
      <point x="541" y="358"/>
      <point x="561" y="336" type="qcurve" smooth="yes" name="inserted"/>
      <point x="580" y="314"/>
      <point x="605" y="253"/>
      <point x="609" y="217" type="qcurve"/>
      <point x="372" y="133" type="line"/>
      <point x="371" y="127" type="line" smooth="yes"/>
      <point x="369" y="114"/>
      <point x="363" y="93"/>
      <point x="359" y="82" type="qcurve"/>
      <point x="370" y="76"/>
      <point x="398" y="71"/>
      <point x="413" y="71" type="qcurve" smooth="yes"/>
      <point x="436" y="71"/>
      <point x="477" y="88"/>
      <point x="493" y="103" type="qcurve"/>
      <point x="504" y="88"/>
      <point x="525" y="58"/>
      <point x="536" y="43" type="qcurve"/>
      <point x="507" y="18"/>
      <point x="440" y="-10"/>
      <point x="402" y="-10" type="qcurve" smooth="yes"/>
      <point x="376" y="-10" name="inserted"/>
      <point x="328" y="2"/>
      <point x="307" y="15" type="qcurve"/>
      <point x="287" y="2" name="inserted"/>
      <point x="231" y="-10"/>
      <point x="195" y="-10" type="qcurve" smooth="yes"/>
      <point x="159" y="-10"/>
      <point x="101" y="1"/>
      <point x="82" y="15" type="qcurve" smooth="yes" name="inserted"/>
      <point x="63" y="29"/>
      <point x="46" y="75"/>
      <point x="51" y="110" type="qcurve" smooth="yes"/>
      <point x="55" y="141"/>
      <point x="86" y="184"/>
      <point x="108" y="196" type="qcurve" smooth="yes" name="inserted"/>
      <point x="130" y="209"/>
      <point x="184" y="220"/>
      <point x="211" y="220" type="qcurve" smooth="yes"/>
      <point x="300" y="220" type="line"/>
      <point x="303" y="244" type="line" smooth="yes"/>
      <point x="305" y="259"/>
      <point x="303" y="280"/>
      <point x="296" y="288" type="qcurve" smooth="yes" name="inserted"/>
      <point x="290" y="295"/>
      <point x="262" y="302"/>
      <point x="239" y="302" type="qcurve" smooth="yes"/>
      <point x="225" y="302"/>
      <point x="192" y="297"/>
      <point x="177" y="292" type="qcurve" smooth="yes"/>
      <point x="164" y="288"/>
      <point x="141" y="279"/>
    </contour>
  </outline>
</glyph>
<glyph name="ccedilla" format="1">
  <advance width="398"/>
  <unicode hex="00E7"/>
  <outline>
    <contour>
      <point x="315" y="97" type="qcurve"/>
      <point x="356" y="34" type="line"/>
      <point x="327" y="14"/>
      <point x="260" y="-9"/>
      <point x="224" y="-9" type="qcurve"/>
      <point x="222" y="-24"/>
      <point x="227" y="-40"/>
      <point x="232.5" y="-45.0" type="qcurve" smooth="yes" name="inserted"/>
      <point x="238" y="-50"/>
      <point x="253" y="-56"/>
      <point x="259" y="-61" type="qcurve" smooth="yes"/>
      <point x="278" y="-77"/>
      <point x="289" y="-117"/>
      <point x="285" y="-142" type="qcurve" smooth="yes"/>
      <point x="280" y="-176"/>
      <point x="238" y="-233"/>
      <point x="203" y="-244" type="qcurve" smooth="yes"/>
      <point x="194.0" y="-247.0" name="inserted"/>
      <point x="175.0" y="-250.0"/>
      <point x="165" y="-250" type="qcurve" smooth="yes"/>
      <point x="131" y="-250"/>
      <point x="79" y="-213"/>
      <point x="71" y="-175" type="qcurve"/>
      <point x="121" y="-151" type="line"/>
      <point x="124" y="-167"/>
      <point x="147" y="-188"/>
      <point x="167" y="-188" type="qcurve" smooth="yes"/>
      <point x="191" y="-188"/>
      <point x="221" y="-156"/>
      <point x="225" y="-132" type="qcurve" smooth="yes"/>
      <point x="228" y="-112"/>
      <point x="209" y="-89"/>
      <point x="197.5" y="-80.0" type="qcurve" smooth="yes" name="inserted"/>
      <point x="186" y="-71"/>
      <point x="167" y="-51"/>
      <point x="169" y="-34" type="qcurve" smooth="yes"/>
      <point x="174" y="-2" type="line"/>
      <point x="143" y="6"/>
      <point x="94" y="42"/>
      <point x="77.5" y="67.0" type="qcurve" smooth="yes" name="inserted"/>
      <point x="61" y="92"/>
      <point x="48" y="154"/>
      <point x="53" y="188" type="qcurve" smooth="yes"/>
      <point x="59" y="228"/>
      <point x="100" y="300"/>
      <point x="130.5" y="326.5" type="qcurve" smooth="yes" name="inserted"/>
      <point x="161" y="353"/>
      <point x="238" y="384"/>
      <point x="280" y="384" type="qcurve" smooth="yes"/>
      <point x="317" y="384"/>
      <point x="378" y="361"/>
      <point x="401" y="341" type="qcurve"/>
      <point x="385" y="225" type="line"/>
      <point x="310" y="225" type="line"/>
      <point x="319" y="292" type="line"/>
      <point x="307.0" y="297.5" name="inserted"/>
      <point x="282.0" y="303.0"/>
      <point x="269" y="303" type="qcurve" smooth="yes"/>
      <point x="243" y="303"/>
      <point x="198" y="286"/>
      <point x="180.0" y="270.5" type="qcurve" smooth="yes" name="inserted"/>
      <point x="162" y="255"/>
      <point x="139" y="213"/>
      <point x="136" y="188" type="qcurve" smooth="yes"/>
      <point x="132" y="164"/>
      <point x="143" y="121"/>
      <point x="156.5" y="105.5" type="qcurve" smooth="yes" name="inserted"/>
      <point x="170" y="90"/>
      <point x="210" y="72"/>
      <point x="236" y="72" type="qcurve" smooth="yes"/>
      <point x="257.5" y="72.0" name="inserted"/>
      <point x="297.0" y="84.5"/>
    </contour>
  </outline>
</glyph>
<glyph name="iacute" format="1">
  <advance width="292"/>
  <unicode hex="00ED"/>
  <outline>
    <contour>
      <point x="46" y="79" type="line"/>
      <point x="116" y="79" type="line"/>
      <point x="146" y="296" type="line"/>
      <point x="76" y="296" type="line"/>
      <point x="87" y="375" type="line"/>
      <point x="240" y="375" type="line"/>
      <point x="199" y="79" type="line"/>
      <point x="268" y="79" type="line"/>
      <point x="257" y="0" type="line"/>
      <point x="35" y="0" type="line"/>
    </contour>
    <contour>
      <point x="187" y="479" type="line"/>
      <point x="214" y="512"/>
      <point x="268" y="579"/>
      <point x="295" y="612" type="qcurve"/>
      <point x="379" y="612" type="line"/>
      <point x="246" y="479" type="line"/>
    </contour>
  </outline>
</glyph>
<glyph name="icircumflex" format="1">
  <advance width="292"/>
  <unicode hex="00EE"/>
  <outline>
    <contour>
      <point x="46" y="79" type="line"/>
      <point x="116" y="79" type="line"/>
      <point x="146" y="296" type="line"/>
      <point x="76" y="296" type="line"/>
      <point x="87" y="375" type="line"/>
      <point x="240" y="375" type="line"/>
      <point x="199" y="79" type="line"/>
      <point x="268" y="79" type="line"/>
      <point x="257" y="0" type="line"/>
      <point x="35" y="0" type="line"/>
    </contour>
    <contour>
      <point x="226" y="660" type="qcurve"/>
      <point x="250" y="615"/>
      <point x="297" y="524"/>
      <point x="321" y="479" type="qcurve"/>
      <point x="262" y="479" type="line"/>
      <point x="211" y="551" type="line"/>
      <point x="194" y="533"/>
      <point x="157" y="497"/>
      <point x="140" y="479" type="qcurve"/>
      <point x="81" y="479" type="line"/>
      <point x="117" y="524"/>
      <point x="190" y="615"/>
    </contour>
  </outline>
</glyph>
<glyph name="idieresis" format="1">
  <advance width="292"/>
  <unicode hex="00EF"/>
  <outline>
    <contour>
      <point x="46" y="79" type="line"/>
      <point x="116" y="79" type="line"/>
      <point x="146" y="296" type="line"/>
      <point x="76" y="296" type="line"/>
      <point x="87" y="375" type="line"/>
      <point x="240" y="375" type="line"/>
      <point x="199" y="79" type="line"/>
      <point x="268" y="79" type="line"/>
      <point x="257" y="0" type="line"/>
      <point x="35" y="0" type="line"/>
    </contour>
    <contour>
      <point x="249" y="520" type="qcurve" smooth="yes"/>
      <point x="252" y="543"/>
      <point x="288" y="573"/>
      <point x="308" y="573" type="qcurve" smooth="yes"/>
      <point x="327" y="573"/>
      <point x="355" y="543"/>
      <point x="352" y="520" type="qcurve" smooth="yes"/>
      <point x="348" y="497"/>
      <point x="313" y="468"/>
      <point x="294" y="468" type="qcurve" smooth="yes"/>
      <point x="274" y="468"/>
      <point x="245" y="497"/>
    </contour>
    <contour>
      <point x="83" y="520" type="qcurve" smooth="yes"/>
      <point x="86" y="543"/>
      <point x="122" y="573"/>
      <point x="142" y="573" type="qcurve" smooth="yes"/>
      <point x="161" y="573"/>
      <point x="189" y="543"/>
      <point x="186" y="520" type="qcurve" smooth="yes"/>
      <point x="182" y="497"/>
      <point x="147" y="468"/>
      <point x="128" y="468" type="qcurve" smooth="yes"/>
      <point x="108" y="468"/>
      <point x="79" y="497"/>
    </contour>
  </outline>
</glyph>
<glyph name="eth" format="2">
  <advance width="471"/>
  <unicode hex="00F0"/>
  <outline>
    <contour>
      <point x="146" y="188" type="qcurve" smooth="yes"/>
      <point x="143" y="163"/>
      <point x="155" y="121"/>
      <point x="169" y="106" type="qcurve" smooth="yes" name="inserted"/>
      <point x="183" y="91"/>
      <point x="224" y="74"/>
      <point x="250" y="75" type="qcurve" smooth="yes"/>
      <point x="276" y="76"/>
      <point x="321" y="95"/>
      <point x="338" y="111" type="qcurve" smooth="yes" name="inserted"/>
      <point x="356" y="127"/>
      <point x="378" y="170"/>
      <point x="381" y="194" type="qcurve" smooth="yes"/>
      <point x="383" y="219"/>
      <point x="370" y="261"/>
      <point x="356" y="276" type="qcurve" smooth="yes"/>
      <point x="343" y="291"/>
      <point x="302" y="306"/>
      <point x="277" y="306" type="qcurve" smooth="yes"/>
      <point x="251" y="305"/>
      <point x="206" y="288"/>
      <point x="189" y="273" type="qcurve" smooth="yes"/>
      <point x="171" y="258"/>
      <point x="149" y="214"/>
    </contour>
    <contour>
      <point x="464" y="197" type="qcurve" smooth="yes"/>
      <point x="459" y="156"/>
      <point x="420" y="84"/>
      <point x="390" y="56.5" type="qcurve" smooth="yes" name="inserted"/>
      <point x="360" y="29"/>
      <point x="284" y="-5"/>
      <point x="242" y="-6" type="qcurve" smooth="yes"/>
      <point x="200" y="-7"/>
      <point x="131" y="22"/>
      <point x="106.5" y="48" type="qcurve" smooth="yes" name="inserted"/>
      <point x="82" y="74"/>
      <point x="58" y="144"/>
      <point x="62" y="185" type="qcurve" smooth="yes"/>
      <point x="66" y="225"/>
      <point x="106" y="298"/>
      <point x="136.5" y="325" type="qcurve" smooth="yes" name="inserted"/>
      <point x="167" y="352"/>
      <point x="243" y="385"/>
      <point x="285" y="386" type="qcurve" smooth="yes"/>
      <point x="301.5" y="386.5" name="inserted"/>
      <point x="333" y="382.5"/>
      <point x="348" y="378" type="qcurve"/>
      <point x="340" y="418"/>
      <point x="312" y="493"/>
      <point x="293" y="528" type="qcurve"/>
      <point x="280" y="515"/>
      <point x="253" y="491"/>
      <point x="240" y="478" type="qcurve"/>
      <point x="227" y="492"/>
      <point x="202" y="517"/>
      <point x="189" y="531" type="qcurve"/>
      <point x="206" y="546"/>
      <point x="237" y="576"/>
      <point x="254" y="591" type="qcurve"/>
      <point x="236.5" y="616" name="inserted"/>
      <point x="197" y="662"/>
      <point x="175" y="683" type="qcurve"/>
      <point x="192" y="697"/>
      <point x="226" y="724"/>
      <point x="243" y="738" type="qcurve"/>
      <point x="264" y="720"/>
      <point x="303" y="678"/>
      <point x="322" y="655" type="qcurve"/>
      <point x="335" y="668"/>
      <point x="360" y="692"/>
      <point x="374" y="705" type="qcurve"/>
      <point x="386" y="692"/>
      <point x="412" y="667"/>
      <point x="425" y="654" type="qcurve"/>
      <point x="409" y="639"/>
      <point x="378" y="610"/>
      <point x="362" y="595" type="qcurve"/>
      <point x="387" y="554"/>
      <point x="431" y="456"/>
      <point x="445.5" y="404" type="qcurve" smooth="yes" name="inserted"/>
      <point x="460" y="352"/>
      <point x="471" y="246"/>
    </contour>
  </outline>
</glyph>
<glyph name="divide" format="2">
  <advance width="501"/>
  <unicode hex="00F7"/>
  <outline>
    <contour>
      <point x="428" y="206" type="line"/>
      <point x="68" y="206" type="line"/>
      <point x="79" y="287" type="line"/>
      <point x="439" y="287" type="line"/>
    </contour>
    <contour>
      <point x="216" y="373" type="qcurve" smooth="yes"/>
      <point x="219" y="396"/>
      <point x="255" y="426"/>
      <point x="275" y="426" type="qcurve" smooth="yes"/>
      <point x="294" y="426"/>
      <point x="322" y="396"/>
      <point x="319" y="373" type="qcurve" smooth="yes"/>
      <point x="316" y="350"/>
      <point x="280" y="321"/>
      <point x="261" y="321" type="qcurve" smooth="yes"/>
      <point x="241" y="321"/>
      <point x="213" y="350"/>
    </contour>
    <contour>
      <point x="181" y="123" type="qcurve" smooth="yes"/>
      <point x="184" y="146"/>
      <point x="220" y="176"/>
      <point x="240" y="176" type="qcurve" smooth="yes"/>
      <point x="259" y="176"/>
      <point x="287" y="146"/>
      <point x="284" y="123" type="qcurve" smooth="yes"/>
      <point x="281" y="100"/>
      <point x="245" y="71"/>
      <point x="226" y="71" type="qcurve" smooth="yes"/>
      <point x="206" y="71"/>
      <point x="178" y="100"/>
    </contour>
  </outline>
</glyph>
<glyph name="oslash" format="2">
  <advance width="471"/>
  <unicode hex="00F8"/>
  <outline>
    <contour>
      <point x="148" y="188" type="qcurve"/>
      <point x="145.0" y="170.5" name="inserted"/>
      <point x="149.0" y="139.0"/>
      <point x="156" y="125" type="qcurve"/>
      <point x="213" y="182"/>
      <point x="269" y="238"/>
      <point x="326" y="295" type="qcurve"/>
      <point x="315.0" y="299.0" name="inserted"/>
      <point x="292.5" y="303.0"/>
      <point x="281" y="303" type="qcurve" smooth="yes"/>
      <point x="255" y="303"/>
      <point x="210" y="286"/>
      <point x="192.0" y="270.5" type="qcurve" smooth="yes" name="inserted"/>
      <point x="174" y="255"/>
      <point x="151" y="213"/>
    </contour>
    <contour>
      <point x="248" y="72" type="qcurve" smooth="yes"/>
      <point x="274" y="72"/>
      <point x="319" y="90"/>
      <point x="337.0" y="105.5" type="qcurve" smooth="yes" name="inserted"/>
      <point x="355" y="121"/>
      <point x="378" y="164"/>
      <point x="382" y="188" type="qcurve" smooth="yes"/>
      <point x="384.5" y="208.5" name="inserted"/>
      <point x="378.0" y="244.0"/>
      <point x="369" y="259" type="qcurve"/>
      <point x="324" y="215"/>
      <point x="238" y="129"/>
      <point x="194" y="85" type="qcurve"/>
      <point x="206.0" y="78.5" name="inserted"/>
      <point x="233.0" y="72.0"/>
    </contour>
    <contour>
      <point x="65" y="188" type="qcurve" smooth="yes"/>
      <point x="71" y="228"/>
      <point x="112" y="300"/>
      <point x="142.5" y="326.5" type="qcurve" smooth="yes" name="inserted"/>
      <point x="173" y="353"/>
      <point x="250" y="384"/>
      <point x="292" y="384" type="qcurve" smooth="yes"/>
      <point x="320.0" y="384.0" name="inserted"/>
      <point x="368.0" y="371.0"/>
      <point x="388" y="358" type="qcurve"/>
      <point x="399" y="369"/>
      <point x="421" y="390"/>
      <point x="432" y="401" type="qcurve"/>
      <point x="442" y="391"/>
      <point x="461" y="371"/>
      <point x="471" y="361" type="qcurve"/>
      <point x="458" y="348"/>
      <point x="444" y="334"/>
      <point x="431" y="321" type="qcurve"/>
      <point x="452" y="295"/>
      <point x="471" y="226"/>
      <point x="466" y="188" type="qcurve" smooth="yes"/>
      <point x="460" y="147"/>
      <point x="419" y="76"/>
      <point x="388.0" y="49.0" type="qcurve" smooth="yes" name="inserted"/>
      <point x="357" y="22"/>
      <point x="279" y="-9"/>
      <point x="237" y="-9" type="qcurve" smooth="yes"/>
      <point x="206" y="-9"/>
      <point x="154" y="8"/>
      <point x="132" y="23" type="qcurve"/>
      <point x="120" y="11"/>
      <point x="96" y="-14"/>
      <point x="84" y="-26" type="qcurve"/>
      <point x="73" y="-16"/>
      <point x="53" y="2"/>
      <point x="43" y="12" type="qcurve"/>
      <point x="55" y="25"/>
      <point x="80" y="49"/>
      <point x="93" y="62" type="qcurve"/>
      <point x="75" y="88"/>
      <point x="60" y="152"/>
    </contour>
  </outline>
</glyph>
<glyph name="thorn" format="1">
  <advance width="510"/>
  <unicode hex="00FE"/>
  <outline>
    <contour>
      <point x="-43" y="-171" type="line"/>
      <point x="33" y="-171" type="line"/>
      <point x="152" y="671" type="line"/>
      <point x="75" y="671" type="line"/>
      <point x="86" y="750" type="line"/>
      <point x="308" y="750" type="line"/>
      <point x="297" y="671" type="line"/>
      <point x="235" y="671" type="line"/>
      <point x="191" y="360" type="line"/>
      <point x="187" y="352"/>
      <point x="180" y="337"/>
      <point x="177" y="329" type="qcurve"/>
      <point x="179" y="332"/>
      <point x="202" y="350"/>
      <point x="220.0" y="359.0" type="qcurve" smooth="yes" name="inserted"/>
      <point x="238" y="368"/>
      <point x="285" y="382"/>
      <point x="311" y="382" type="qcurve" smooth="yes"/>
      <point x="353" y="382"/>
      <point x="422" y="351"/>
      <point x="445.5" y="324.0" type="qcurve" smooth="yes" name="inserted"/>
      <point x="469" y="297"/>
      <point x="490" y="226"/>
      <point x="485" y="187" type="qcurve" smooth="yes"/>
      <point x="479" y="147"/>
      <point x="438" y="76"/>
      <point x="407.0" y="49.0" type="qcurve" smooth="yes" name="inserted"/>
      <point x="376" y="22"/>
      <point x="298" y="-9"/>
      <point x="256" y="-9" type="qcurve" smooth="yes"/>
      <point x="228" y="-9"/>
      <point x="186" y="3"/>
      <point x="171.0" y="10.5" type="qcurve" smooth="yes" name="inserted"/>
      <point x="156" y="18"/>
      <point x="139" y="34"/>
      <point x="137" y="38" type="qcurve"/>
      <point x="139" y="33"/>
      <point x="141" y="24"/>
      <point x="143" y="19" type="qcurve"/>
      <point x="116" y="-171" type="line"/>
      <point x="198" y="-171" type="line"/>
      <point x="187" y="-250" type="line"/>
      <point x="-54" y="-250" type="line"/>
    </contour>
    <contour>
      <point x="401" y="188" type="qcurve" smooth="yes"/>
      <point x="408" y="238"/>
      <point x="352" y="303"/>
      <point x="300" y="303" type="qcurve" smooth="yes"/>
      <point x="274" y="303"/>
      <point x="229" y="286"/>
      <point x="211.0" y="270.5" type="qcurve" smooth="yes" name="inserted"/>
      <point x="193" y="255"/>
      <point x="170" y="213"/>
      <point x="167" y="188" type="qcurve" smooth="yes"/>
      <point x="160" y="139"/>
      <point x="215" y="72"/>
      <point x="267" y="72" type="qcurve" smooth="yes"/>
      <point x="293" y="72"/>
      <point x="339" y="90"/>
      <point x="356.5" y="105.5" type="qcurve" smooth="yes" name="inserted"/>
      <point x="374" y="121"/>
      <point x="398" y="164"/>
    </contour>
  </outline>
</glyph>
